0
SECTION
2
HEADER
9
$INSUNITS
70
4
9
$ACADVER
1
AC1014
9
$HANDSEED
5
FFFF
0
ENDSEC
0
SECTION
2
TABLES
0
TABLE
2
VPORT
5
8
100
AcDbSymbolTable
0
ENDTAB
0
TABLE
2
LTYPE
5
5
100
AcDbSymbolTable
0
LTYPE
5
14
100
AcDbSymbolTableRecord
100
AcDbLinetypeTableRecord
2
BYBLOCK
70
0
0
LTYPE
5
15
100
AcDbSymbolTableRecord
100
AcDbLinetypeTableRecord
2
BYLAYER
70
0
0
ENDTAB
0
TABLE
2
LAYER
5
2
100
AcDbSymbolTable
70
2
0
LAYER
5
50
100
AcDbSymbolTableRecord
100
AcDbLayerTableRecord
2
0
70
0
6
CONTINUOUS
0
ENDTAB
0
TABLE
2
STYLE
5
3
100
AcDbSymbolTable
70
1
0
STYLE
5
11
100
AcDbSymbolTableRecord
100
AcDbTextStyleTableRecord
2
STANDARD
70
0
0
ENDTAB
0
TABLE
2
VIEW
5
6
100
AcDbSymbolTable
70
0
0
ENDTAB
0
TABLE
2
UCS
5
7
100
AcDbSymbolTable
70
0
0
ENDTAB
0
TABLE
2
APPID
5
9
100
AcDbSymbolTable
70
2
0
APPID
5
12
100
AcDbSymbolTableRecord
100
AcDbRegAppTableRecord
2
ACAD
70
0
0
ENDTAB
0
TABLE
2
DIMSTYLE
5
A
100
AcDbSymbolTable
70
1
0
ENDTAB
0
TABLE
2
BLOCK_RECORD
5
1
100
AcDbSymbolTable
70
1
0
BLOCK_RECORD
5
1F
100
AcDbSymbolTableRecord
100
AcDbBlockTableRecord
2
*MODEL_SPACE
0
BLOCK_RECORD
5
1B
100
AcDbSymbolTableRecord
100
AcDbBlockTableRecord
2
*PAPER_SPACE
0
ENDTAB
0
ENDSEC
0
SECTION
2
BLOCKS
0
BLOCK
5
20
100
AcDbEntity
100
AcDbBlockBegin
2
*MODEL_SPACE
0
ENDBLK
5
21
100
AcDbEntity
100
AcDbBlockEnd
0
BLOCK
5
1C
100
AcDbEntity
100
AcDbBlockBegin
2
*PAPER_SPACE
0
ENDBLK
5
1D
100
AcDbEntity
100
AcDbBlockEnd
0
ENDSEC
0
SECTION
2
ENTITIES
0
LWPOLYLINE
5
100
100
AcDbEntity
8
0
100
AcDbPolyline
90
113
70
1
43
0.0
10
124.01990000195816
20
-29.445086905757151
10
124.01990000195812
20
-43.545087021589325
42
-0.41421356237309503
10
123.51990000195813
20
-44.045087021589325
10
116.51990839429216
20
-44.045087021589339
42
-0.41421356237309503
10
116.01990839429214
20
-43.545087021589325
10
116.01990839429217
20
-29.445086905757151
42
0.41421356237310025
10
115.01990000195812
20
-28.445086905757137
10
112.98614845616713
20
-28.445086905757133
42
-0.11715681205666349
10
111.18709400991725
20
-28.017677436370533
10
107.60419655908478
20
-26.213432719787075
42
0.11715681205662919
10
105.80514211283537
20
-25.786023250400731
10
68.99604967848822
20
-25.786023250400731
42
-0.19891236737965914
10
66.874729334928574
20
-24.90734359396037
10
63.062540689077203
20
-21.095154948109109
42
0.19891236737965717
10
62.355433907890713
20
-20.802261729295605
10
61.369647470263821
20
-20.802261729295608
42
0.41421356237309503
10
60.869647470263821
20
-21.302261729295608
10
60.869647470263828
20
-24.25200919760151
42
-0.99999999999999989
10
57.66964747026379
20
-24.252009197601502
10
57.669647470263797
20
-21.302261729295608
42
0.41421356237309503
10
57.169647470263797
20
-20.802261729295605
10
56.183861032636912
20
-20.802261729295605
42
0.19891236737967682
10
55.476754251450309
20
-21.095154948109109
10
51.664565605599186
20
-24.907343593960341
42
-0.19891236737965823
10
49.543245262039541
20
-25.786023250400699
10
35.81989922357554
20
-25.786023250400724
42
0.41421356237309437
10
33.81989922357554
20
-27.786023250400774
10
33.819899223575582
20
-119.98602052355369
42
0.41421356237309209
10
37.819899223575575
20
-123.98602052355371
10
51.61127064079092
20
-123.98602052355373
42
-0.19891236737965859
10
53.732590984350566
20
-124.86470017999409
10
55.47675425145038
20
-126.60886344709431
42
0.19891236737956822
10
56.183861032636884
20
-126.90175666590731
10
57.169647470263776
20
-126.90175666590731
42
0.41421356237309503
10
57.669647470263776
20
-126.4017566659073
10
57.669647470263783
20
-123.45200919760131
42
-0.99999999999999989
10
60.869647470263786
20
-123.45200919760131
10
60.869647470263786
20
-126.4017566659073
42
0.41421356237309503
10
61.369647470263772
20
-126.90175666590731
10
62.355433907890685
20
-126.90175666590731
42
0.19891236737956658
10
63.062540689076982
20
-126.60886344709411
10
64.806702743030783
20
-124.86470139314009
42
-0.19891236737965914
10
66.928023086590429
20
-123.98602173669973
10
68.636330687087565
20
-123.98602173669973
42
0.25008569359550437
10
70.297589696522479
20
-123.09967271594383
42
-0.2500856935955037
10
72.29115004692656
20
-122.03602745992833
10
167.60678264055372
20
-122.03602745992839
42
-0.19891236737966239
10
169.72810298411338
20
-122.91470711636877
10
173.42225931483887
20
-126.60886344709439
42
0.19891236737947521
10
174.12936609602494
20
-126.90175666590734
10
175.11515253365195
20
-126.90175666590734
42
0.41421356237309503
10
175.61515253365198
20
-126.40175666590734
10
175.61515253365195
20
-123.45200919760134
42
-0.99999999999999989
10
178.81515253365194
20
-123.45200919760134
10
178.81515253365194
20
-126.40175666590734
42
0.41421356237309503
10
179.31515253365194
20
-126.90175666590734
10
180.30093897127895
20
-126.90175666590734
42
0.19891236737966128
10
181.00804575246596
20
-126.60886344709434
10
184.70220208319029
20
-122.91470711636904
42
-0.19891236737969287
10
186.8235224267502
20
-122.03602745992841
10
285.46178264055379
20
-122.03602745992845
42
-0.19891236737965801
10
287.5831029841134
20
-122.91470711636882
10
291.277259314839
20
-126.60886344709438
42
0.19891236737947193
10
291.98436609602493
20
-126.90175666590739
10
292.97015253365197
20
-126.90175666590739
42
0.41421356237309503
10
293.47015253365197
20
-126.40175666590737
10
293.47015253365197
20
-123.45200919760138
42
-0.99999999999999989
10
296.67015253365196
20
-123.45200919760138
10
296.67015253365196
20
-126.40175666590737
42
0.41421356237309503
10
297.17015253365196
20
-126.90175666590739
10
298.15593897127894
20
-126.90175666590739
42
0.19891236737965801
10
298.8630457524655
20
-126.60886344709394
10
302.55720486273157
20
-122.91470433682782
42
-0.1989123673796602
10
304.67852520629128
20
-122.03602468038744
10
318.51990078034072
20
-122.03602468038746
42
0.41421356237309503
10
320.51990078034066
20
-120.03602468038747
10
320.51990078034061
20
-27.786023250400778
42
0.41421356237309503
10
318.51990078034066
20
-25.786023250400774
10
304.79655474187638
20
-25.786023250400767
42
-0.19891236737965742
10
302.67523439831672
20
-24.907343593960412
10
298.86304575246601
20
-21.09515494810918
42
0.19891236737975107
10
298.155938971279
20
-20.80226172929568
10
297.17015253365207
20
-20.80226172929568
42
0.41421356237309503
10
296.67015253365201
20
-21.302261729295683
10
296.67015253365201
20
-24.252009197601577
42
-0.99999999999999989
10
293.47015253365203
20
-24.252009197601584
10
293.47015253365203
20
-21.30226172929568
42
0.41421356237309503
10
292.97015253365197
20
-20.80226172929568
10
291.98436609602498
20
-20.80226172929568
42
0.198912367379565
10
291.27725931483872
20
-21.095154948108874
10
287.465073053173
20
-24.907341209774604
42
-0.19891236737965881
10
285.34375270961334
20
-25.786020866214969
10
248.53466262563475
20
-25.786020866214958
42
0.11715681205663077
10
246.73560817938534
20
-26.213430335601334
10
243.15270599399898
20
-28.017677436370523
42
-0.11715681205666191
10
241.35365154774914
20
-28.445086905757115
10
239.31990000195813
20
-28.445086905757119
42
0.41421356237309503
10
238.31990000195813
20
-29.445086905757144
10
238.31990000195813
20
-43.545087021589367
42
-0.41421356237309503
10
237.8199000019581
20
-44.04508702158936
10
230.81990000195816
20
-44.045087021589367
42
-0.41421356237309503
10
230.31990000195816
20
-43.545087021589367
10
230.31990000195816
20
-29.445086905757144
42
0.41421356237309503
10
229.31990000195813
20
-28.44508690575713
10
185.16990000195815
20
-28.445086905757123
42
0.41421356237309503
10
184.16990000195813
20
-29.445086905757144
10
184.1699000019581
20
-42.245087021589349
42
-0.41421356237309503
10
183.6699000019581
20
-42.745087021589342
10
170.66990000195813
20
-42.745087021589356
42
-0.41421356237309503
10
170.16990000195813
20
-42.245087021589349
10
170.16990000195815
20
-29.445086905757144
42
0.41421356237309503
10
169.16990000195813
20
-28.44508690575713
10
125.01990000195816
20
-28.44508690575713
42
0.41421356237308982
0
LINE
5
101
100
AcDbEntity
8
0
100
AcDbLine
10
87.682400001957902
20
-45.770087021589333
30
-3.890298264086513e-08
11
276.18240000195806
21
-45.77008702158939
31
-3.8902982640865342e-08
0
ARC
5
102
100
AcDbEntity
8
0
100
AcDbCircle
10
276.18240000195806
20
-46.770087021589397
30
-3.8902954123773377e-08
40
1.0000000000000142
210
-6.3133356705317675e-16
220
0
230
1
100
AcDbArc
50
0
51
90
0
LINE
5
103
100
AcDbEntity
8
0
100
AcDbLine
10
277.18240000195806
20
-46.770087021589397
30
-3.8902953492439812e-08
11
277.18240000195811
21
-51.820087021589416
31
8.5101392599534249e-09
0
ARC
5
104
100
AcDbEntity
8
0
100
AcDbCircle
10
277.68240000195681
20
-51.820087021589416
30
2.6292662451460073e-05
40
0.49999999999993827
210
9.4826194996559813e-08
220
0
230
0.99999999999999556
100
AcDbArc
50
180
51
270
0
LINE
5
105
100
AcDbEntity
8
0
100
AcDbLine
10
277.68240000195806
20
-52.320087021589387
30
-3.8902958554083242e-08
11
282.42565000195799
21
-52.320087021589401
31
-3.8902982640865454e-08
0
ARC
5
106
100
AcDbEntity
8
0
100
AcDbCircle
10
282.42565000195799
20
-51.820087021589387
30
-3.8902964295588773e-08
40
0.50000000000001599
210
0
220
-3.6690553365911276e-14
230
1
100
AcDbArc
50
-90
51
0
0
LINE
5
107
100
AcDbEntity
8
0
100
AcDbLine
10
282.92565000195799
20
-51.820087021589387
30
-3.8902964589981109e-08
11
282.92565000195799
21
-44.295087021589438
31
8.5101392599534117e-09
0
ARC
5
108
100
AcDbEntity
8
0
100
AcDbCircle
10
283.42565000195799
20
-44.295087021589438
30
8.5101392599534117e-09
40
0.49999999999997158
210
0
220
-0
230
1
100
AcDbArc
50
90
51
180
0
LINE
5
109
100
AcDbEntity
8
0
100
AcDbLine
10
283.42565000195799
20
-43.795087021589467
30
8.5101392599534117e-09
11
289.92565300195798
21
-43.795087021589431
31
8.5101392599533968e-09
0
ARC
5
110
100
AcDbEntity
8
0
100
AcDbCircle
10
289.92565300195798
20
-44.295087021589438
30
8.5101392599533968e-09
40
0.50000000000000711
210
2.0679515313825398e-24
220
0
230
1
100
AcDbArc
50
0
51
90
0
LINE
5
111
100
AcDbEntity
8
0
100
AcDbLine
10
290.42565300195798
20
-44.295087021589438
30
8.5101392599533951e-09
11
290.42565241372222
21
-44.795087433353721
31
8.5101392599533951e-09
0
ARC
5
112
100
AcDbEntity
8
0
100
AcDbCircle
10
290.92565241372063
20
-44.795088021589031
30
2.7548471064962321e-05
40
0.50000000000000022
210
9.4826182534045025e-08
220
-1.1156021595063117e-13
230
0.99999999999999567
100
AcDbArc
50
179.99993260053219
51
270
0
LINE
5
113
100
AcDbEntity
8
0
100
AcDbLine
10
290.92565241372188
20
-45.295088021589052
30
-3.8902952322800569e-08
11
305.55165000195791
21
-45.295088021589066
31
-3.8902983057199062e-08
0
ARC
5
114
100
AcDbEntity
8
0
100
AcDbCircle
10
305.55165000195791
20
-44.795088021589052
30
-3.8902951125684273e-08
40
0.50000000000000711
210
0
220
-6.3863029581591573e-14
230
1
100
AcDbArc
50
-90
51
0
0
LINE
5
115
100
AcDbEntity
8
0
100
AcDbLine
10
306.05165000195791
20
-44.795088021589052
30
-3.890295139877015e-08
11
306.05165000195797
21
-44.295087021589424
31
8.5101392599533621e-09
0
ARC
5
116
100
AcDbEntity
8
0
100
AcDbCircle
10
306.55165000195791
20
-44.295087021589424
30
8.5101392599533604e-09
40
0.49999999999997158
210
0
220
-0
230
1
100
AcDbArc
50
90
51
180
0
LINE
5
117
100
AcDbEntity
8
0
100
AcDbLine
10
306.55165000195791
20
-43.795087021589453
30
8.5101392599533604e-09
11
313.80165000195802
21
-43.795087021589474
31
8.5101392599533439e-09
0
ARC
5
118
100
AcDbEntity
8
0
100
AcDbCircle
10
313.80165000195802
20
-44.295087021589481
30
8.5101392599533439e-09
40
0.50000000000000711
210
2.0679515313825398e-24
220
0
230
1
100
AcDbArc
50
0
51
90
0
LINE
5
119
100
AcDbEntity
8
0
100
AcDbLine
10
314.30165000195802
20
-44.295087021589481
30
8.5101392599533422e-09
11
314.30165000195797
21
-64.295087021589467
31
8.5101392599533422e-09
0
ARC
5
120
100
AcDbEntity
8
0
100
AcDbCircle
10
313.80165000195791
20
-64.295087021589467
30
8.5101392599533439e-09
40
0.50000000000004263
210
0
220
0
230
1
100
AcDbArc
50
-90
51
0
0
LINE
5
121
100
AcDbEntity
8
0
100
AcDbLine
10
313.80165000195791
20
-64.795087021589509
30
8.5101392599533439e-09
11
307.30165000195791
21
-64.795087021589467
31
8.5101392599533588e-09
0
ARC
5
122
100
AcDbEntity
8
0
100
AcDbCircle
10
307.30165000195791
20
-64.295087021589467
30
8.5101392599533588e-09
40
0.50000000000000711
210
2.0679515313825398e-24
220
0
230
1
100
AcDbArc
50
180
51
270
0
LINE
5
123
100
AcDbEntity
8
0
100
AcDbLine
10
306.80165000195791
20
-64.295087021589467
30
8.5101392599533588e-09
11
306.80165000195797
21
-60.59508702158945
31
8.5101392599533588e-09
0
ARC
5
124
100
AcDbEntity
8
0
100
AcDbCircle
10
306.50165000195796
20
-60.59508702158945
30
8.5101392599533604e-09
40
0.30000000000001137
210
3.4465858856374848e-24
220
0
230
1
100
AcDbArc
50
0
51
90
0
LINE
5
125
100
AcDbEntity
8
0
100
AcDbLine
10
306.50165000195796
20
-60.295087021589438
30
8.5101392599533604e-09
11
305.91365000195799
21
-60.295087021589438
31
8.5101392599533621e-09
0
ARC
5
126
100
AcDbEntity
8
0
100
AcDbCircle
10
305.91365000195799
20
-60.59508702158945
30
8.5101392599533621e-09
40
0.30000000000001137
210
0
220
-0
230
1
100
AcDbArc
50
90
51
180
0
LINE
5
127
100
AcDbEntity
8
0
100
AcDbLine
10
305.61365000195798
20
-60.59508702158945
30
8.5101392599533621e-09
11
305.61365000195804
21
-61.295087021589396
31
8.5101392599533621e-09
0
ARC
5
128
100
AcDbEntity
8
0
100
AcDbCircle
10
305.11365000195804
20
-61.295087021589396
30
8.5101392599533637e-09
40
0.49999999999998046
210
0
220
0
230
1
100
AcDbArc
50
-90
51
0
0
LINE
5
129
100
AcDbEntity
8
0
100
AcDbLine
10
305.11365000195804
20
-61.795087021589374
30
8.5101392599533637e-09
11
292.11365000195804
21
-61.795087021589381
31
8.5101392599533918e-09
0
ARC
5
130
100
AcDbEntity
8
0
100
AcDbCircle
10
292.11365000195804
20
-61.295087021589381
30
8.5101392599533918e-09
40
0.49999999999997158
210
2.0679515313826867e-24
220
0
230
1
100
AcDbArc
50
180
51
270
0
LINE
5
131
100
AcDbEntity
8
0
100
AcDbLine
10
291.61365000195804
20
-61.295087021589381
30
8.5101392599533918e-09
11
291.61365000195781
21
-60.595087021589443
31
8.5101392599533918e-09
0
ARC
5
132
100
AcDbEntity
8
0
100
AcDbCircle
10
291.31365000195791
20
-60.595087021589443
30
8.5101392599533935e-09
40
0.29999999999994031
210
3.446585885638301e-24
220
0
230
1
100
AcDbArc
50
0
51
90
0
LINE
5
133
100
AcDbEntity
8
0
100
AcDbLine
10
291.31365000195791
20
-60.295087021589502
30
8.5101392599533935e-09
11
290.72565000195806
21
-60.295087021589431
31
8.5101392599533951e-09
0
ARC
5
134
100
AcDbEntity
8
0
100
AcDbCircle
10
290.725650001958
20
-60.595087021589443
30
8.5101392599533951e-09
40
0.30000000000001137
210
0
220
-0
230
1
100
AcDbArc
50
89.999999999989143
51
180
0
LINE
5
135
100
AcDbEntity
8
0
100
AcDbLine
10
290.42565000195799
20
-60.595087021589407
30
8.5101392599533951e-09
11
290.42565000195788
21
-64.295087021589424
31
8.5101392599533951e-09
0
ARC
5
136
100
AcDbEntity
8
0
100
AcDbCircle
10
289.92565000195793
20
-64.295087021589424
30
8.5101392599533968e-09
40
0.49999999999997158
210
0
220
0
230
1
100
AcDbArc
50
-90
51
0
0
LINE
5
137
100
AcDbEntity
8
0
100
AcDbLine
10
289.92565000195793
20
-64.795087021589396
30
8.5101392599533968e-09
11
287.20740000195798
21
-64.795087021589396
31
8.5101392599534034e-09
0
ARC
5
138
100
AcDbEntity
8
0
100
AcDbCircle
10
287.20740000195798
20
-65.29508702158941
30
8.5101458912388222e-09
40
0.50000000000001599
210
0
220
1.3262570837564289e-14
230
1
100
AcDbArc
50
90
51
180
0
LINE
5
139
100
AcDbEntity
8
0
100
AcDbLine
10
286.70740000195798
20
-65.29508702158941
30
8.5101458699643771e-09
11
286.70740000195798
21
-82.870087021589342
31
8.5101392599534034e-09
0
ARC
5
140
100
AcDbEntity
8
0
100
AcDbCircle
10
287.20740000195798
20
-82.870087021589313
30
8.5101383821562195e-09
40
0.50000000000004263
210
1.7555943698649549e-15
220
6.2371241322438391e-29
230
1
100
AcDbArc
50
180
51
270
0
LINE
5
141
100
AcDbEntity
8
0
100
AcDbLine
10
287.20740000195798
20
-83.37008702158937
30
8.5101383821562195e-09
11
290.46990000195797
21
-83.37008702158937
31
8.5101392599533951e-09
0
ARC
5
142
100
AcDbEntity
8
0
100
AcDbCircle
10
290.46990000195797
20
-84.370087021589342
30
8.5101373298024776e-09
40
0.99999999999997868
210
2.0679515313826133e-24
220
0
230
1
100
AcDbArc
50
0
51
90
0
LINE
5
143
100
AcDbEntity
8
0
100
AcDbLine
10
291.46990000195797
20
-84.370087021589342
30
8.5101373298024759e-09
11
291.46990000195802
21
-101.42008702158935
31
8.5101392599533935e-09
0
ARC
5
144
100
AcDbEntity
8
0
100
AcDbCircle
10
290.46990000195808
20
-101.42008702158935
30
8.5101231327848926e-09
40
0.99999999999997868
210
0
220
0
230
1
100
AcDbArc
50
-90.000000000003254
51
0
0
LINE
5
145
100
AcDbEntity
8
0
100
AcDbLine
10
290.46990000195802
20
-102.42008702158934
30
8.5101231327848926e-09
11
69.682900001957904
21
-102.42008702158928
31
8.5101392599538782e-09
0
ARC
5
146
100
AcDbEntity
8
0
100
AcDbCircle
10
69.682900001957904
20
-102.92008702158881
30
9.7206272393128914e-06
40
0.49999999999999156
210
0
220
-9.4826292209707906e-08
230
0.99999999999999556
100
AcDbArc
50
90
51
180
0
LINE
5
147
100
AcDbEntity
8
0
100
AcDbLine
10
69.182900001957904
20
-102.92008702158927
30
-3.8903006550506932e-08
11
69.182900001957918
21
-104.4450870215893
31
8.5101392599538799e-09
0
ARC
5
148
100
AcDbEntity
8
0
100
AcDbCircle
10
69.682900001957918
20
-104.4450870215893
30
8.5101392599538782e-09
40
0.50000000000000711
210
2.0679515313825398e-24
220
0
230
1
100
AcDbArc
50
180
51
270
0
LINE
5
149
100
AcDbEntity
8
0
100
AcDbLine
10
69.682900001957918
20
-104.94508702158932
30
8.5101392599538782e-09
11
69.719900001957939
21
-104.94508702158932
31
8.5101392599538782e-09
0
ARC
5
150
100
AcDbEntity
8
0
100
AcDbCircle
10
69.719900001957939
20
-105.44508702158933
30
8.5101392599538782e-09
40
0.50000000000000711
210
2.0679515313825398e-24
220
0
230
1
100
AcDbArc
50
0
51
90
0
LINE
5
151
100
AcDbEntity
8
0
100
AcDbLine
10
70.219900001957953
20
-105.44508702158933
30
8.5101392599538782e-09
11
70.219900001957953
21
-118.44508702158933
31
8.5101392599538782e-09
0
ARC
5
152
100
AcDbEntity
8
0
100
AcDbCircle
10
69.719900001957939
20
-118.44508702158933
30
8.5101392599538782e-09
40
0.50000000000000711
210
0
220
0
230
1
100
AcDbArc
50
-90
51
0
0
LINE
5
153
100
AcDbEntity
8
0
100
AcDbLine
10
69.719900001957939
20
-118.94508702158933
30
8.5101392599538782e-09
11
69.682900001957918
21
-118.94508702158933
31
8.5101392599538782e-09
0
ARC
5
154
100
AcDbEntity
8
0
100
AcDbCircle
10
69.682900001957918
20
-119.44508702158934
30
8.5101392599538782e-09
40
0.50000000000000711
210
0
220
-0
230
1
100
AcDbArc
50
90
51
180
0
LINE
5
155
100
AcDbEntity
8
0
100
AcDbLine
10
69.182900001957918
20
-119.44508702158934
30
8.5101392599538799e-09
11
69.182900001957933
21
-120.94508702158942
31
8.5101392599538799e-09
0
ARC
5
156
100
AcDbEntity
8
0
100
AcDbCircle
10
68.682900001957961
20
-120.94508702158942
30
-3.8903028807898328e-08
40
0.49999999999997158
210
0
220
-5.4617175784244249e-16
230
1
100
AcDbArc
50
-90
51
5.3997386567638338e-06
0
LINE
5
157
100
AcDbEntity
8
0
100
AcDbLine
10
68.682900001957961
20
-121.44508702158939
30
-3.8903029080984212e-08
11
62.032900001957962
21
-121.44508702158939
31
-3.890298305719879e-08
0
ARC
5
158
100
AcDbEntity
8
0
100
AcDbCircle
10
62.032900001957962
20
-120.94508702158939
30
-3.8903029208652359e-08
40
0.50000000000000711
210
-6.3139758256078223e-16
220
0
230
1
100
AcDbArc
50
180
51
270
0
LINE
5
159
100
AcDbEntity
8
0
100
AcDbLine
10
61.532900001957955
20
-120.94508702158939
30
-3.8903029524351147e-08
11
61.532900001957962
21
-119.44508702158939
31
8.5101392599538964e-09
0
ARC
5
160
100
AcDbEntity
8
0
100
AcDbCircle
10
61.032900001957906
20
-119.44508702158939
30
8.5101392599538964e-09
40
0.5000000000000604
210
2.0679515313823194e-24
220
0
230
1
100
AcDbArc
50
0
51
90
0
LINE
5
161
100
AcDbEntity
8
0
100
AcDbLine
10
61.032900001957906
20
-118.94508702158932
30
8.5101392599538964e-09
11
45.656900001957965
21
-118.94508702158942
31
8.5101392599539312e-09
0
ARC
5
162
100
AcDbEntity
8
0
100
AcDbCircle
10
45.656900001957965
20
-119.44508702158942
30
8.5101392599539312e-09
40
0.50000000000000711
210
0
220
-0
230
1
100
AcDbArc
50
90
51
180
0
LINE
5
163
100
AcDbEntity
8
0
100
AcDbLine
10
45.156900001957958
20
-119.44508702158942
30
8.5101392599539328e-09
11
45.156900001957993
21
-120.94508702158933
31
8.5101392599539328e-09
0
ARC
5
164
100
AcDbEntity
8
0
100
AcDbCircle
10
44.656900001957951
20
-120.94508702158934
30
-3.8903030255795523e-08
40
0.50000000000004263
210
0
220
-5.4617175784236488e-16
230
1
100
AcDbArc
50
-90
51
5.3997386567638338e-06
0
LINE
5
165
100
AcDbEntity
8
0
100
AcDbLine
10
44.656900001957951
20
-121.44508702158939
30
-3.8903030528881401e-08
11
38.006900001957916
21
-121.44508702158939
31
-3.8902983057198764e-08
0
ARC
5
166
100
AcDbEntity
8
0
100
AcDbCircle
10
38.006900001957924
20
-120.94508702158939
30
-3.8903030656549548e-08
40
0.50000000000000711
210
-6.3139758256078223e-16
220
0
230
1
100
AcDbArc
50
180
51
269.9999999999992
0
LINE
5
167
100
AcDbEntity
8
0
100
AcDbLine
10
37.506900001957916
20
-120.94508702158939
30
-3.8903030972248343e-08
11
37.506900001957916
21
-119.4450870215893
31
8.5101392599539494e-09
0
ARC
5
168
100
AcDbEntity
8
0
100
AcDbCircle
10
37.006900001957909
20
-119.4450870215893
30
8.5101392599539494e-09
40
0.50000000000000711
210
2.0679515313825398e-24
220
0
230
1
100
AcDbArc
50
0
51
90
0
LINE
5
169
100
AcDbEntity
8
0
100
AcDbLine
10
37.006900001957909
20
-118.9450870215893
30
8.5101392599539494e-09
11
36.969900001957924
21
-118.9450870215893
31
8.5101392599539494e-09
0
ARC
5
170
100
AcDbEntity
8
0
100
AcDbCircle
10
36.969900001957924
20
-118.4450870215893
30
8.5101392599539494e-09
40
0.50000000000000711
210
2.0679515313825398e-24
220
0
230
1
100
AcDbArc
50
180
51
270
0
LINE
5
171
100
AcDbEntity
8
0
100
AcDbLine
10
36.469900001957917
20
-118.4450870215893
30
8.510139259953951e-09
11
36.469900001957917
21
-105.44508702158933
31
8.510139259953951e-09
0
ARC
5
172
100
AcDbEntity
8
0
100
AcDbCircle
10
36.969900001957924
20
-105.44508702158933
30
8.5101392599539494e-09
40
0.50000000000000711
210
0
220
-0
230
1
100
AcDbArc
50
90
51
180
0
LINE
5
173
100
AcDbEntity
8
0
100
AcDbLine
10
36.969900001957924
20
-104.94508702158932
30
8.5101392599539494e-09
11
37.006900001957909
21
-104.94508702158932
31
8.5101392599539494e-09
0
ARC
5
174
100
AcDbEntity
8
0
100
AcDbCircle
10
37.006900001957909
20
-104.4450870215893
30
8.5101392599539494e-09
40
0.50000000000000711
210
0
220
0
230
1
100
AcDbArc
50
-90
51
0
0
LINE
5
175
100
AcDbEntity
8
0
100
AcDbLine
10
37.506900001957916
20
-104.4450870215893
30
8.5101392599539494e-09
11
37.506900001957916
21
-101.44508702158974
31
8.5101392599539494e-09
0
ARC
5
176
100
AcDbEntity
8
0
100
AcDbCircle
10
38.006900001957959
20
-101.44508702158974
30
8.5101392599539477e-09
40
0.50000000000004263
210
0
220
-0
230
1
100
AcDbArc
50
90
51
180
0
LINE
5
177
100
AcDbEntity
8
0
100
AcDbLine
10
38.006900001957959
20
-100.9450870215897
30
8.5101392599539477e-09
11
44.656900001957979
21
-100.94508702158963
31
8.5101392599539328e-09
0
ARC
5
178
100
AcDbEntity
8
0
100
AcDbCircle
10
44.656900001957979
20
-101.4450870215896
30
8.5101392599539328e-09
40
0.49999999999997158
210
2.0679515313826867e-24
220
0
230
1
100
AcDbArc
50
0
51
90
0
LINE
5
179
100
AcDbEntity
8
0
100
AcDbLine
10
45.156900001957951
20
-101.4450870215896
30
8.5101392599539328e-09
11
45.156900001957929
21
-101.9451090515893
31
8.5101392599539328e-09
0
ARC
5
180
100
AcDbEntity
8
0
100
AcDbCircle
10
45.656900001957752
20
-101.9451090515893
30
4.2905722141903277e-06
40
0.50000000000002709
210
9.4826307269646725e-08
220
0
230
0.99999999999999556
100
AcDbArc
50
180
51
270
0
LINE
5
181
100
AcDbEntity
8
0
100
AcDbLine
10
45.656900001957951
20
-102.44510905158933
30
-3.8903014690570787e-08
11
61.032900001957941
21
-102.44510905158933
31
-3.890298305719879e-08
0
ARC
5
182
100
AcDbEntity
8
0
100
AcDbCircle
10
61.032900001957941
20
-101.9451090515893
30
-3.8903013448256369e-08
40
0.50000000000002487
210
0
220
6.0782115153616284e-14
230
1
100
AcDbArc
50
-90
51
0
0
LINE
5
183
100
AcDbEntity
8
0
100
AcDbLine
10
61.532900001957962
20
-101.9451090515893
30
-3.8903013721342246e-08
11
61.532900001957969
21
-101.44508702158944
31
8.5101392599538964e-09
0
ARC
5
184
100
AcDbEntity
8
0
100
AcDbCircle
10
62.032900001957984
20
-101.44508702158944
30
8.5101392599538948e-09
40
0.50000000000000711
210
0
220
-0
230
1
100
AcDbArc
50
90
51
180
0
LINE
5
185
100
AcDbEntity
8
0
100
AcDbLine
10
62.032900001957984
20
-100.94508702158944
30
8.5101392599538948e-09
11
62.369900001957944
21
-100.94508702158944
31
8.5101392599538948e-09
0
ARC
5
186
100
AcDbEntity
8
0
100
AcDbCircle
10
62.36990000195793
20
-100.44508702158899
30
-9.5637346899623535e-06
40
0.50000000000000944
210
-1.6844527131038741e-21
220
9.4826257638224209e-08
230
0.99999999999999556
100
AcDbArc
50
-89.99999999999838
51
0
0
LINE
5
187
100
AcDbEntity
8
0
100
AcDbLine
10
62.869900001957923
20
-100.44508702158943
30
-3.8902989537836739e-08
11
62.86990000195793
21
-84.345071988462038
31
8.5101392599538931e-09
0
ARC
5
188
100
AcDbEntity
8
0
100
AcDbCircle
10
61.869900001957859
20
-84.345071988462038
30
-2.9723491057547869e-06
40
0.99999999999999756
210
-4.7413138002794812e-08
220
0
230
0.99999999999999889
100
AcDbArc
50
0
51
90
0
LINE
5
189
100
AcDbEntity
8
0
100
AcDbLine
10
61.86990000195793
20
-83.345071988462038
30
-3.8902998111443219e-08
11
48.038150296081227
21
-83.345071988462038
31
-3.8902983057198777e-08
0
ARC
5
190
100
AcDbEntity
8
0
100
AcDbCircle
10
48.038150296081227
20
-83.845071988462024
30
-3.8902999160060478e-08
40
0.49999999999998934
210
0
220
-3.2205723401963553e-14
230
1
100
AcDbArc
50
90
51
179.9999663002661
0
LINE
5
191
100
AcDbEntity
8
0
100
AcDbLine
10
47.538150296081326
20
-83.845071694347681
30
-3.8902998886974502e-08
11
47.538150001957966
21
-84.345087021589379
31
8.5101392599539279e-09
0
ARC
5
192
100
AcDbEntity
8
0
100
AcDbCircle
10
47.038150001957924
20
-84.345087021589379
30
8.5101392599539279e-09
40
0.50000000000004263
210
0
220
0
230
1
100
AcDbArc
50
-90
51
0
0
LINE
5
193
100
AcDbEntity
8
0
100
AcDbLine
10
47.038150001957924
20
-84.845087021589421
30
8.5101392599539279e-09
11
40.388150001957968
21
-84.845087021589393
31
8.5101392599539427e-09
0
ARC
5
194
100
AcDbEntity
8
0
100
AcDbCircle
10
40.388150001957968
20
-84.345087021589237
30
8.5101392599539427e-09
40
0.50000000000014921
210
2.0679515313819521e-24
220
0
230
1
100
AcDbArc
50
180
51
270
0
LINE
5
195
100
AcDbEntity
8
0
100
AcDbLine
10
39.888150001957818
20
-84.345087021589237
30
8.5101392599539444e-09
11
39.888150001957932
21
-65.345087021589364
31
8.5101392599539444e-09
0
ARC
5
196
100
AcDbEntity
8
0
100
AcDbCircle
10
40.388150001957939
20
-65.345087021589364
30
8.5101392599539427e-09
40
0.50000000000000711
210
0
220
-0
230
1
100
AcDbArc
50
90
51
180
0
LINE
5
197
100
AcDbEntity
8
0
100
AcDbLine
10
40.388150001957939
20
-64.84508702158935
30
8.5101392599539427e-09
11
47.038150001957931
21
-64.845087021589364
31
8.5101392599539279e-09
0
ARC
5
198
100
AcDbEntity
8
0
100
AcDbCircle
10
47.038150001957931
20
-65.345087021589364
30
8.5101392599539279e-09
40
0.50000000000000711
210
2.0679515313825398e-24
220
0
230
1
100
AcDbArc
50
0
51
90
0
LINE
5
199
100
AcDbEntity
8
0
100
AcDbLine
10
47.538150001957938
20
-65.345087021589364
30
8.5101392599539279e-09
11
47.53814800195795
21
-68.045094021589378
31
8.5101392599539279e-09
0
ARC
5
200
100
AcDbEntity
8
0
100
AcDbCircle
10
47.838148001957961
20
-68.045094021589378
30
8.5101392599539262e-09
40
0.30000000000001137
210
3.4465858856374848e-24
220
0
230
1
100
AcDbArc
50
180
51
270
0
LINE
5
201
100
AcDbEntity
8
0
100
AcDbLine
10
47.838148001957961
20
-68.345094021589389
30
8.5101392599539262e-09
11
48.426148001957941
21
-68.345094021589347
31
8.5101392599539245e-09
0
ARC
5
202
100
AcDbEntity
8
0
100
AcDbCircle
10
48.426148001957941
20
-68.045094021589378
30
8.5101392599539245e-09
40
0.29999999999997584
210
0
220
0
230
1
100
AcDbArc
50
-90
51
0
0
LINE
5
203
100
AcDbEntity
8
0
100
AcDbLine
10
48.726148001957917
20
-68.045094021589378
30
8.5101392599539245e-09
11
48.726150001957997
21
-67.345087021589308
31
8.5101392599539245e-09
0
ARC
5
204
100
AcDbEntity
8
0
100
AcDbCircle
10
49.22615000195799
20
-67.345087021589407
30
8.5101392599539229e-09
40
0.50000000000007816
210
0
220
-0
230
1
100
AcDbArc
50
90
51
180
0
LINE
5
205
100
AcDbEntity
8
0
100
AcDbLine
10
49.22615000195799
20
-66.845087021589336
30
8.5101392599539229e-09
11
62.226150001958004
21
-66.845087021589308
31
8.5101392599538948e-09
0
ARC
5
206
100
AcDbEntity
8
0
100
AcDbCircle
10
62.226150001958004
20
-67.345087021589208
30
8.5101392599538948e-09
40
0.49999999999992717
210
2.0679515313828704e-24
220
-4.040761830952791e-37
230
1
100
AcDbArc
50
0
51
90
0
LINE
5
207
100
AcDbEntity
8
0
100
AcDbLine
10
62.726150001957926
20
-67.345087021589308
30
8.5101392599538931e-09
11
62.726148001957938
21
-68.045094021589378
31
8.5101392599538931e-09
0
ARC
5
208
100
AcDbEntity
8
0
100
AcDbCircle
10
63.026148001957949
20
-68.045094021589378
30
8.5101392599538931e-09
40
0.30000000000001137
210
0
220
0
230
1
100
AcDbArc
50
180
51
270
0
LINE
5
209
100
AcDbEntity
8
0
100
AcDbLine
10
63.026148001957949
20
-68.345094021589389
30
8.5101392599538931e-09
11
63.614148001957965
21
-68.345094021589347
31
8.5101392599538915e-09
0
ARC
5
210
100
AcDbEntity
8
0
100
AcDbCircle
10
63.614148001957965
20
-68.045094021589378
30
8.5101392599538915e-09
40
0.29999999999997584
210
0
220
0
230
1
100
AcDbArc
50
-90
51
0
0
LINE
5
211
100
AcDbEntity
8
0
100
AcDbLine
10
63.91414800195794
20
-68.045094021589378
30
8.5101392599538915e-09
11
63.914150001957964
21
-65.345087021589364
31
8.5101392599538915e-09
0
ARC
5
212
100
AcDbEntity
8
0
100
AcDbCircle
10
64.414150001957978
20
-65.345087021589364
30
8.5101392599538898e-09
40
0.50000000000000711
210
0
220
-0
230
1
100
AcDbArc
50
90
51
180
0
LINE
5
213
100
AcDbEntity
8
0
100
AcDbLine
10
64.414150001957978
20
-64.845087021589364
30
8.5101392599538898e-09
11
71.064150001957969
21
-64.845087021589364
31
8.5101392599538749e-09
0
ARC
5
214
100
AcDbEntity
8
0
100
AcDbCircle
10
71.064150001957969
20
-65.345087021589364
30
8.5101392599538749e-09
40
0.50000000000000711
210
2.0679515313825398e-24
220
-3.6734198463195441e-38
230
1
100
AcDbArc
50
0
51
90
0
LINE
5
215
100
AcDbEntity
8
0
100
AcDbLine
10
71.564150001957969
20
-65.345087021589379
30
8.5101392599538749e-09
11
71.564150001957941
21
-70.870087021589285
31
8.5101392599538749e-09
0
ARC
5
216
100
AcDbEntity
8
0
100
AcDbCircle
10
72.064150001957643
20
-70.870087021589285
30
6.7946693194207235e-06
40
0.50000000000001832
210
9.4826238835717402e-08
220
0
230
0.99999999999999556
100
AcDbArc
50
180
51
270
0
LINE
5
217
100
AcDbEntity
8
0
100
AcDbLine
10
72.064150001957955
20
-71.370087021589313
30
-3.8902980452298886e-08
11
76.657400001957896
21
-71.370087021589299
31
-3.8902982640865103e-08
0
ARC
5
218
100
AcDbEntity
8
0
100
AcDbCircle
10
76.657400001957896
20
-70.870087021589285
30
-3.8902986215208569e-08
40
0.50000000000000711
210
0
220
7.148686925021399e-15
230
1
100
AcDbArc
50
-90
51
0
0
LINE
5
219
100
AcDbEntity
8
0
100
AcDbLine
10
77.15740000195791
20
-70.870087021589285
30
-3.8902986488326462e-08
11
77.15740000195791
21
-65.320087021589316
31
8.5101392599538617e-09
0
ARC
5
220
100
AcDbEntity
8
0
100
AcDbCircle
10
78.15740000195791
20
-65.320087021589316
30
8.5101403973497016e-09
40
0.99999999999999645
210
0
220
-0
230
1
100
AcDbArc
50
90
51
180
0
LINE
5
221
100
AcDbEntity
8
0
100
AcDbLine
10
78.15740000195791
20
-64.320087021589316
30
8.5101403973497016e-09
11
86.182400001957987
21
-64.32008702158933
31
8.5101392599538418e-09
0
ARC
5
222
100
AcDbEntity
8
0
100
AcDbCircle
10
86.182400001957987
20
-63.82008702158933
30
8.5101421299725177e-09
40
0.50000000000000711
210
0
220
-5.7400373516813006e-15
230
1
100
AcDbArc
50
-90
51
0
0
LINE
5
223
100
AcDbEntity
8
0
100
AcDbLine
10
86.682400001958001
20
-63.820087021589309
30
8.5101421299725177e-09
11
86.682400001957888
21
-46.770087021589333
31
8.5101392599538418e-09
0
ARC
5
224
100
AcDbEntity
8
0
100
AcDbCircle
10
87.682400001957902
20
-46.770087021589326
30
-3.8902965483501229e-08
40
0.99999999999999645
210
0
220
1.7157363903942444e-14
230
1
100
AcDbArc
50
90
51
180.00000269986933
0
LWPOLYLINE
5
225
100
AcDbEntity
8
0
100
AcDbPolyline
90
8
70
1
43
0.0
10
246.03240000195802
20
-28.745087021589267
10
247.03240000195805
20
-28.74508702158932
42
-0.41421356237309503
10
247.53240000195808
20
-29.245087021589363
10
247.53240000195805
20
-42.245087021589363
42
-0.41421356237309503
10
247.03240000195805
20
-42.745087021589363
10
246.03240000195802
20
-42.745087021589335
42
-0.41421356237309503
10
245.53240000195808
20
-42.245087021589363
10
245.53240000195791
20
-29.245087021589363
42
-0.41421356237309503
0
LWPOLYLINE
5
226
100
AcDbEntity
8
0
100
AcDbPolyline
90
8
70
1
43
0.0
10
251.63240000195802
20
-28.745087021589271
10
264.63240000195799
20
-28.745087021589327
42
-0.41421356237309503
10
265.13240000195805
20
-29.24508702158937
10
265.13240000195799
20
-42.245087021589363
42
-0.41421356237309503
10
264.63240000195799
20
-42.745087021589384
10
251.63240000195802
20
-42.74508702158937
42
-0.41421356237309503
10
251.13240000195802
20
-42.245087021589363
10
251.13240000195802
20
-29.245087021589367
42
-0.41421356237315227
0
LWPOLYLINE
5
227
100
AcDbEntity
8
0
100
AcDbPolyline
90
8
70
1
43
0.0
10
317.85740000195801
20
-42.745087021589384
42
0.41421356237309503
10
318.35740000195801
20
-42.245087021589384
10
318.35740000195801
20
-29.245087021589384
42
0.41421356237315227
10
317.85740000195801
20
-28.745087021589288
10
316.85740000195801
20
-28.745087021589278
42
0.41421356237315227
10
316.35740000195801
20
-29.245087021589384
10
316.35740000195801
20
-42.245087021589384
42
0.41421356237309503
10
316.85740000195801
20
-42.745087021589391
0
LWPOLYLINE
5
228
100
AcDbEntity
8
0
100
AcDbPolyline
90
8
70
1
43
0.0
10
288.94490000195799
20
-29.245087021589377
42
0.41421356237315227
10
288.44490000195799
20
-28.745087021589271
10
275.44490000195799
20
-28.745087021589256
42
0.41421356237315227
10
274.94490000195799
20
-29.24508702158937
10
274.94490000195799
20
-42.24508702158937
42
0.41421356237309503
10
275.44490000195799
20
-42.745087021589384
10
288.44490000195799
20
-42.74508702158937
42
0.41421356237309503
10
288.94490000195799
20
-42.24508702158937
0
LWPOLYLINE
5
229
100
AcDbEntity
8
0
100
AcDbPolyline
90
8
70
1
43
0.0
10
299.25740000195799
20
-28.745087021589274
42
0.41421356237315227
10
298.75740000195799
20
-29.245087021589381
10
298.75740000195805
20
-42.24508702158937
42
0.41421356237309503
10
299.25740000195799
20
-42.745087021589271
10
312.25740000195799
20
-42.745087021589391
42
0.41421356237309503
10
312.75740000195799
20
-42.245087021589384
10
312.75740000195799
20
-29.245087021589384
42
0.41421356237315227
10
312.25740000195799
20
-28.745087021589288
0
LWPOLYLINE
5
230
100
AcDbEntity
8
0
100
AcDbPolyline
90
8
70
1
43
0.0
10
268.73240000195801
20
-42.245087021589363
42
0.41421356237309503
10
269.23240000195801
20
-42.745087021589363
10
270.23240000195801
20
-42.745087021589363
42
0.41421356237309503
10
270.73240000195801
20
-42.245087021589363
10
270.73240000195801
20
-29.24508702158937
42
0.41421356237315227
10
270.23240000195801
20
-28.745087021589274
10
269.23240000195801
20
-28.745087021589267
42
0.41421356237315227
10
268.73240000195801
20
-29.24508702158937
0
LWPOLYLINE
5
231
100
AcDbEntity
8
0
100
AcDbPolyline
90
8
70
1
43
0.0
10
293.15740000195802
20
-42.24508702158937
42
0.41421356237309503
10
293.65740000195802
20
-42.745087021589391
10
294.65740000195802
20
-42.74508702158937
42
0.41421356237309503
10
295.15740000195808
20
-42.24508702158937
10
295.15740000195808
20
-29.245087021589381
42
0.41421356237315227
10
294.65740000195802
20
-28.745087021589285
10
293.65740000195802
20
-28.745087021589274
42
0.41421356237315227
10
293.15740000195802
20
-29.245087021589381
0
LWPOLYLINE
5
232
100
AcDbEntity
8
0
100
AcDbPolyline
90
8
70
1
43
0.0
10
84.457400001958135
20
-61.795087021589353
10
81.113650001958007
20
-61.795087021589296
42
-0.41421356237315748
10
80.613650001957922
20
-61.295087021589325
10
80.61365000195795
20
-48.295087021589318
42
-0.41421356237309503
10
81.113650001958007
20
-47.795087021589275
10
84.457400001958135
20
-47.79508702158941
42
-0.41421356237309503
10
85.207400001958092
20
-48.545087021589367
10
85.207400001958135
20
-61.045087021589367
42
-0.41421356237309503
0
LWPOLYLINE
5
233
100
AcDbEntity
8
0
100
AcDbPolyline
90
8
70
1
43
0.0
10
288.93240000195806
20
-66.84508702158935
10
292.27615000195794
20
-66.845087021589379
42
-0.4142135623730378
10
292.776150001958
20
-67.345087021589279
10
292.776150001958
20
-80.345087021589379
42
-0.41421356237309503
10
292.27615000195794
20
-80.845087021589393
10
288.93240000195806
20
-80.845087021589208
42
-0.41421356237309503
10
288.18240000195817
20
-80.095087021589322
10
288.18240000195806
20
-67.59508702158935
42
-0.41421356237309503
0
LWPOLYLINE
5
234
100
AcDbEntity
8
0
100
AcDbPolyline
90
8
70
1
43
0.0
10
37.319900001958132
20
-67.34508702158935
10
37.319900001958132
20
-80.345087021589336
42
-0.41421356237309503
10
36.819900001958118
20
-80.84508702158935
10
35.819900001958125
20
-80.845087021589308
42
-0.41421356237309503
10
35.319900001958153
20
-80.345087021589336
10
35.319900001958118
20
-67.34508702158935
42
-0.41421356237309503
10
35.819900001958125
20
-66.84508702158935
10
36.819900001958118
20
-66.84508702158935
42
-0.41421356237309503
0
LWPOLYLINE
5
235
100
AcDbEntity
8
0
100
AcDbPolyline
90
8
70
1
43
0.0
10
208.76990000195801
20
-104.94508702158936
42
0.41421356237309503
10
208.26990000195798
20
-105.44508702158936
10
208.26990000195798
20
-118.44508702158934
42
0.41421356237309503
10
208.76990000195801
20
-118.94508702158936
10
221.76990000195798
20
-118.94508702158937
42
0.41421356237309503
10
222.26990000195798
20
-118.44508702158934
10
222.26990000195798
20
-105.44508702158936
42
0.41421356237309503
10
221.76990000195798
20
-104.94508702158936
0
LWPOLYLINE
5
236
100
AcDbEntity
8
0
100
AcDbPolyline
90
8
70
1
43
0.0
10
170.16990000195796
20
-118.44508702158933
42
0.41421356237309503
10
170.66990000195798
20
-118.94508702158933
10
183.66990000195798
20
-118.94508702158936
42
0.41421356237309503
10
184.16990000195798
20
-118.44508702158933
10
184.16990000195801
20
-105.44508702158934
42
0.41421356237309503
10
183.66990000195798
20
-104.94508702158933
10
170.66990000195798
20
-104.94508702158933
42
0.41421356237309503
10
170.16990000195796
20
-105.44508702158934
0
LWPOLYLINE
5
237
100
AcDbEntity
8
0
100
AcDbPolyline
90
8
70
1
43
0.0
10
312.25740000195793
20
-99.895087021589376
10
299.25740000195799
20
-99.895087021589376
42
-0.41421356237309503
10
298.75740000195799
20
-99.395087021589376
10
298.75740000195799
20
-86.395087021589362
42
-0.41421356237309503
10
299.25740000195799
20
-85.895087021589362
10
312.25740000195793
20
-85.895087021589362
42
-0.41421356237309503
10
312.75740000195799
20
-86.395087021589362
10
312.75740000195799
20
-99.395087021589376
42
-0.41421356237309503
0
LWPOLYLINE
5
238
100
AcDbEntity
8
0
100
AcDbPolyline
90
8
70
1
43
0.0
10
132.06990000195799
20
-118.44508702158932
10
132.06990000195793
20
-105.44508702158933
42
-0.41421356237309503
10
132.56990000195799
20
-104.94508702158927
10
145.56990000195799
20
-104.94508702158927
42
-0.41421356237309503
10
146.06990000195805
20
-105.44508702158934
10
146.06990000195808
20
-118.44508702158933
42
-0.41421356237309503
10
145.56990000195799
20
-118.94508702158942
10
132.56990000195799
20
-118.94508702158932
42
-0.41421356237309503
0
LWPOLYLINE
5
239
100
AcDbEntity
8
0
100
AcDbPolyline
90
8
70
1
43
0.0
10
296.87615000195802
20
-66.845087021589308
42
0.41421356237309503
10
296.37615000195802
20
-67.345087021589279
10
296.37615000195802
20
-80.345087021589379
42
0.41421356237309503
10
296.87615000195802
20
-80.845087021589364
10
314.63865000195801
20
-80.845087021589393
42
0.41421356237309503
10
315.13865000195801
20
-80.345087021589379
10
315.13865000195801
20
-67.345087021589293
42
0.4142135623730378
10
314.63865000195801
20
-66.845087021589393
0
LWPOLYLINE
5
240
100
AcDbEntity
8
0
100
AcDbPolyline
90
8
70
1
43
0.0
10
107.46990000195797
20
-118.94508702158932
10
94.469900001957981
20
-118.94508702158927
42
-0.41421356237309503
10
93.969900001958024
20
-118.44508702158932
10
93.969900001957939
20
-105.44508702158933
42
-0.41421356237309503
10
94.469900001957981
20
-104.94508702158927
10
107.46990000195797
20
-104.94508702158927
42
-0.41421356237309503
10
107.96990000195802
20
-105.44508702158933
10
107.96990000195798
20
-118.44508702158932
42
-0.41421356237309503
0
LWPOLYLINE
5
241
100
AcDbEntity
8
0
100
AcDbPolyline
90
8
70
1
43
0.0
10
317.51990000195798
20
-105.44508702158939
10
317.51990000195804
20
-118.44508702158939
42
-0.41421356237309503
10
317.01990000195804
20
-118.94508702158939
10
304.01990000195804
20
-118.94508702158937
42
-0.41421356237309503
10
303.51990000195804
20
-118.44508702158936
10
303.51990000195804
20
-105.44508702158937
42
-0.41421356237309503
10
304.01990000195804
20
-104.94508702158937
10
317.01990000195804
20
-104.94508702158942
42
-0.41421356237309503
0
LWPOLYLINE
5
242
100
AcDbEntity
8
0
100
AcDbPolyline
90
8
70
1
43
0.0
10
42.082400001957993
20
-85.895087021589305
10
55.082400001957986
20
-85.895087021589248
42
-0.41421356237314705
10
55.582400001957943
20
-86.395087021589291
10
55.582400001957957
20
-99.395087021589305
42
-0.41421356237309503
10
55.082400001957986
20
-99.895087021589276
10
42.082400001957993
20
-99.895087021589362
42
-0.41421356237321472
10
41.58240000195795
20
-99.395087021589305
10
41.582400001958
20
-86.395087021589291
42
-0.41421356237309503
0
LWPOLYLINE
5
243
100
AcDbEntity
8
0
100
AcDbPolyline
90
8
70
1
43
0.0
10
260.369900001958
20
-105.44508702158937
42
0.41421356237309503
10
259.869900001958
20
-104.94508702158937
10
246.869900001958
20
-104.94508702158936
42
0.41421356237309503
10
246.36990000195797
20
-105.44508702158936
10
246.369900001958
20
-118.44508702158934
42
0.41421356237309503
10
246.869900001958
20
-118.94508702158936
10
259.869900001958
20
-118.94508702158936
42
0.41421356237309503
10
260.36990000195794
20
-118.44508702158936
0
LWPOLYLINE
5
244
100
AcDbEntity
8
0
100
AcDbPolyline
90
8
70
1
43
0.0
10
284.46990000195802
20
-118.44508702158936
42
0.41421356237309503
10
284.96990000195802
20
-118.94508702158937
10
297.96990000195802
20
-118.94508702158937
42
0.41421356237309503
10
298.46990000195797
20
-118.44508702158936
10
298.46990000195802
20
-105.44508702158937
42
0.41421356237309503
10
297.96990000195802
20
-104.94508702158937
10
284.96990000195802
20
-104.94508702158937
42
0.41421356237309503
10
284.46990000195802
20
-105.44508702158937
0
LWPOLYLINE
5
245
100
AcDbEntity
8
0
100
AcDbPolyline
90
8
70
1
43
0.0
10
74.919900001957984
20
-118.4450870215893
10
74.919900001957842
20
-105.4450870215893
42
-0.41421356237309503
10
75.419900001957885
20
-104.94508702158926
10
88.419900001957984
20
-104.94508702158927
42
-0.41421356237303258
10
88.919900001957913
20
-105.44508702158933
10
88.919900001957956
20
-118.44508702158932
42
-0.41421356237303258
10
88.419900001957984
20
-118.94508702158939
10
75.419900001957885
20
-118.9450870215893
42
-0.4142135623730378
0
LWPOLYLINE
5
246
100
AcDbEntity
8
0
100
AcDbPolyline
90
8
70
1
43
0.0
10
265.41990000195801
20
-118.44508702158936
42
0.41421356237309503
10
265.91990000195801
20
-118.94508702158936
10
278.91990000195801
20
-118.94508702158936
42
0.41421356237309503
10
279.41990000195796
20
-118.44508702158936
10
279.41990000195801
20
-105.44508702158937
42
0.41421356237309503
10
278.91990000195801
20
-104.94508702158937
10
265.91990000195801
20
-104.94508702158937
42
0.41421356237309503
10
265.41990000195801
20
-105.44508702158937
0
LWPOLYLINE
5
247
100
AcDbEntity
8
0
100
AcDbPolyline
90
8
70
1
43
0.0
10
151.11990000195789
20
-118.44508702158933
42
0.41421356237309503
10
151.61990000195797
20
-118.94508702158942
10
164.61990000195797
20
-118.94508702158936
42
0.41421356237309503
10
165.11990000195797
20
-118.44508702158933
10
165.119900001958
20
-105.44508702158934
42
0.41421356237309503
10
164.61990000195797
20
-104.94508702158933
10
151.61990000195797
20
-104.94508702158926
42
0.41421356237309503
10
151.11990000195797
20
-105.44508702158934
0
LWPOLYLINE
5
248
100
AcDbEntity
8
0
100
AcDbPolyline
90
8
70
1
43
0.0
10
61.182400001958001
20
-86.395087021589291
42
0.41421356237309503
10
60.682400001957994
20
-85.895087021589291
10
59.682400001957994
20
-85.895087021589305
42
0.41421356237297535
10
59.182400001957987
20
-86.395087021589291
10
59.182400001957916
20
-99.395087021589305
42
0.41421356237315748
10
59.682400001957994
20
-99.895087021589305
10
60.682400001957994
20
-99.895087021589291
42
0.41421356237309503
10
61.182400001957987
20
-99.395087021589305
0
LWPOLYLINE
5
249
100
AcDbEntity
8
0
100
AcDbPolyline
90
8
70
1
43
0.0
10
37.982400001957984
20
-86.395087021589291
42
0.41421356237309503
10
37.482400001957991
20
-85.895087021589305
10
36.482400001957991
20
-85.895087021589248
42
0.41421356237309503
10
35.982400001957885
20
-86.395087021589291
10
35.982400001957934
20
-99.395087021589305
42
0.41421356237321727
10
36.482400001957984
20
-99.895087021589305
10
37.482400001957984
20
-99.895087021589276
42
0.41421356237297274
10
37.982400001957984
20
-99.395087021589305
0
LWPOLYLINE
5
250
100
AcDbEntity
8
0
100
AcDbPolyline
90
8
70
1
43
0.0
10
127.01990000195805
20
-105.44508702158933
42
0.41421356237309503
10
126.51990000195798
20
-104.94508702158926
10
113.51990000195798
20
-104.94508702158925
42
0.41421356237309503
10
113.01990000195798
20
-105.44508702158933
10
113.01990000195789
20
-118.44508702158932
42
0.41421356237309503
10
113.51990000195798
20
-118.94508702158932
10
126.51990000195798
20
-118.94508702158936
42
0.41421356237309503
10
127.01990000195798
20
-118.44508702158932
0
LWPOLYLINE
5
251
100
AcDbEntity
8
0
100
AcDbPolyline
90
8
70
1
43
0.0
10
293.65740000195797
20
-85.895087021589376
10
294.65740000195802
20
-85.895087021589362
42
-0.41421356237309503
10
295.15740000195802
20
-86.395087021589362
10
295.15740000195797
20
-99.395087021589376
42
-0.41421356237309503
10
294.65740000195802
20
-99.895087021589362
10
293.65740000195797
20
-99.895087021589347
42
-0.41421356237309503
10
293.15740000195802
20
-99.395087021589376
10
293.15740000195802
20
-86.395087021589362
42
-0.41421356237309503
0
LWPOLYLINE
5
252
100
AcDbEntity
8
0
100
AcDbPolyline
90
8
70
1
43
0.0
10
240.81990000195799
20
-118.94508702158933
42
0.41421356237309503
10
241.31990000195799
20
-118.44508702158934
10
241.31990000195799
20
-105.44508702158936
42
0.41421356237309503
10
240.81990000195799
20
-104.94508702158936
10
227.81990000195802
20
-104.94508702158936
42
0.41421356237309503
10
227.31990000195799
20
-105.44508702158936
10
227.31990000195799
20
-118.44508702158934
42
0.41421356237309503
10
227.81990000195802
20
-118.94508702158936
0
LWPOLYLINE
5
253
100
AcDbEntity
8
0
100
AcDbPolyline
90
8
70
1
43
0.0
10
203.219900001958
20
-105.44508702158936
42
0.41421356237309503
10
202.719900001958
20
-104.94508702158937
10
189.719900001958
20
-104.94508702158933
42
0.41421356237309503
10
189.21990000195797
20
-105.44508702158934
10
189.21990000195797
20
-118.44508702158933
42
0.41421356237309503
10
189.719900001958
20
-118.94508702158933
10
202.719900001958
20
-118.94508702158933
42
0.41421356237309503
10
203.219900001958
20
-118.44508702158934
0
LWPOLYLINE
5
254
100
AcDbEntity
8
0
100
AcDbPolyline
90
8
70
1
43
0.0
10
318.35740000195801
20
-86.395087021589376
42
0.41421356237309503
10
317.85740000195796
20
-85.895087021589376
10
316.85740000195801
20
-85.895087021589376
42
0.41421356237309503
10
316.35740000195801
20
-86.395087021589376
10
316.35740000195801
20
-99.39508702158939
42
0.41421356237309503
10
316.85740000195801
20
-99.895087021589404
10
317.85740000195796
20
-99.895087021589376
42
0.41421356237309503
10
318.35740000195801
20
-99.39508702158939
0
LWPOLYLINE
5
255
100
AcDbEntity
8
0
100
AcDbPolyline
90
8
70
1
43
0.0
10
108.80740000195802
20
-29.24508702158932
10
108.80740000195806
20
-42.24508702158932
42
-0.41421356237309503
10
108.30740000195802
20
-42.745087021589363
10
107.307400001958
20
-42.745087021589327
42
-0.41421356237315748
10
106.8074000019581
20
-42.24508702158932
10
106.80740000195809
20
-29.245087021589317
42
-0.41421356237314966
10
107.30740000195802
20
-28.745087021589288
10
108.30740000195803
20
-28.745087021589235
42
-0.41421356237315227
0
LWPOLYLINE
5
256
100
AcDbEntity
8
0
100
AcDbPolyline
90
8
70
1
43
0.0
10
37.982400001958005
20
-29.245087021589299
10
37.982400001957942
20
-42.245087021589285
42
-0.41421356237297796
10
37.482400001958005
20
-42.745087021589242
10
36.482400001957998
20
-42.745087021589271
42
-0.41421356237315488
10
35.98240000195792
20
-42.245087021589292
10
35.982400001957963
20
-29.245087021589299
42
-0.41421356237309503
10
36.482400001958005
20
-28.745087021589256
10
37.482400001958005
20
-28.745087021589303
42
-0.41421356237309503
0
LWPOLYLINE
5
257
100
AcDbEntity
8
0
100
AcDbPolyline
90
8
70
1
43
0.0
10
55.582400001958014
20
-29.245087021589306
10
55.58240000195805
20
-42.245087021589299
42
-0.41421356237309503
10
55.082400001958007
20
-42.745087021589342
10
42.082400001958007
20
-42.745087021589271
42
-0.41421356237315227
10
41.582400001957929
20
-42.245087021589292
10
41.582400001958064
20
-29.245087021589299
42
-0.4142135623730378
10
42.082400001958007
20
-28.745087021589256
10
55.082400001958007
20
-28.7450870215892
42
-0.41421356237315227
0
LWPOLYLINE
5
258
100
AcDbEntity
8
0
100
AcDbPolyline
90
8
70
1
43
0.0
10
61.182400001958008
20
-29.245087021589306
10
61.182400001957959
20
-42.245087021589299
42
-0.41421356237298057
10
60.682400001958008
20
-42.745087021589249
10
59.682400001958015
20
-42.745087021589299
42
-0.41421356237309503
10
59.182400001958015
20
-42.245087021589299
10
59.182400001957937
20
-29.245087021589306
42
-0.41421356237315748
10
59.682400001958015
20
-28.745087021589335
10
60.682400001958008
20
-28.745087021589207
42
-0.41421356237315227
0
LWPOLYLINE
5
259
100
AcDbEntity
8
0
100
AcDbPolyline
90
8
70
1
43
0.0
10
79.394900001958007
20
-29.245087021589313
10
79.394900001957978
20
-42.245087021589313
42
-0.41421356237298057
10
78.894900001958007
20
-42.745087021589292
10
65.894900001957907
20
-42.74508702158932
42
-0.41421356237315748
10
65.394900001957993
20
-42.245087021589299
10
65.394900001957964
20
-29.24508702158931
42
-0.41421356237315227
10
65.894900001957907
20
-28.745087021589274
10
78.894900001957907
20
-28.745087021589313
42
-0.41421356237315227
0
LWPOLYLINE
5
260
100
AcDbEntity
8
0
100
AcDbPolyline
90
8
70
1
43
0.0
10
85.607400001958013
20
-29.245087021589313
10
85.607400001957942
20
-42.245087021589313
42
-0.41421356237309503
10
85.107400001957899
20
-42.745087021589356
10
84.107400001957998
20
-42.745087021589299
42
-0.41421356237309503
10
83.607400001958013
20
-42.245087021589313
10
83.607400001958041
20
-29.245087021589313
42
-0.41421356237309503
10
84.107400001958013
20
-28.745087021589342
10
85.107400001957927
20
-28.745087021589217
42
-0.41421356237309503
0
LWPOLYLINE
5
261
100
AcDbEntity
8
0
100
AcDbPolyline
90
8
70
1
43
0.0
10
103.20740000195801
20
-29.245087021589317
10
103.20740000195804
20
-42.24508702158932
42
-0.41421356237309503
10
102.70740000195799
20
-42.745087021589363
10
89.707400001958007
20
-42.74508702158937
42
-0.41421356237321988
10
89.207400001957936
20
-42.245087021589313
10
89.207400001958007
20
-29.245087021589313
42
-0.41421356237309503
10
89.707400001958021
20
-28.745087021589306
10
102.70740000195801
20
-28.745087021589214
42
-0.41421356237315227
0
LWPOLYLINE
5
262
100
AcDbEntity
8
0
100
AcDbPolyline
90
8
70
1
43
0.0
10
164.16990000195807
20
-38.745087021589349
10
129.39490000195798
20
-38.745087021589327
42
-0.41421356237309243
10
128.39490000195792
20
-37.74508702158932
10
128.39490000195792
20
-35.745087021589327
42
-0.41421356237310675
10
129.39490000195795
20
-34.745087021589342
10
164.16990000195807
20
-34.745087021589327
42
-0.41421356237307161
10
165.16990000195807
20
-35.745087021589327
10
165.16990000195807
20
-37.745087021589335
42
-0.41421356237307422
0
LWPOLYLINE
5
263
100
AcDbEntity
8
0
100
AcDbPolyline
90
8
70
1
43
0.0
10
224.94490000195808
20
-38.745087021589356
42
0.41421356237309631
10
225.94490000195805
20
-37.745087021589356
10
225.94490000195805
20
-35.745087021589356
42
0.41421356237309631
10
224.94490000195808
20
-34.745087021589356
10
190.16990000195804
20
-34.745087021589335
42
0.41421356237306384
10
189.16990000195807
20
-35.745087021589335
10
189.16990000195807
20
-37.745087021589335
42
0.41421356237309892
10
190.16990000195804
20
-38.745087021589327
0
LWPOLYLINE
5
264
100
AcDbEntity
8
0
100
AcDbPolyline
90
42
70
1
43
0.0
10
52.300652413697442
20
-44.795108466481473
42
0.41421390695340338
10
52.800652413697094
20
-45.295109054716782
10
68.176649413705405
20
-45.295109054716789
42
0.41421321779814113
10
68.67664941370505
20
-44.795109642943103
10
68.676650001957981
20
-44.295087021589367
42
-0.41421356237309503
10
69.176650001957967
20
-43.795087021589374
10
75.826650001958612
20
-43.795087021589367
42
-0.41421356237310542
10
76.326650001958626
20
-44.295087021589396
10
76.326650001959152
20
-47.136626405081557
42
0.33887278949157307
10
76.696233335292135
20
-47.619318328626427
42
-0.33887278949150407
10
77.213650001958257
20
-48.29508702158936
10
77.213650001958101
20
-61.447488231739555
42
-0.36926351768879917
10
76.622316668625103
20
-62.139002190785547
42
0.36926351768919125
10
76.326650001958129
20
-62.484759170308664
10
76.326650001957944
20
-63.295087021589381
42
-0.4142135623730846
10
75.826650001957972
20
-63.795087021589332
10
69.176650001957938
20
-63.79508702158936
42
-0.41421356237309503
10
68.676650001957938
20
-63.295087021589353
10
68.676650001957967
20
-62.295087021589339
42
0.41421356237309503
10
68.176650001957967
20
-61.795087021589332
10
53.988650001958135
20
-61.795087021589367
42
-0.41421356237309503
10
53.488650001958135
20
-61.29508702158936
10
53.488650001958135
20
-60.595087021589464
42
0.41421356237309503
10
53.188650001958123
20
-60.29508702158946
10
52.600650001958122
20
-60.295087021589453
42
0.41421356237309503
10
52.300650001958132
20
-60.595087021589464
10
52.300650001957941
20
-63.295087021589353
42
-0.41421356237309503
10
51.800650001957933
20
-63.79508702158936
10
45.150650001958155
20
-63.795087021589481
42
-0.4142135623730846
10
44.650650001958148
20
-63.295087021589495
10
44.650650001958148
20
-62.295087021589389
42
0.4142135623730846
10
44.150650001958105
20
-61.795087021589367
10
37.319900001957997
20
-61.795087021589275
42
-0.41421356237315227
10
36.819900001957926
20
-61.295087021589303
10
36.819900001957933
20
-48.295087021589296
42
-0.41421356237315227
10
37.319900001957997
20
-47.795087021589325
10
44.150650001957928
20
-47.795087021589381
42
0.41421356237309503
10
44.65065000195797
20
-47.295087021589339
10
44.650650001957963
20
-44.295087021589204
42
-0.41421356237309503
10
45.15065000195797
20
-43.795087021589197
10
51.800649895271874
20
-43.795087021598995
42
-0.41421538222885418
10
52.300653001958004
20
-44.295087021589367
0
ENDSEC
0
SECTION
2
OBJECTS
0
DICTIONARY
5
C
100
AcDbDictionary
3
ACAD_GROUP
350
D
3
ACAD_MLINESTYLE
350
17
0
DICTIONARY
5
D
100
AcDbDictionary
0
DICTIONARY
5
1A
330
C
100
AcDbDictionary
0
DICTIONARY
5
17
100
AcDbDictionary
0
ENDSEC
0
EOF
