0
SECTION
2
HEADER
9
$INSUNITS
70
4
9
$ACADVER
1
AC1014
9
$HANDSEED
5
FFFF
0
ENDSEC
0
SECTION
2
TABLES
0
TABLE
2
VPORT
5
8
100
AcDbSymbolTable
0
ENDTAB
0
TABLE
2
LTYPE
5
5
100
AcDbSymbolTable
0
LTYPE
5
14
100
AcDbSymbolTableRecord
100
AcDbLinetypeTableRecord
2
BYBLOCK
70
0
0
LTYPE
5
15
100
AcDbSymbolTableRecord
100
AcDbLinetypeTableRecord
2
BYLAYER
70
0
0
ENDTAB
0
TABLE
2
LAYER
5
2
100
AcDbSymbolTable
70
2
0
LAYER
5
50
100
AcDbSymbolTableRecord
100
AcDbLayerTableRecord
2
0
70
0
6
CONTINUOUS
0
ENDTAB
0
TABLE
2
STYLE
5
3
100
AcDbSymbolTable
70
1
0
STYLE
5
11
100
AcDbSymbolTableRecord
100
AcDbTextStyleTableRecord
2
STANDARD
70
0
0
ENDTAB
0
TABLE
2
VIEW
5
6
100
AcDbSymbolTable
70
0
0
ENDTAB
0
TABLE
2
UCS
5
7
100
AcDbSymbolTable
70
0
0
ENDTAB
0
TABLE
2
APPID
5
9
100
AcDbSymbolTable
70
2
0
APPID
5
12
100
AcDbSymbolTableRecord
100
AcDbRegAppTableRecord
2
ACAD
70
0
0
ENDTAB
0
TABLE
2
DIMSTYLE
5
A
100
AcDbSymbolTable
70
1
0
ENDTAB
0
TABLE
2
BLOCK_RECORD
5
1
100
AcDbSymbolTable
70
1
0
BLOCK_RECORD
5
1F
100
AcDbSymbolTableRecord
100
AcDbBlockTableRecord
2
*MODEL_SPACE
0
BLOCK_RECORD
5
1B
100
AcDbSymbolTableRecord
100
AcDbBlockTableRecord
2
*PAPER_SPACE
0
ENDTAB
0
ENDSEC
0
SECTION
2
BLOCKS
0
BLOCK
5
20
100
AcDbEntity
100
AcDbBlockBegin
2
*MODEL_SPACE
0
ENDBLK
5
21
100
AcDbEntity
100
AcDbBlockEnd
0
BLOCK
5
1C
100
AcDbEntity
100
AcDbBlockBegin
2
*PAPER_SPACE
0
ENDBLK
5
1D
100
AcDbEntity
100
AcDbBlockEnd
0
ENDSEC
0
SECTION
2
ENTITIES
0
LWPOLYLINE
5
100
100
AcDbEntity
8
0
100
AcDbPolyline
90
42
70
1
43
0.0
10
45.15065000195797
20
-43.795087021589197
42
0.41421356237309503
10
44.650650001957963
20
-44.295087021589204
10
44.65065000195797
20
-47.295087021589339
42
-0.41421356237309503
10
44.150650001957928
20
-47.795087021589381
10
37.319900001957997
20
-47.795087021589325
42
0.41421356237315227
10
36.819900001957897
20
-48.295087021589296
10
36.819900001957926
20
-61.295087021589303
42
0.41421356237315227
10
37.319900001957997
20
-61.795087021589303
10
44.150650001958105
20
-61.795087021589367
42
-0.4142135623730846
10
44.650650001958148
20
-62.295087021589389
10
44.650650001958148
20
-63.295087021589495
42
0.4142135623730846
10
45.150650001958155
20
-63.795087021589481
10
51.800650001957933
20
-63.79508702158936
42
0.41421356237309503
10
52.300650001957941
20
-63.295087021589353
10
52.300650001958111
20
-60.595087021589464
42
-0.41421356237309503
10
52.600650001958122
20
-60.295087021589453
10
53.188650001958123
20
-60.295087021589453
42
-0.41421356237309503
10
53.488650001958135
20
-60.595087021589464
10
53.488650001958135
20
-61.29508702158936
42
0.41421356237309503
10
53.988650001958135
20
-61.795087021589367
10
68.176650001957967
20
-61.795087021589332
42
-0.41421356237309503
10
68.676650001957967
20
-62.295087021589339
10
68.676650001957938
20
-63.295087021589353
42
0.41421356237309503
10
69.176650001957938
20
-63.79508702158936
10
75.826650001957972
20
-63.795087021589332
42
0.4142135623730846
10
76.326650001957944
20
-63.295087021589381
10
76.326650001958086
20
-62.484759170308664
42
-0.36926351768919125
10
76.622316668625103
20
-62.139002190785547
42
0.36926351768879917
10
77.213650001958101
20
-61.447488231739555
10
77.213650001958257
20
-48.29508702158936
42
0.33887278949150407
10
76.696233335292135
20
-47.619318328626427
42
-0.33887278949157307
10
76.326650001959152
20
-47.136626405081557
10
76.326650001958626
20
-44.295087021589396
42
0.41421356237310542
10
75.826650001958612
20
-43.795087021589367
10
69.176650001957967
20
-43.795087021589374
42
0.41421356237309503
10
68.676650001957981
20
-44.295087021589367
10
68.67664941370505
20
-44.795109642943117
42
-0.41421321779814113
10
68.176649413705405
20
-45.295109054716804
10
52.800652413697115
20
-45.295109054716818
42
-0.41421390695340338
10
52.300652413697442
20
-44.795108466481494
10
52.300653001958004
20
-44.295087021589367
42
0.41421538222885418
10
51.800649895271874
20
-43.795087021598995
0
LWPOLYLINE
5
101
100
AcDbEntity
8
0
100
AcDbPolyline
90
8
70
1
43
0.0
10
75.119900001958129
20
-66.845089310408042
10
76.119900001958115
20
-66.845089310408042
42
-0.41421356237309503
10
76.619900001958115
20
-67.345089310408042
10
76.619900001958143
20
-80.345087021589364
42
-0.41421356237309503
10
76.119900001958143
20
-80.845087021589364
10
75.119900001958143
20
-80.845087021589364
42
-0.41421356237309503
10
74.619900001958129
20
-80.345087021589364
10
74.619900001958129
20
-67.345089310408042
42
-0.41421356237309503
0
LWPOLYLINE
5
102
100
AcDbEntity
8
0
100
AcDbPolyline
90
8
70
1
43
0.0
10
318.35740000195801
20
-86.395087021589376
42
0.41421356237309503
10
317.85740000195796
20
-85.895087021589376
10
316.85740000195801
20
-85.895087021589376
42
0.41421356237309503
10
316.35740000195801
20
-86.395087021589376
10
316.35740000195801
20
-99.39508702158939
42
0.41421356237309503
10
316.85740000195801
20
-99.895087021589404
10
317.85740000195796
20
-99.895087021589376
42
0.41421356237309503
10
318.35740000195801
20
-99.39508702158939
0
LWPOLYLINE
5
103
100
AcDbEntity
8
0
100
AcDbPolyline
90
8
70
1
43
0.0
10
203.219900001958
20
-105.44508702158936
42
0.41421356237309503
10
202.719900001958
20
-104.94508702158937
10
189.719900001958
20
-104.94508702158933
42
0.41421356237309503
10
189.21990000195797
20
-105.44508702158934
10
189.21990000195797
20
-118.44508702158933
42
0.41421356237309503
10
189.719900001958
20
-118.94508702158933
10
202.719900001958
20
-118.94508702158933
42
0.41421356237309503
10
203.219900001958
20
-118.44508702158934
0
LWPOLYLINE
5
104
100
AcDbEntity
8
0
100
AcDbPolyline
90
8
70
1
43
0.0
10
240.81990000195799
20
-118.94508702158933
42
0.41421356237309503
10
241.31990000195799
20
-118.44508702158934
10
241.31990000195799
20
-105.44508702158936
42
0.41421356237309503
10
240.81990000195799
20
-104.94508702158936
10
227.81990000195802
20
-104.94508702158936
42
0.41421356237309503
10
227.31990000195799
20
-105.44508702158936
10
227.31990000195799
20
-118.44508702158934
42
0.41421356237309503
10
227.81990000195802
20
-118.94508702158936
0
LWPOLYLINE
5
105
100
AcDbEntity
8
0
100
AcDbPolyline
90
8
70
1
43
0.0
10
293.65740000195797
20
-85.895087021589376
10
294.65740000195802
20
-85.895087021589362
42
-0.41421356237309503
10
295.15740000195802
20
-86.395087021589362
10
295.15740000195797
20
-99.395087021589376
42
-0.41421356237309503
10
294.65740000195802
20
-99.895087021589362
10
293.65740000195797
20
-99.895087021589347
42
-0.41421356237309503
10
293.15740000195802
20
-99.395087021589376
10
293.15740000195802
20
-86.395087021589362
42
-0.41421356237309503
0
LWPOLYLINE
5
106
100
AcDbEntity
8
0
100
AcDbPolyline
90
8
70
1
43
0.0
10
127.01990000195805
20
-105.44508702158933
42
0.41421356237309503
10
126.51990000195798
20
-104.94508702158926
10
113.51990000195798
20
-104.94508702158925
42
0.41421356237309503
10
113.01990000195798
20
-105.44508702158933
10
113.01990000195789
20
-118.44508702158932
42
0.41421356237309503
10
113.51990000195798
20
-118.94508702158932
10
126.51990000195798
20
-118.94508702158936
42
0.41421356237309503
10
127.01990000195798
20
-118.44508702158932
0
LWPOLYLINE
5
107
100
AcDbEntity
8
0
100
AcDbPolyline
90
8
70
1
43
0.0
10
37.982400001957984
20
-86.395087021589291
42
0.41421356237309503
10
37.482400001957991
20
-85.895087021589305
10
36.482400001957991
20
-85.895087021589248
42
0.41421356237309503
10
35.982400001957885
20
-86.395087021589291
10
35.982400001957934
20
-99.395087021589305
42
0.41421356237321727
10
36.482400001957984
20
-99.895087021589305
10
37.482400001957984
20
-99.895087021589276
42
0.41421356237297274
10
37.982400001957984
20
-99.395087021589305
0
LWPOLYLINE
5
108
100
AcDbEntity
8
0
100
AcDbPolyline
90
8
70
1
43
0.0
10
61.182400001958001
20
-86.395087021589291
42
0.41421356237309503
10
60.682400001957994
20
-85.895087021589291
10
59.682400001957994
20
-85.895087021589305
42
0.41421356237297535
10
59.182400001957987
20
-86.395087021589291
10
59.182400001957916
20
-99.395087021589305
42
0.41421356237315748
10
59.682400001957994
20
-99.895087021589305
10
60.682400001957994
20
-99.895087021589291
42
0.41421356237309503
10
61.182400001957987
20
-99.395087021589305
0
LWPOLYLINE
5
109
100
AcDbEntity
8
0
100
AcDbPolyline
90
8
70
1
43
0.0
10
151.11990000195789
20
-118.44508702158933
42
0.41421356237309503
10
151.61990000195797
20
-118.94508702158942
10
164.61990000195797
20
-118.94508702158936
42
0.41421356237309503
10
165.11990000195797
20
-118.44508702158933
10
165.119900001958
20
-105.44508702158934
42
0.41421356237309503
10
164.61990000195797
20
-104.94508702158933
10
151.61990000195797
20
-104.94508702158926
42
0.41421356237309503
10
151.11990000195797
20
-105.44508702158934
0
LWPOLYLINE
5
110
100
AcDbEntity
8
0
100
AcDbPolyline
90
8
70
1
43
0.0
10
265.41990000195801
20
-118.44508702158936
42
0.41421356237309503
10
265.91990000195801
20
-118.94508702158936
10
278.91990000195801
20
-118.94508702158936
42
0.41421356237309503
10
279.41990000195796
20
-118.44508702158936
10
279.41990000195801
20
-105.44508702158937
42
0.41421356237309503
10
278.91990000195801
20
-104.94508702158937
10
265.91990000195801
20
-104.94508702158937
42
0.41421356237309503
10
265.41990000195801
20
-105.44508702158937
0
LWPOLYLINE
5
111
100
AcDbEntity
8
0
100
AcDbPolyline
90
8
70
1
43
0.0
10
74.919900001957984
20
-118.4450870215893
10
74.919900001957842
20
-105.4450870215893
42
-0.41421356237309503
10
75.419900001957885
20
-104.94508702158926
10
88.419900001957984
20
-104.94508702158927
42
-0.41421356237303258
10
88.919900001957913
20
-105.44508702158933
10
88.919900001957956
20
-118.44508702158932
42
-0.41421356237303258
10
88.419900001957984
20
-118.94508702158939
10
75.419900001957885
20
-118.9450870215893
42
-0.4142135623730378
0
LWPOLYLINE
5
112
100
AcDbEntity
8
0
100
AcDbPolyline
90
8
70
1
43
0.0
10
284.46990000195802
20
-118.44508702158936
42
0.41421356237309503
10
284.96990000195802
20
-118.94508702158937
10
297.96990000195802
20
-118.94508702158937
42
0.41421356237309503
10
298.46990000195797
20
-118.44508702158936
10
298.46990000195802
20
-105.44508702158937
42
0.41421356237309503
10
297.96990000195802
20
-104.94508702158937
10
284.96990000195802
20
-104.94508702158937
42
0.41421356237309503
10
284.46990000195802
20
-105.44508702158937
0
LWPOLYLINE
5
113
100
AcDbEntity
8
0
100
AcDbPolyline
90
8
70
1
43
0.0
10
260.369900001958
20
-105.44508702158937
42
0.41421356237309503
10
259.869900001958
20
-104.94508702158937
10
246.869900001958
20
-104.94508702158936
42
0.41421356237309503
10
246.36990000195797
20
-105.44508702158936
10
246.369900001958
20
-118.44508702158934
42
0.41421356237309503
10
246.869900001958
20
-118.94508702158936
10
259.869900001958
20
-118.94508702158936
42
0.41421356237309503
10
260.36990000195794
20
-118.44508702158936
0
LWPOLYLINE
5
114
100
AcDbEntity
8
0
100
AcDbPolyline
90
8
70
1
43
0.0
10
42.082400001957993
20
-85.895087021589305
10
55.082400001957986
20
-85.895087021589248
42
-0.41421356237314705
10
55.582400001957943
20
-86.395087021589291
10
55.582400001957957
20
-99.395087021589305
42
-0.41421356237309503
10
55.082400001957986
20
-99.895087021589276
10
42.082400001957993
20
-99.895087021589362
42
-0.41421356237321472
10
41.58240000195795
20
-99.395087021589305
10
41.582400001958
20
-86.395087021589291
42
-0.41421356237309503
0
LWPOLYLINE
5
115
100
AcDbEntity
8
0
100
AcDbPolyline
90
8
70
1
43
0.0
10
317.51990000195798
20
-105.44508702158939
10
317.51990000195804
20
-118.44508702158939
42
-0.41421356237309503
10
317.01990000195804
20
-118.94508702158939
10
304.01990000195804
20
-118.94508702158937
42
-0.41421356237309503
10
303.51990000195804
20
-118.44508702158936
10
303.51990000195804
20
-105.44508702158937
42
-0.41421356237309503
10
304.01990000195804
20
-104.94508702158937
10
317.01990000195804
20
-104.94508702158942
42
-0.41421356237309503
0
LWPOLYLINE
5
116
100
AcDbEntity
8
0
100
AcDbPolyline
90
8
70
1
43
0.0
10
107.46990000195797
20
-118.94508702158932
10
94.469900001957981
20
-118.94508702158927
42
-0.41421356237309503
10
93.969900001958024
20
-118.44508702158932
10
93.969900001957939
20
-105.44508702158933
42
-0.41421356237309503
10
94.469900001957981
20
-104.94508702158927
10
107.46990000195797
20
-104.94508702158927
42
-0.41421356237309503
10
107.96990000195802
20
-105.44508702158933
10
107.96990000195798
20
-118.44508702158932
42
-0.41421356237309503
0
LWPOLYLINE
5
117
100
AcDbEntity
8
0
100
AcDbPolyline
90
8
70
1
43
0.0
10
296.87615000195802
20
-66.845087021589308
42
0.41421356237309503
10
296.37615000195802
20
-67.345087021589279
10
296.37615000195802
20
-80.345087021589379
42
0.41421356237309503
10
296.87615000195802
20
-80.845087021589364
10
314.63865000195801
20
-80.845087021589393
42
0.41421356237309503
10
315.13865000195801
20
-80.345087021589379
10
315.13865000195801
20
-67.345087021589293
42
0.4142135623730378
10
314.63865000195801
20
-66.845087021589393
0
LWPOLYLINE
5
118
100
AcDbEntity
8
0
100
AcDbPolyline
90
8
70
1
43
0.0
10
132.06990000195799
20
-118.44508702158932
10
132.06990000195793
20
-105.44508702158933
42
-0.41421356237309503
10
132.56990000195799
20
-104.94508702158927
10
145.56990000195799
20
-104.94508702158927
42
-0.41421356237309503
10
146.06990000195805
20
-105.44508702158934
10
146.06990000195808
20
-118.44508702158933
42
-0.41421356237309503
10
145.56990000195799
20
-118.94508702158942
10
132.56990000195799
20
-118.94508702158932
42
-0.41421356237309503
0
LWPOLYLINE
5
119
100
AcDbEntity
8
0
100
AcDbPolyline
90
8
70
1
43
0.0
10
312.25740000195793
20
-99.895087021589376
10
299.25740000195799
20
-99.895087021589376
42
-0.41421356237309503
10
298.75740000195799
20
-99.395087021589376
10
298.75740000195799
20
-86.395087021589362
42
-0.41421356237309503
10
299.25740000195799
20
-85.895087021589362
10
312.25740000195793
20
-85.895087021589362
42
-0.41421356237309503
10
312.75740000195799
20
-86.395087021589362
10
312.75740000195799
20
-99.395087021589376
42
-0.41421356237309503
0
LWPOLYLINE
5
120
100
AcDbEntity
8
0
100
AcDbPolyline
90
8
70
1
43
0.0
10
170.16990000195796
20
-118.44508702158933
42
0.41421356237309503
10
170.66990000195798
20
-118.94508702158933
10
183.66990000195798
20
-118.94508702158936
42
0.41421356237309503
10
184.16990000195798
20
-118.44508702158933
10
184.16990000195801
20
-105.44508702158934
42
0.41421356237309503
10
183.66990000195798
20
-104.94508702158933
10
170.66990000195798
20
-104.94508702158933
42
0.41421356237309503
10
170.16990000195796
20
-105.44508702158934
0
LWPOLYLINE
5
121
100
AcDbEntity
8
0
100
AcDbPolyline
90
8
70
1
43
0.0
10
208.76990000195801
20
-104.94508702158936
42
0.41421356237309503
10
208.26990000195798
20
-105.44508702158936
10
208.26990000195798
20
-118.44508702158934
42
0.41421356237309503
10
208.76990000195801
20
-118.94508702158936
10
221.76990000195798
20
-118.94508702158937
42
0.41421356237309503
10
222.26990000195798
20
-118.44508702158934
10
222.26990000195798
20
-105.44508702158936
42
0.41421356237309503
10
221.76990000195798
20
-104.94508702158936
0
LWPOLYLINE
5
122
100
AcDbEntity
8
0
100
AcDbPolyline
90
8
70
1
43
0.0
10
37.319900001958132
20
-67.34508702158935
10
37.319900001958132
20
-80.345087021589336
42
-0.41421356237309503
10
36.819900001958118
20
-80.84508702158935
10
35.819900001958125
20
-80.845087021589308
42
-0.41421356237309503
10
35.319900001958153
20
-80.345087021589336
10
35.319900001958118
20
-67.34508702158935
42
-0.41421356237309503
10
35.819900001958125
20
-66.84508702158935
10
36.819900001958118
20
-66.84508702158935
42
-0.41421356237309503
0
LWPOLYLINE
5
123
100
AcDbEntity
8
0
100
AcDbPolyline
90
8
70
1
43
0.0
10
288.93240000195806
20
-66.84508702158935
10
292.27615000195794
20
-66.845087021589379
42
-0.4142135623730378
10
292.776150001958
20
-67.345087021589279
10
292.776150001958
20
-80.345087021589379
42
-0.41421356237309503
10
292.27615000195794
20
-80.845087021589393
10
288.93240000195806
20
-80.845087021589208
42
-0.41421356237309503
10
288.18240000195817
20
-80.095087021589322
10
288.18240000195806
20
-67.59508702158935
42
-0.41421356237309503
0
LWPOLYLINE
5
124
100
AcDbEntity
8
0
100
AcDbPolyline
90
8
70
1
43
0.0
10
84.457400001958135
20
-61.795087021589353
10
81.113650001958007
20
-61.795087021589296
42
-0.41421356237315748
10
80.613650001957922
20
-61.295087021589325
10
80.61365000195795
20
-48.295087021589318
42
-0.41421356237309503
10
81.113650001958007
20
-47.795087021589275
10
84.457400001958135
20
-47.79508702158941
42
-0.41421356237309503
10
85.207400001958092
20
-48.545087021589367
10
85.207400001958135
20
-61.045087021589367
42
-0.41421356237309503
0
LWPOLYLINE
5
125
100
AcDbEntity
8
0
100
AcDbPolyline
90
8
70
1
43
0.0
10
293.15740000195802
20
-42.24508702158937
42
0.41421356237309503
10
293.65740000195802
20
-42.745087021589391
10
294.65740000195802
20
-42.74508702158937
42
0.41421356237309503
10
295.15740000195808
20
-42.24508702158937
10
295.15740000195808
20
-29.245087021589381
42
0.41421356237315227
10
294.65740000195802
20
-28.745087021589285
10
293.65740000195802
20
-28.745087021589274
42
0.41421356237315227
10
293.15740000195802
20
-29.245087021589381
0
LWPOLYLINE
5
126
100
AcDbEntity
8
0
100
AcDbPolyline
90
8
70
1
43
0.0
10
268.73240000195801
20
-42.245087021589363
42
0.41421356237309503
10
269.23240000195801
20
-42.745087021589363
10
270.23240000195801
20
-42.745087021589363
42
0.41421356237309503
10
270.73240000195801
20
-42.245087021589363
10
270.73240000195801
20
-29.24508702158937
42
0.41421356237315227
10
270.23240000195801
20
-28.745087021589274
10
269.23240000195801
20
-28.745087021589267
42
0.41421356237315227
10
268.73240000195801
20
-29.24508702158937
0
LWPOLYLINE
5
127
100
AcDbEntity
8
0
100
AcDbPolyline
90
8
70
1
43
0.0
10
299.25740000195799
20
-28.745087021589274
42
0.41421356237315227
10
298.75740000195799
20
-29.245087021589381
10
298.75740000195805
20
-42.24508702158937
42
0.41421356237309503
10
299.25740000195799
20
-42.745087021589271
10
312.25740000195799
20
-42.745087021589391
42
0.41421356237309503
10
312.75740000195799
20
-42.245087021589384
10
312.75740000195799
20
-29.245087021589384
42
0.41421356237315227
10
312.25740000195799
20
-28.745087021589288
0
LWPOLYLINE
5
128
100
AcDbEntity
8
0
100
AcDbPolyline
90
8
70
1
43
0.0
10
317.85740000195801
20
-42.745087021589384
42
0.41421356237309503
10
318.35740000195801
20
-42.245087021589384
10
318.35740000195801
20
-29.245087021589384
42
0.41421356237315227
10
317.85740000195801
20
-28.745087021589288
10
316.85740000195801
20
-28.745087021589278
42
0.41421356237315227
10
316.35740000195801
20
-29.245087021589384
10
316.35740000195801
20
-42.245087021589384
42
0.41421356237309503
10
316.85740000195801
20
-42.745087021589391
0
LWPOLYLINE
5
129
100
AcDbEntity
8
0
100
AcDbPolyline
90
8
70
1
43
0.0
10
251.63240000195802
20
-28.745087021589271
10
264.63240000195799
20
-28.745087021589327
42
-0.41421356237309503
10
265.13240000195805
20
-29.24508702158937
10
265.13240000195799
20
-42.245087021589363
42
-0.41421356237309503
10
264.63240000195799
20
-42.745087021589384
10
251.63240000195802
20
-42.74508702158937
42
-0.41421356237309503
10
251.13240000195802
20
-42.245087021589363
10
251.13240000195802
20
-29.245087021589367
42
-0.41421356237315227
0
LWPOLYLINE
5
130
100
AcDbEntity
8
0
100
AcDbPolyline
90
8
70
1
43
0.0
10
246.03240000195802
20
-28.745087021589267
10
247.03240000195805
20
-28.74508702158932
42
-0.41421356237309503
10
247.53240000195808
20
-29.245087021589363
10
247.53240000195805
20
-42.245087021589363
42
-0.41421356237309503
10
247.03240000195805
20
-42.745087021589363
10
246.03240000195802
20
-42.745087021589335
42
-0.41421356237309503
10
245.53240000195808
20
-42.245087021589363
10
245.53240000195791
20
-29.245087021589363
42
-0.41421356237309503
0
LWPOLYLINE
5
131
100
AcDbEntity
8
0
100
AcDbPolyline
90
8
70
1
43
0.0
10
117.78240000195802
20
-80.345087021589322
42
0.41421356237309503
10
118.282400001958
20
-80.845087021589279
10
131.28240000195802
20
-80.845087021589308
42
0.41421356237303258
10
131.78240000195802
20
-80.345087021589322
10
131.78240000195805
20
-67.345087021589336
42
0.41421356237309503
10
131.282400001958
20
-66.845087021589336
10
118.28240000195798
20
-66.84508702158935
42
0.41421356237302737
10
117.782400001958
20
-67.345087021589322
0
LWPOLYLINE
5
132
100
AcDbEntity
8
0
100
AcDbPolyline
90
8
70
1
43
0.0
10
241.60740000195798
20
-61.295087021589367
42
0.41421356237309503
10
242.10740000195798
20
-61.795087021589374
10
255.10740000195798
20
-61.795087021589339
42
0.41421356237309503
10
255.60740000195801
20
-61.295087021589374
10
255.60740000195801
20
-48.295087021589367
42
0.41421356237309503
10
255.10740000195801
20
-47.795087021589367
10
242.10740000195801
20
-47.79508702158936
42
0.41421356237309503
10
241.60740000195801
20
-48.29508702158936
0
LWPOLYLINE
5
133
100
AcDbEntity
8
0
100
AcDbPolyline
90
8
70
1
43
0.0
10
260.65740000195802
20
-61.295087021589374
42
0.41421356237309503
10
261.15740000195797
20
-61.795087021589353
10
274.15740000195802
20
-61.795087021589381
42
0.41421356237309503
10
274.65740000195802
20
-61.295087021589381
10
274.65740000195802
20
-48.295087021589381
42
0.41421356237309503
10
274.15740000195802
20
-47.795087021589381
10
261.15740000195802
20
-47.795087021589389
42
0.41421356237309503
10
260.65740000195802
20
-48.295087021589367
0
LWPOLYLINE
5
134
100
AcDbEntity
8
0
100
AcDbPolyline
90
8
70
1
43
0.0
10
236.05740000195797
20
-61.795087021589367
10
223.05740000195797
20
-61.795087021589339
42
-0.41421356237309503
10
222.557400001958
20
-61.295087021589367
10
222.557400001958
20
-48.29508702158936
42
-0.41421356237309503
10
223.057400001958
20
-47.795087021589367
10
236.057400001958
20
-47.795087021589289
42
-0.41421356237315227
10
236.557400001958
20
-48.29508702158936
10
236.557400001958
20
-61.295087021589367
42
-0.41421356237309503
0
LWPOLYLINE
5
135
100
AcDbEntity
8
0
100
AcDbPolyline
90
8
70
1
43
0.0
10
193.69490000195799
20
-86.395087021589333
10
193.69490000195796
20
-99.395087021589333
42
-0.41421356237309503
10
193.19490000195799
20
-99.895087021589319
10
180.19490000195799
20
-99.895087021589347
42
-0.41421356237309503
10
179.69490000195799
20
-99.395087021589333
10
179.69490000195799
20
-86.395087021589333
42
-0.41421356237309503
10
180.19490000195799
20
-85.895087021589347
10
193.19490000195799
20
-85.895087021589319
42
-0.41421356237309503
0
LWPOLYLINE
5
136
100
AcDbEntity
8
0
100
AcDbPolyline
90
8
70
1
43
0.0
10
108.25740000195808
20
-61.295087021589332
42
0.41421356237315227
10
108.75740000195802
20
-61.795087021589367
10
121.757400001958
20
-61.795087021589374
42
0.41421356237309503
10
122.257400001958
20
-61.295087021589332
10
122.25740000195798
20
-48.295087021589325
42
0.41421356237309503
10
121.757400001958
20
-47.795087021589325
10
108.75740000195802
20
-47.795087021589282
42
0.41421356237309503
10
108.257400001958
20
-48.295087021589325
0
LWPOLYLINE
5
137
100
AcDbEntity
8
0
100
AcDbPolyline
90
8
70
1
43
0.0
10
103.49490000195799
20
-99.395087021589319
10
103.49490000195792
20
-86.395087021589319
42
-0.41421356237303258
10
103.994900001958
20
-85.895087021589319
10
116.994900001958
20
-85.895087021589305
42
-0.41421356237309503
10
117.494900001958
20
-86.395087021589319
10
117.49490000195803
20
-99.395087021589319
42
-0.41421356237309503
10
116.99490000195797
20
-99.895087021589362
10
103.99490000195799
20
-99.895087021589319
42
-0.41421356237309503
0
LWPOLYLINE
5
138
100
AcDbEntity
8
0
100
AcDbPolyline
90
8
70
1
43
0.0
10
165.407400001958
20
-61.295087021589353
10
165.40740000195802
20
-48.295087021589339
42
-0.41421356237309503
10
165.90740000195805
20
-47.795087021589318
10
178.90740000195802
20
-47.795087021589339
42
-0.41421356237309503
10
179.40740000195802
20
-48.295087021589339
10
179.40740000195797
20
-61.295087021589353
42
-0.41421356237309503
10
178.90740000195797
20
-61.795087021589339
10
165.90740000195802
20
-61.795087021589353
42
-0.41421356237309503
0
LWPOLYLINE
5
139
100
AcDbEntity
8
0
100
AcDbPolyline
90
8
70
1
43
0.0
10
141.30740000195797
20
-48.295087021589332
10
141.307400001958
20
-61.295087021589339
42
-0.41421356237309503
10
140.807400001958
20
-61.795087021589346
10
127.807400001958
20
-61.795087021589339
42
-0.41421356237309503
10
127.307400001958
20
-61.295087021589332
10
127.30740000195793
20
-48.295087021589325
42
-0.41421356237303258
10
127.807400001958
20
-47.795087021589353
10
140.807400001958
20
-47.795087021589246
42
-0.41421356237315227
0
LWPOLYLINE
5
140
100
AcDbEntity
8
0
100
AcDbPolyline
90
8
70
1
43
0.0
10
169.38240000195799
20
-80.845087021589336
10
156.38240000195799
20
-80.845087021589279
42
-0.41421356237309503
10
155.88240000195805
20
-80.345087021589322
10
155.88240000195799
20
-67.345087021589336
42
-0.41421356237309503
10
156.38240000195799
20
-66.845087021589336
10
169.38240000195799
20
-66.845087021589336
42
-0.41421356237309503
10
169.88240000195799
20
-67.34508702158935
10
169.88240000195793
20
-80.345087021589336
42
-0.41421356237309503
0
LWPOLYLINE
5
141
100
AcDbEntity
8
0
100
AcDbPolyline
90
8
70
1
43
0.0
10
203.50740000195799
20
-61.29508702158936
42
0.41421356237309503
10
204.00740000195799
20
-61.795087021589374
10
217.00740000195799
20
-61.795087021589353
42
0.41421356237309503
10
217.50740000195802
20
-61.295087021589367
10
217.50740000195805
20
-48.29508702158936
42
0.41421356237309503
10
217.00740000195805
20
-47.795087021589268
10
204.00740000195805
20
-47.795087021589325
42
0.41421356237309503
10
203.50740000195802
20
-48.295087021589353
0
LWPOLYLINE
5
142
100
AcDbEntity
8
0
100
AcDbPolyline
90
8
70
1
43
0.0
10
146.85740000195801
20
-47.79508702158936
42
0.41421356237303258
10
146.35740000195793
20
-48.295087021589332
10
146.35740000195793
20
-61.295087021589339
42
0.4142135623730378
10
146.85740000195801
20
-61.795087021589339
10
159.85740000195801
20
-61.795087021589325
42
0.41421356237309503
10
160.35740000195798
20
-61.295087021589353
10
160.35740000195807
20
-48.295087021589339
42
0.41421356237309503
10
159.85740000195801
20
-47.795087021589246
0
LWPOLYLINE
5
143
100
AcDbEntity
8
0
100
AcDbPolyline
90
8
70
1
43
0.0
10
150.33240000195801
20
-80.845087021589336
10
137.33240000195798
20
-80.845087021589293
42
-0.41421356237309503
10
136.83240000195804
20
-80.345087021589322
10
136.83240000195804
20
-67.345087021589336
42
-0.41421356237309503
10
137.33240000195798
20
-66.845087021589364
10
150.33240000195801
20
-66.845087021589322
42
-0.41421356237315227
10
150.83240000195792
20
-67.345087021589336
10
150.83240000195809
20
-80.345087021589322
42
-0.41421356237304302
0
LWPOLYLINE
5
144
100
AcDbEntity
8
0
100
AcDbPolyline
90
8
70
1
43
0.0
10
213.03240000195802
20
-80.345087021589336
42
0.41421356237309503
10
213.532400001958
20
-80.845087021589336
10
226.53240000195802
20
-80.845087021589279
42
0.41421356237303258
10
227.03240000195802
20
-80.345087021589364
10
227.03240000195797
20
-67.345087021589364
42
0.41421356237315227
10
226.53240000195802
20
-66.845087021589364
10
213.532400001958
20
-66.84508702158935
42
0.41421356237309503
10
213.032400001958
20
-67.34508702158935
0
LWPOLYLINE
5
145
100
AcDbEntity
8
0
100
AcDbPolyline
90
8
70
1
43
0.0
10
175.43240000195797
20
-66.845087021589336
42
0.41421356237309503
10
174.93240000195797
20
-67.34508702158935
10
174.93240000195794
20
-80.345087021589336
42
0.41421356237309503
10
175.43240000195797
20
-80.845087021589336
10
188.432400001958
20
-80.84508702158935
42
0.41421356237309503
10
188.93240000195794
20
-80.345087021589336
10
188.932400001958
20
-67.34508702158935
42
0.41421356237309503
10
188.432400001958
20
-66.84508702158935
0
LWPOLYLINE
5
146
100
AcDbEntity
8
0
100
AcDbPolyline
90
8
70
1
43
0.0
10
270.68240000195794
20
-66.845087021589379
10
283.68240000195794
20
-66.845087021589379
42
-0.4142135623730378
10
284.182400001958
20
-67.345087021589279
10
284.18240000195794
20
-80.345087021589379
42
-0.41421356237309503
10
283.68240000195794
20
-80.84508702158935
10
270.68240000195794
20
-80.845087021589364
42
-0.41421356237309503
10
270.18240000195794
20
-80.345087021589364
10
270.18240000195794
20
-67.345087021589364
42
-0.41421356237309503
0
LWPOLYLINE
5
147
100
AcDbEntity
8
0
100
AcDbPolyline
90
8
70
1
43
0.0
10
142.09490000195802
20
-85.895087021589319
10
155.09490000195802
20
-85.895087021589305
42
-0.41421356237309503
10
155.59490000195805
20
-86.395087021589333
10
155.59490000195802
20
-99.395087021589333
42
-0.41421356237309503
10
155.094900001958
20
-99.895087021589347
10
142.094900001958
20
-99.895087021589362
42
-0.41421356237315748
10
141.59490000195805
20
-99.395087021589319
10
141.59490000195802
20
-86.395087021589319
42
-0.41421356237309503
0
LWPOLYLINE
5
148
100
AcDbEntity
8
0
100
AcDbPolyline
90
8
70
1
43
0.0
10
198.45740000195804
20
-48.295087021589353
42
0.41421356237309503
10
197.95740000195804
20
-47.795087021589339
10
184.95740000195804
20
-47.795087021589318
42
0.41421356237309503
10
184.45740000195801
20
-48.295087021589339
10
184.45740000195798
20
-61.295087021589353
42
0.41421356237309503
10
184.95740000195798
20
-61.795087021589346
10
197.95740000195798
20
-61.795087021589346
42
0.41421356237309503
10
198.45740000195801
20
-61.29508702158936
0
LWPOLYLINE
5
149
100
AcDbEntity
8
0
100
AcDbPolyline
90
8
70
1
43
0.0
10
194.48240000195798
20
-66.84508702158935
42
0.41421356237309503
10
193.98240000195798
20
-67.34508702158935
10
193.98240000195796
20
-80.345087021589336
42
0.41421356237309503
10
194.48240000195798
20
-80.84508702158935
10
207.48240000195801
20
-80.84508702158935
42
0.41421356237309503
10
207.98240000195801
20
-80.345087021589336
10
207.98240000195801
20
-67.34508702158935
42
0.41421356237309503
10
207.48240000195801
20
-66.84508702158935
0
LWPOLYLINE
5
150
100
AcDbEntity
8
0
100
AcDbPolyline
90
8
70
1
43
0.0
10
237.34490000195802
20
-85.895087021589347
42
0.41421356237309503
10
236.84490000195802
20
-86.395087021589347
10
236.84490000195797
20
-99.395087021589347
42
0.41421356237309503
10
237.34490000195802
20
-99.895087021589362
10
250.344900001958
20
-99.895087021589362
42
0.41421356237309503
10
250.844900001958
20
-99.395087021589347
10
250.844900001958
20
-86.395087021589347
42
0.41421356237309503
10
250.344900001958
20
-85.895087021589362
0
LWPOLYLINE
5
151
100
AcDbEntity
8
0
100
AcDbPolyline
90
8
70
1
43
0.0
10
84.94490000195799
20
-85.895087021589248
42
0.41421356237309503
10
84.444900001957961
20
-86.395087021589291
10
84.444900001957961
20
-99.395087021589305
42
0.4142135623732095
10
84.944900001957976
20
-99.895087021589305
10
97.94490000195799
20
-99.895087021589291
42
0.41421356237298057
10
98.44490000195799
20
-99.395087021589319
10
98.44490000195799
20
-86.395087021589319
42
0.41421356237309503
10
97.944900001958004
20
-85.895087021589319
0
LWPOLYLINE
5
152
100
AcDbEntity
8
0
100
AcDbPolyline
90
8
70
1
43
0.0
10
79.394900001957978
20
-86.395087021589291
10
79.394900001957922
20
-99.395087021589305
42
-0.41421356237309503
10
78.894900001957893
20
-99.895087021589347
10
65.894900001957893
20
-99.895087021589319
42
-0.41421356237315748
10
65.394900001957978
20
-99.395087021589305
10
65.394900001957922
20
-86.395087021589291
42
-0.41421356237309503
10
65.894900001957893
20
-85.895087021589319
10
78.894900001957893
20
-85.895087021589305
42
-0.41421356237315227
0
LWPOLYLINE
5
153
100
AcDbEntity
8
0
100
AcDbPolyline
90
8
70
1
43
0.0
10
231.79490000195798
20
-86.395087021589347
10
231.79490000195796
20
-99.395087021589347
42
-0.41421356237309503
10
231.29490000195798
20
-99.895087021589319
10
218.29490000195801
20
-99.895087021589362
42
-0.41421356237309503
10
217.79490000195801
20
-99.395087021589347
10
217.79490000195801
20
-86.395087021589347
42
-0.41421356237309503
10
218.29490000195801
20
-85.895087021589362
10
231.29490000195798
20
-85.895087021589347
42
-0.41421356237309503
0
LWPOLYLINE
5
154
100
AcDbEntity
8
0
100
AcDbPolyline
90
8
70
1
43
0.0
10
89.207400001957893
20
-61.295087021589325
10
89.20740000195795
20
-48.295087021589318
42
-0.41421356237309503
10
89.707400001958007
20
-47.795087021589275
10
102.70740000195799
20
-47.795087021589353
42
-0.41421356237309503
10
103.20740000195796
20
-48.295087021589325
10
103.20740000195804
20
-61.295087021589332
42
-0.41421356237309503
10
102.70740000195799
20
-61.795087021589374
10
89.707400001958007
20
-61.795087021589332
42
-0.41421356237315748
0
LWPOLYLINE
5
155
100
AcDbEntity
8
0
100
AcDbPolyline
90
8
70
1
43
0.0
10
288.94490000195799
20
-86.395087021589362
10
288.94490000195793
20
-99.395087021589376
42
-0.41421356237309503
10
288.44490000195799
20
-99.895087021589362
10
275.44490000195799
20
-99.895087021589376
42
-0.41421356237309503
10
274.94490000195799
20
-99.395087021589376
10
274.94490000195799
20
-86.395087021589362
42
-0.41421356237309503
10
275.44490000195799
20
-85.895087021589362
10
288.44490000195799
20
-85.895087021589362
42
-0.41421356237309503
0
LWPOLYLINE
5
156
100
AcDbEntity
8
0
100
AcDbPolyline
90
8
70
1
43
0.0
10
265.13240000195799
20
-67.345087021589364
10
265.13240000195799
20
-80.345087021589364
42
-0.41421356237309503
10
264.63240000195799
20
-80.845087021589393
10
251.63240000195799
20
-80.845087021589364
42
-0.41421356237309503
10
251.13240000195799
20
-80.345087021589364
10
251.13240000195802
20
-67.345087021589364
42
-0.41421356237315227
10
251.63240000195799
20
-66.845087021589293
10
264.63240000195799
20
-66.845087021589364
42
-0.41421356237309503
0
LWPOLYLINE
5
157
100
AcDbEntity
8
0
100
AcDbPolyline
90
8
70
1
43
0.0
10
174.64490000195798
20
-86.395087021589333
10
174.64490000195795
20
-99.395087021589333
42
-0.41421356237309503
10
174.14490000195798
20
-99.895087021589319
10
161.14490000195798
20
-99.895087021589347
42
-0.41421356237309503
10
160.64490000195798
20
-99.395087021589333
10
160.64490000195798
20
-86.395087021589333
42
-0.41421356237309503
10
161.14490000195798
20
-85.895087021589347
10
174.14490000195798
20
-85.895087021589319
42
-0.41421356237309503
0
LWPOLYLINE
5
158
100
AcDbEntity
8
0
100
AcDbPolyline
90
8
70
1
43
0.0
10
212.74490000195797
20
-86.395087021589347
42
0.41421356237309503
10
212.24490000195797
20
-85.895087021589347
10
199.244900001958
20
-85.895087021589319
42
0.41421356237309503
10
198.744900001958
20
-86.395087021589333
10
198.74490000195794
20
-99.395087021589333
42
0.41421356237309503
10
199.244900001958
20
-99.895087021589347
10
212.24490000195797
20
-99.895087021589347
42
0.41421356237309503
10
212.74490000195797
20
-99.395087021589347
0
LWPOLYLINE
5
159
100
AcDbEntity
8
0
100
AcDbPolyline
90
8
70
1
43
0.0
10
136.54490000195801
20
-86.395087021589319
10
136.54490000195796
20
-99.395087021589319
42
-0.41421356237309503
10
136.04490000195798
20
-99.895087021589291
10
123.04490000195798
20
-99.895087021589319
42
-0.41421356237309503
10
122.54490000195798
20
-99.395087021589319
10
122.54490000195793
20
-86.395087021589319
42
-0.41421356237309503
10
123.044900001958
20
-85.895087021589234
10
136.04490000195801
20
-85.895087021589234
42
-0.41421356237314705
0
LWPOLYLINE
5
160
100
AcDbEntity
8
0
100
AcDbPolyline
90
8
70
1
43
0.0
10
232.58240000195798
20
-66.845087021589379
42
0.41421356237309503
10
232.08240000195801
20
-67.345087021589364
10
232.08240000195792
20
-80.345087021589364
42
0.41421356237303258
10
232.58240000195798
20
-80.84508702158935
10
245.58240000195798
20
-80.845087021589364
42
0.41421356237309503
10
246.08240000195798
20
-80.345087021589364
10
246.08240000195795
20
-67.345087021589364
42
0.41421356237315227
10
245.58240000195798
20
-66.845087021589379
0
LWPOLYLINE
5
161
100
AcDbEntity
8
0
100
AcDbPolyline
90
8
70
1
43
0.0
10
269.89490000195804
20
-86.395087021589362
10
269.89490000195804
20
-99.395087021589376
42
-0.41421356237309503
10
269.39490000195798
20
-99.895087021589362
10
256.39490000195804
20
-99.895087021589319
42
-0.41421356237309503
10
255.89490000195806
20
-99.395087021589347
10
255.89490000195804
20
-86.395087021589347
42
-0.41421356237312623
10
256.39490000195798
20
-85.895087021589262
10
269.39490000195798
20
-85.895087021589362
42
-0.41421356237309503
0
LWPOLYLINE
5
162
100
AcDbEntity
8
0
100
AcDbPolyline
90
8
70
1
43
0.0
10
93.182400001958001
20
-80.845087021589308
10
80.182400001958001
20
-80.845087021589279
42
-0.41421356237314705
10
79.68240000195793
20
-80.345087021589308
10
79.682400001957916
20
-67.345087021589322
42
-0.41421356237302737
10
80.182400001957973
20
-66.845087021589336
10
93.182400001958001
20
-66.84508702158935
42
-0.41421356237309503
10
93.682400001957973
20
-67.345087021589322
10
93.682400001957902
20
-80.345087021589308
42
-0.41421356237303258
0
LWPOLYLINE
5
163
100
AcDbEntity
8
0
100
AcDbPolyline
90
8
70
1
43
0.0
10
112.232400001958
20
-80.845087021589308
10
99.232400001958013
20
-80.845087021589279
42
-0.41421356237309503
10
98.732400001958041
20
-80.345087021589308
10
98.732400001957927
20
-67.345087021589322
42
-0.41421356237302737
10
99.232400001957984
20
-66.845087021589336
10
112.232400001958
20
-66.84508702158935
42
-0.41421356237309503
10
112.73240000195797
20
-67.345087021589322
10
112.73240000195798
20
-80.345087021589322
42
-0.41421356237309503
0
LWPOLYLINE
5
164
100
AcDbEntity
8
0
100
AcDbPolyline
90
8
70
1
43
0.0
10
288.44490000195799
20
-42.745087021589384
10
275.44490000195799
20
-42.745087021589384
42
-0.41421356237309503
10
274.94490000195799
20
-42.24508702158937
10
274.94490000195799
20
-29.24508702158937
42
-0.41421356237315227
10
275.44490000195799
20
-28.745087021589256
10
288.44490000195799
20
-28.745087021589271
42
-0.41421356237315227
10
288.94490000195799
20
-29.245087021589377
10
288.94490000195799
20
-42.24508702158937
42
-0.41421356237309503
0
LWPOLYLINE
5
165
100
AcDbEntity
8
0
100
AcDbPolyline
90
32
70
1
43
0.0
10
290.42565241372222
20
-44.795087433353721
42
0.41421390695339816
10
290.92565241372193
20
-45.295088021589052
10
305.55165000195791
20
-45.295088021589066
42
0.41421356237309503
10
306.05165000195791
20
-44.795088021589052
10
306.05165000195797
20
-44.295087021589424
42
-0.41421356237309503
10
306.55165000195791
20
-43.795087021589453
10
313.80165000195802
20
-43.795087021589474
42
-0.41421356237309503
10
314.30165000195802
20
-44.295087021589481
10
314.30165000195797
20
-64.295087021589467
42
-0.41421356237309503
10
313.80165000195791
20
-64.795087021589509
10
307.30165000195791
20
-64.795087021589467
42
-0.41421356237309503
10
306.80165000195791
20
-64.295087021589467
10
306.80165000195797
20
-60.59508702158945
42
0.41421356237309503
10
306.50165000195796
20
-60.295087021589438
10
305.91365000195799
20
-60.295087021589438
42
0.41421356237309503
10
305.61365000195798
20
-60.59508702158945
10
305.61365000195798
20
-61.295087021589403
42
-0.41421356237309503
10
305.11365000195804
20
-61.795087021589374
10
292.11365000195804
20
-61.795087021589367
42
-0.41421356237309503
10
291.61365000195804
20
-61.295087021589396
10
291.61365000195781
20
-60.595087021589443
42
0.41421356237309503
10
291.31365000195791
20
-60.295087021589502
10
290.72565000195806
20
-60.295087021589431
42
0.41421356237312978
10
290.42565000195799
20
-60.595087021589407
10
290.42565000195788
20
-64.295087021589424
42
-0.41421356237309503
10
289.92565000195793
20
-64.795087021589396
10
283.42565000195793
20
-64.795087021589367
42
-0.41421356237309503
10
282.92565000195793
20
-64.295087021589367
10
282.92565000195799
20
-44.295087021589438
42
-0.41421356237309503
10
283.42565000195799
20
-43.795087021589467
10
289.92565300195798
20
-43.795087021589431
42
-0.41421356237309503
10
290.42565300195798
20
-44.295087021589438
0
LWPOLYLINE
5
166
100
AcDbEntity
8
0
100
AcDbPolyline
90
32
70
1
43
0.0
10
63.914149001957981
20
-83.845071988462024
42
0.41421356237309503
10
63.414149001957973
20
-83.345071988462024
10
48.038150296081248
20
-83.345071988462038
42
0.41421339008490782
10
47.538150296081348
20
-83.845071694347681
10
47.538150001957966
20
-84.345087021589379
42
-0.41421356237309503
10
47.038150001957924
20
-84.845087021589421
10
40.388150001957968
20
-84.845087021589393
42
-0.41421356237309503
10
39.888150001957818
20
-84.345087021589237
10
39.888150001957932
20
-65.345087021589364
42
-0.41421356237309503
10
40.388150001957939
20
-64.84508702158935
10
47.038150001957931
20
-64.845087021589364
42
-0.41421356237309503
10
47.538150001957938
20
-65.345087021589364
10
47.53814800195795
20
-68.045094021589378
42
0.41421356237309503
10
47.838148001957961
20
-68.345094021589389
10
48.426148001957941
20
-68.345094021589347
42
0.41421356237309503
10
48.726148001957917
20
-68.045094021589378
10
48.726150001957919
20
-67.345087021589308
42
-0.4142135623730378
10
49.22615000195799
20
-66.845087021589336
10
62.226150001958004
20
-66.845087021589279
42
-0.41421356237315227
10
62.726150001957926
20
-67.345087021589308
10
62.726148001957938
20
-68.045094021589378
42
0.41421356237309503
10
63.026148001957949
20
-68.345094021589389
10
63.614148001957965
20
-68.345094021589347
42
0.41421356237309503
10
63.91414800195794
20
-68.045094021589378
10
63.914150001957964
20
-65.345087021589364
42
-0.41421356237309503
10
64.414150001957978
20
-64.845087021589364
10
71.064150001957969
20
-64.845087021589364
42
-0.41421356237310025
10
71.564150001957969
20
-65.345087021589379
10
71.564150001957856
20
-84.345087021589279
42
-0.41421356237309503
10
71.064150001957842
20
-84.845087021589279
10
64.414149001957952
20
-84.845087021589279
42
-0.41421356237309503
10
63.914149001957981
20
-84.345087021589308
0
LWPOLYLINE
5
167
100
AcDbEntity
8
0
100
AcDbPolyline
90
40
70
1
43
0.0
10
37.506900001957924
20
-120.9450870215894
10
37.506900001957916
20
-119.4450870215893
42
0.41421356237309503
10
37.006900001957909
20
-118.9450870215893
10
36.969900001957924
20
-118.9450870215893
42
-0.41421356237309503
10
36.469900001957917
20
-118.4450870215893
10
36.469900001957917
20
-105.44508702158933
42
-0.41421356237309503
10
36.969900001957924
20
-104.94508702158932
10
37.006900001957909
20
-104.94508702158932
42
0.41421356237309503
10
37.506900001957916
20
-104.4450870215893
10
37.506900001957916
20
-101.44508702158974
42
-0.41421356237309503
10
38.006900001957959
20
-100.9450870215897
10
44.656900001957979
20
-100.94508702158963
42
-0.41421356237309503
10
45.156900001957951
20
-101.4450870215896
10
45.156900001957929
20
-101.9451090515893
42
0.41421356237309503
10
45.656900001957965
20
-102.44510905158933
10
61.032900001957941
20
-102.44510905158931
42
0.41421356237309503
10
61.532900001957962
20
-101.9451090515893
10
61.532900001957969
20
-101.44508702158944
42
-0.41421356237309503
10
62.032900001957984
20
-100.94508702158944
10
68.682900001957918
20
-100.94508702158936
42
-0.41421356237309503
10
69.182900001957933
20
-101.44508702158937
10
69.182900001957918
20
-104.4450870215893
42
0.41421356237309503
10
69.682900001957918
20
-104.94508702158932
10
69.719900001957939
20
-104.94508702158932
42
-0.41421356237309503
10
70.219900001957953
20
-105.44508702158933
10
70.219900001957953
20
-118.44508702158933
42
-0.41421356237309503
10
69.719900001957939
20
-118.94508702158933
10
69.682900001957918
20
-118.94508702158933
42
0.41421356237309503
10
69.182900001957918
20
-119.44508702158934
10
69.182900001957918
20
-120.94508702158944
42
-0.41421356237309503
10
68.682900001957947
20
-121.44508702158942
10
62.032900001957955
20
-121.44508702158942
42
-0.41421356237309503
10
61.532900001957948
20
-120.9450870215894
10
61.532900001957962
20
-119.44508702158939
42
0.41421356237309503
10
61.032900001957906
20
-118.94508702158932
10
45.656900001957965
20
-118.94508702158942
42
0.41421356237309503
10
45.156900001957958
20
-119.44508702158942
10
45.156900001957972
20
-120.94508702158934
42
-0.41421356237310542
10
44.656900001957929
20
-121.44508702158942
10
38.006900001957916
20
-121.44508702158942
42
-0.41421356237308982
0
LWPOLYLINE
5
168
100
AcDbEntity
8
0
100
AcDbPolyline
90
8
70
1
43
0.0
10
224.94490000195808
20
-38.745087021589356
42
0.41421356237309631
10
225.94490000195805
20
-37.745087021589356
10
225.94490000195805
20
-35.745087021589356
42
0.41421356237309631
10
224.94490000195808
20
-34.74508702158937
10
190.16990000195804
20
-34.745087021589335
42
0.41421356237306384
10
189.16990000195807
20
-35.745087021589335
10
189.16990000195807
20
-37.745087021589335
42
0.41421356237309892
10
190.16990000195804
20
-38.745087021589327
0
LWPOLYLINE
5
169
100
AcDbEntity
8
0
100
AcDbPolyline
90
8
70
1
43
0.0
10
164.16990000195807
20
-38.745087021589349
10
129.39490000195792
20
-38.745087021589327
42
-0.41421356237308721
10
128.39490000195792
20
-37.74508702158932
10
128.39490000195792
20
-35.745087021589327
42
-0.41421356237310675
10
129.39490000195795
20
-34.745087021589342
10
164.16990000195807
20
-34.745087021589327
42
-0.41421356237307161
10
165.16990000195807
20
-35.745087021589327
10
165.16990000195807
20
-37.745087021589335
42
-0.41421356237307422
0
LWPOLYLINE
5
170
100
AcDbEntity
8
0
100
AcDbPolyline
90
117
70
1
43
0.0
10
33.819899223575582
20
-27.72009086621491
10
33.819899223575582
20
-119.98602052355369
42
0.41421356237309209
10
37.819899223575575
20
-123.98602052355371
10
51.61127064079092
20
-123.98602052355373
42
-0.19891236737965859
10
53.732590984350566
20
-124.86470017999409
10
55.47675425145038
20
-126.60886344709431
42
0.19891236737956822
10
56.183861032636884
20
-126.90175666590731
10
57.169647470263776
20
-126.90175666590731
42
0.41421356237309503
10
57.669647470263776
20
-126.4017566659073
10
57.669647470263783
20
-123.45200919760131
42
-0.99999999999999989
10
60.869647470263786
20
-123.45200919760131
10
60.869647470263786
20
-126.4017566659073
42
0.41421356237309503
10
61.369647470263772
20
-126.90175666590731
10
62.355433907890685
20
-126.90175666590731
42
0.19891236737956658
10
63.062540689076982
20
-126.60886344709411
10
64.806702743030783
20
-124.86470139314009
42
-0.19891236737965914
10
66.928023086590429
20
-123.98602173669973
10
68.636330687087565
20
-123.98602173669973
42
0.25008569359550437
10
70.297589696522479
20
-123.09967271594383
42
-0.2500856935955037
10
72.29115004692656
20
-122.03602745992833
10
167.60678264055372
20
-122.03602745992839
42
-0.19891236737966239
10
169.72810298411338
20
-122.91470711636877
10
173.42225931483887
20
-126.60886344709439
42
0.19891236737947521
10
174.12936609602494
20
-126.90175666590734
10
175.11515253365195
20
-126.90175666590734
42
0.41421356237309503
10
175.61515253365198
20
-126.40175666590734
10
175.61515253365195
20
-123.45200919760134
42
-0.99999999999999989
10
178.81515253365194
20
-123.45200919760134
10
178.81515253365194
20
-126.40175666590734
42
0.41421356237309503
10
179.31515253365194
20
-126.90175666590734
10
180.30093897127895
20
-126.90175666590734
42
0.19891236737966128
10
181.00804575246596
20
-126.60886344709434
10
184.70220208319029
20
-122.91470711636904
42
-0.19891236737969287
10
186.8235224267502
20
-122.03602745992841
10
285.46178264055379
20
-122.03602745992845
42
-0.19891236737965801
10
287.5831029841134
20
-122.91470711636882
10
291.277259314839
20
-126.60886344709438
42
0.19891236737947193
10
291.98436609602493
20
-126.90175666590739
10
292.97015253365197
20
-126.90175666590739
42
0.41421356237309503
10
293.47015253365197
20
-126.40175666590737
10
293.47015253365197
20
-123.45200919760138
42
-0.99999999999999989
10
296.67015253365196
20
-123.45200919760138
10
296.67015253365196
20
-126.40175666590737
42
0.41421356237309503
10
297.17015253365196
20
-126.90175666590739
10
298.15593897127894
20
-126.90175666590739
42
0.19891236737965801
10
298.8630457524655
20
-126.60886344709394
10
302.55720486273157
20
-122.91470433682782
42
-0.1989123673796602
10
304.67852520629128
20
-122.03602468038744
10
318.51990078034072
20
-122.03602468038746
42
0.41421356237309503
10
320.51990078034066
20
-120.03602468038747
10
320.51990078034061
20
-27.720090866214981
42
0.41421356237309503
10
318.51990078034066
20
-25.720090866214981
10
304.68572235769051
20
-25.720090866214974
42
-0.12950528763296013
10
303.20771593412576
20
-25.330741553668418
42
-0.056874700485320333
10
302.67523439831672
20
-24.907343593960412
10
298.86304575246601
20
-21.095154948109183
42
0.19891236737975182
10
298.155938971279
20
-20.80226172929568
10
297.12525253365203
20
-20.80226172929568
42
0.41421356237309503
10
296.62525253365203
20
-21.302261729295683
10
296.62525253365203
20
-24.252009197601584
42
-0.41010971571965488
10
295.047702533652
20
-25.851851689067541
42
-0.41010971571966137
10
293.47015253365203
20
-24.252009197601584
10
293.47015253365203
20
-21.30226172929568
42
0.41421356237309503
10
292.97015253365197
20
-20.80226172929568
10
291.939466096025
20
-20.80226172929568
42
0.198912367379565
10
291.23235931483867
20
-21.095154948108874
10
287.486103053173
20
-24.84141120977462
42
-0.19891236737965776
10
285.36478270961334
20
-25.720090866214974
10
248.66558745349329
20
-25.72009086621496
42
0.11715681205663077
10
246.86653300724387
20
-26.147500335601336
10
243.15270599399898
20
-28.017677436370523
42
-0.11715681205666191
10
241.35365154774914
20
-28.445086905757115
10
239.31990000195813
20
-28.445086905757119
42
0.41421356237309503
10
238.31990000195813
20
-29.445086905757144
10
238.31990000195813
20
-43.545087021589374
42
-0.41421356237309503
10
237.81990000195816
20
-44.045087021589353
10
230.81990000195813
20
-44.045087021589353
42
-0.41421356237309503
10
230.31990000195816
20
-43.545087021589381
10
230.31990000195816
20
-29.445086905757144
42
0.41421356237309503
10
229.31990000195813
20
-28.44508690575713
10
185.16990000195815
20
-28.445086905757123
42
0.41421356237309503
10
184.16990000195813
20
-29.445086905757144
10
184.1699000019581
20
-42.245087021589349
42
-0.41421356237309503
10
183.6699000019581
20
-42.745087021589342
10
170.66990000195813
20
-42.745087021589356
42
-0.41421356237309503
10
170.16990000195813
20
-42.245087021589349
10
170.16990000195815
20
-29.445086905757144
42
0.41421356237309503
10
169.16990000195813
20
-28.44508690575713
10
125.01990000195816
20
-28.44508690575713
42
0.4142135623730846
10
124.01990000195816
20
-29.445086905757151
10
124.01990000195816
20
-43.545087021589367
42
-0.41421356237309503
10
123.51990000195818
20
-44.04508702158936
10
116.51990000195808
20
-44.045087021589353
42
-0.41421356237309503
10
116.01990000195812
20
-43.545087021589396
10
116.01990000195815
20
-29.445086905757151
42
0.41421356237310025
10
115.01990000195812
20
-28.445086905757137
10
112.98614845616713
20
-28.445086905757133
42
-0.11715681205666349
10
111.18709400991725
20
-28.017677436370533
10
107.47326699667268
20
-26.147500335601276
42
0.11715681205662826
10
105.67421255042328
20
-25.720090866214925
10
68.885217294302436
20
-25.720090866214946
42
-0.12950528763302663
10
67.407210870736932
20
-25.330741553668005
42
-0.056874700485261526
10
66.874729334928574
20
-24.90734359396037
10
63.062540689077203
20
-21.095154948109109
42
0.19891236737965717
10
62.355433907890713
20
-20.802261729295605
10
61.324747470263823
20
-20.802261729295608
42
0.41421356237309503
10
60.824747470263823
20
-21.302261729295608
10
60.824747470263823
20
-24.252009197601502
42
-0.41010971571966137
10
59.247197470263814
20
-25.85185168906748
42
-0.41010971571965976
10
57.66964747026379
20
-24.252009197601502
10
57.669647470263797
20
-21.302261729295608
42
0.41421356237309503
10
57.169647470263797
20
-20.802261729295605
10
56.138961032636914
20
-20.802261729295605
42
0.19891236737967682
10
55.431854251450318
20
-21.095154948109109
10
51.685597989784952
20
-24.841411209774556
42
-0.1989123673796572
10
49.564277646225314
20
-25.720090866214914
10
35.819899223575568
20
-25.720093250400726
42
0.41421356237309437
0
LWPOLYLINE
5
171
100
AcDbEntity
8
0
100
AcDbPolyline
90
8
70
1
43
0.0
10
103.20740000195801
20
-29.245087021589317
10
103.20740000195804
20
-42.24508702158932
42
-0.41421356237309503
10
102.70740000195799
20
-42.745087021589363
10
89.707400001958007
20
-42.74508702158937
42
-0.41421356237321988
10
89.207400001957936
20
-42.245087021589313
10
89.207400001958007
20
-29.245087021589313
42
-0.41421356237309503
10
89.707400001958021
20
-28.745087021589306
10
102.70740000195801
20
-28.745087021589214
42
-0.41421356237315227
0
LWPOLYLINE
5
172
100
AcDbEntity
8
0
100
AcDbPolyline
90
8
70
1
43
0.0
10
85.607400001958013
20
-29.245087021589313
10
85.607400001957942
20
-42.245087021589313
42
-0.41421356237309503
10
85.107400001957899
20
-42.745087021589356
10
84.107400001957998
20
-42.745087021589299
42
-0.41421356237309503
10
83.607400001958013
20
-42.245087021589313
10
83.607400001958041
20
-29.245087021589313
42
-0.41421356237309503
10
84.107400001958013
20
-28.745087021589342
10
85.107400001957927
20
-28.745087021589217
42
-0.41421356237309503
0
LWPOLYLINE
5
173
100
AcDbEntity
8
0
100
AcDbPolyline
90
8
70
1
43
0.0
10
79.394900001958007
20
-29.245087021589313
10
79.394900001957978
20
-42.245087021589313
42
-0.41421356237298057
10
78.894900001958007
20
-42.745087021589292
10
65.894900001957907
20
-42.74508702158932
42
-0.41421356237315748
10
65.394900001957993
20
-42.245087021589299
10
65.394900001957964
20
-29.24508702158931
42
-0.41421356237315227
10
65.894900001957907
20
-28.745087021589274
10
78.894900001957907
20
-28.745087021589313
42
-0.41421356237315227
0
LWPOLYLINE
5
174
100
AcDbEntity
8
0
100
AcDbPolyline
90
8
70
1
43
0.0
10
61.182400001958008
20
-29.245087021589306
10
61.182400001957959
20
-42.245087021589299
42
-0.41421356237298057
10
60.682400001958008
20
-42.745087021589249
10
59.682400001958015
20
-42.745087021589299
42
-0.41421356237309503
10
59.182400001958015
20
-42.245087021589299
10
59.182400001957937
20
-29.245087021589306
42
-0.41421356237315748
10
59.682400001958015
20
-28.745087021589335
10
60.682400001958008
20
-28.745087021589207
42
-0.41421356237315227
0
LWPOLYLINE
5
175
100
AcDbEntity
8
0
100
AcDbPolyline
90
8
70
1
43
0.0
10
55.582400001958014
20
-29.245087021589306
10
55.58240000195805
20
-42.245087021589299
42
-0.41421356237309503
10
55.082400001958007
20
-42.745087021589342
10
42.082400001958007
20
-42.745087021589271
42
-0.41421356237315227
10
41.582400001957929
20
-42.245087021589292
10
41.582400001958064
20
-29.245087021589299
42
-0.4142135623730378
10
42.082400001958007
20
-28.745087021589256
10
55.082400001958007
20
-28.7450870215892
42
-0.41421356237315227
0
LWPOLYLINE
5
176
100
AcDbEntity
8
0
100
AcDbPolyline
90
8
70
1
43
0.0
10
37.982400001958005
20
-29.245087021589299
10
37.982400001957942
20
-42.245087021589285
42
-0.41421356237297796
10
37.482400001958005
20
-42.745087021589242
10
36.482400001957998
20
-42.745087021589271
42
-0.41421356237315488
10
35.98240000195792
20
-42.245087021589292
10
35.982400001957963
20
-29.245087021589299
42
-0.41421356237309503
10
36.482400001958005
20
-28.745087021589256
10
37.482400001958005
20
-28.745087021589303
42
-0.41421356237309503
0
LWPOLYLINE
5
177
100
AcDbEntity
8
0
100
AcDbPolyline
90
8
70
1
43
0.0
10
108.80740000195802
20
-29.24508702158932
10
108.80740000195806
20
-42.24508702158932
42
-0.41421356237309503
10
108.30740000195802
20
-42.745087021589363
10
107.307400001958
20
-42.745087021589327
42
-0.41421356237315748
10
106.8074000019581
20
-42.24508702158932
10
106.80740000195809
20
-29.245087021589317
42
-0.41421356237314966
10
107.30740000195802
20
-28.745087021589288
10
108.30740000195803
20
-28.745087021589235
42
-0.41421356237315227
0
ENDSEC
0
SECTION
2
OBJECTS
0
DICTIONARY
5
C
100
AcDbDictionary
3
ACAD_GROUP
350
D
3
ACAD_MLINESTYLE
350
17
0
DICTIONARY
5
D
100
AcDbDictionary
0
DICTIONARY
5
1A
330
C
100
AcDbDictionary
0
DICTIONARY
5
17
100
AcDbDictionary
0
ENDSEC
0
EOF
