0
SECTION
2
HEADER
9
$INSUNITS
70
4
9
$ACADVER
1
AC1014
9
$HANDSEED
5
FFFF
0
ENDSEC
0
SECTION
2
TABLES
0
TABLE
2
VPORT
5
8
100
AcDbSymbolTable
0
ENDTAB
0
TABLE
2
LTYPE
5
5
100
AcDbSymbolTable
0
LTYPE
5
14
100
AcDbSymbolTableRecord
100
AcDbLinetypeTableRecord
2
BYBLOCK
70
0
0
LTYPE
5
15
100
AcDbSymbolTableRecord
100
AcDbLinetypeTableRecord
2
BYLAYER
70
0
0
LTYPE
5
16
100
AcDbSymbolTableRecord
100
AcDbLinetypeTableRecord
2
DASHED
70
0
3
Dashed __ __ __ __ __ __ __ __ __ __ __ __ __ _
72
65
73
2
40
0.75
49
0.5
74
0
49
-0.25
74
0
0
ENDTAB
0
TABLE
2
LAYER
5
2
100
AcDbSymbolTable
70
3
0
LAYER
5
50
100
AcDbSymbolTableRecord
100
AcDbLayerTableRecord
2
1
70
0
62
7
6
DASHED
0
LAYER
5
51
100
AcDbSymbolTableRecord
100
AcDbLayerTableRecord
2
0
70
0
62
7
6
CONTINUOUS
0
ENDTAB
0
TABLE
2
STYLE
5
3
100
AcDbSymbolTable
70
1
0
STYLE
5
11
100
AcDbSymbolTableRecord
100
AcDbTextStyleTableRecord
2
STANDARD
70
0
0
ENDTAB
0
TABLE
2
VIEW
5
6
100
AcDbSymbolTable
70
0
0
ENDTAB
0
TABLE
2
UCS
5
7
100
AcDbSymbolTable
70
0
0
ENDTAB
0
TABLE
2
APPID
5
9
100
AcDbSymbolTable
70
2
0
APPID
5
12
100
AcDbSymbolTableRecord
100
AcDbRegAppTableRecord
2
ACAD
70
0
0
ENDTAB
0
TABLE
2
DIMSTYLE
5
A
100
AcDbSymbolTable
70
1
0
ENDTAB
0
TABLE
2
BLOCK_RECORD
5
1
100
AcDbSymbolTable
70
1
0
BLOCK_RECORD
5
1F
100
AcDbSymbolTableRecord
100
AcDbBlockTableRecord
2
*MODEL_SPACE
0
BLOCK_RECORD
5
1B
100
AcDbSymbolTableRecord
100
AcDbBlockTableRecord
2
*PAPER_SPACE
0
ENDTAB
0
ENDSEC
0
SECTION
2
BLOCKS
0
BLOCK
5
20
100
AcDbEntity
100
AcDbBlockBegin
2
*MODEL_SPACE
0
ENDBLK
5
21
100
AcDbEntity
100
AcDbBlockEnd
0
BLOCK
5
1C
100
AcDbEntity
100
AcDbBlockBegin
2
*PAPER_SPACE
0
ENDBLK
5
1D
100
AcDbEntity
100
AcDbBlockEnd
0
ENDSEC
0
SECTION
2
ENTITIES
0
LWPOLYLINE
5
100
100
AcDbEntity
8
0
100
AcDbPolyline
90
40
70
1
43
0.0
10
-72.413000000000068
20
69.824999999999989
10
-56.537000000000077
20
69.825000000000117
42
-0.41421356237310025
10
-56.036999999999964
20
69.325000000000003
10
-56.036999999999964
20
68.824999999999989
42
0.41421356237309503
10
-55.036999999999964
20
67.825000000000003
10
-50.036999999999964
20
67.825000000000003
42
0.414213562373069
10
-49.036999999999971
20
68.824999999999918
10
-49.036999999999935
20
69.325000000000017
42
-0.41421356237301699
10
-48.536999999999964
20
69.825000000000003
10
-48.449999999999989
20
69.825000000000003
42
0.41421356237295454
10
-47.950000000000017
20
70.325000000000003
10
-47.950000000000017
20
83.324999999999989
42
0.41421356237299095
10
-48.449999999999989
20
83.824999999999932
10
-48.598459836880323
20
83.824999999999946
42
-0.37856359072663592
10
-49.037000000000077
20
84.321208311549356
10
-49.037000000000077
20
86.325000000000017
42
0.4142135623728973
10
-49.53700000000012
20
86.825000000000159
10
-55.536999999999992
20
86.824999999999989
42
0.41421356237319906
10
-56.036999999999964
20
86.325000000000003
10
-56.037000000000106
20
84.324999999999989
42
-0.41421356237318868
10
-56.537000000000077
20
83.825000000000003
10
-72.413000000000096
20
83.824999999999989
42
-0.41421356237312623
10
-72.913000000000139
20
84.325000000000017
10
-72.913000000000068
20
86.325000000000003
42
0.4142135623730534
10
-73.413000000000011
20
86.825000000000017
10
-79.413000000000054
20
86.824999999999989
42
0.41421356237300139
10
-79.912999999999982
20
86.325000000000003
10
-79.913000000000068
20
84.324999999999989
42
-0.41421356237312623
10
-80.413000000000068
20
83.825000000000003
10
-80.500000000000043
20
83.825000000000003
42
0.414213562373069
10
-81.000000000000156
20
83.324999999999989
10
-81.000000000000057
20
70.324999999999989
42
0.41421356237318346
10
-80.500000000000043
20
69.825000000000045
10
-80.413000000000068
20
69.825000000000003
42
-0.41421356237312101
10
-79.913000000000025
20
69.324999999999989
10
-79.913000000000039
20
68.825000000000017
42
0.41421356237309503
10
-78.913000000000025
20
67.824999999999989
10
-73.913000000000068
20
67.825000000000003
42
0.41421356237310281
10
-72.913000000000082
20
68.824999999999989
10
-72.913000000000068
20
69.324999999999989
42
-0.41421356237310542
0
CIRCLE
5
101
100
AcDbEntity
8
0
100
AcDbCircle
10
-71.618750000000091
20
-12.875000000000023
30
0
40
1.4999999999999858
210
0
220
0
230
1
0
CIRCLE
5
102
100
AcDbEntity
8
0
100
AcDbCircle
10
-140.67500000000007
20
91.325000000000017
30
0
40
1.4999999999999858
210
0
220
0
230
1
0
LWPOLYLINE
5
103
100
AcDbEntity
8
0
100
AcDbPolyline
90
12
70
1
43
0.0
10
-142.26359066090421
20
87.928107344632707
42
0.22227711223717742
10
-139.08640933909595
20
87.928107344632807
42
-0.10979869704035536
10
-138.42555562415981
20
88.075000000000017
10
-126.26875000000005
20
88.075000000000017
42
0.99999999999999989
10
-126.26875000000005
20
89.574999999999989
10
-138.32393641089845
20
89.574999999999989
42
0.15563859566510138
10
-139.22730074562705
20
89.286822660098508
42
-0.31900455754433632
10
-142.12269925437309
20
89.286822660098522
42
0.15563859566515756
10
-143.02606358910168
20
89.574999999999903
10
-155.08125000000007
20
89.574999999999989
42
0.99999999999999989
10
-155.08125000000007
20
88.074999999999974
10
-142.92444437584038
20
88.074999999999932
42
-0.10979869704038134
0
LWPOLYLINE
5
104
100
AcDbEntity
8
0
100
AcDbPolyline
90
8
70
1
43
0.0
10
-290.05000000000007
20
69.82499999999996
10
-277.05000000000007
20
69.824999999999974
42
0.4142135623730846
10
-276.55000000000001
20
70.324999999999974
10
-276.55000000000007
20
83.324999999999989
42
0.41421356237316265
10
-277.05000000000007
20
83.824999999999946
10
-290.05000000000007
20
83.82499999999996
42
0.41421356237309503
10
-290.55000000000007
20
83.32499999999996
10
-290.55000000000007
20
70.32499999999996
42
0.41421356237308982
0
CIRCLE
5
105
100
AcDbEntity
8
0
100
AcDbCircle
10
-83.525000000000063
20
91.325000000000003
30
0
40
1.4999999999999858
210
0
220
0
230
1
0
CIRCLE
5
106
100
AcDbEntity
8
0
100
AcDbCircle
10
-304.9812500000001
20
-12.875000000000041
30
0
40
1.5000000000000036
210
0
220
0
230
1
0
LWPOLYLINE
5
107
100
AcDbEntity
8
0
100
AcDbPolyline
90
8
70
1
43
0.0
10
-181.80000000000007
20
69.824999999999989
42
0.41421356237296497
10
-181.30000000000007
20
70.324999999999974
10
-181.30000000000007
20
83.324999999999989
42
0.41421356237315748
10
-181.80000000000007
20
83.82499999999996
10
-194.80000000000004
20
83.825000000000003
42
0.41421356237301177
10
-195.30000000000004
20
83.324999999999989
10
-195.30000000000004
20
70.324999999999974
42
0.41421356237307944
10
-194.80000000000004
20
69.824999999999932
0
LWPOLYLINE
5
108
100
AcDbEntity
8
0
100
AcDbPolyline
90
12
70
1
43
0.0
10
-85.774444375840204
20
88.074999999999903
42
-0.10979869704038818
10
-85.113590660904237
20
87.928107344632721
42
0.22227711223717597
10
-81.936409339096031
20
87.928107344632764
42
-0.10979869704038042
10
-81.275555624159779
20
88.075000000000017
10
-69.118750000000091
20
88.075000000000017
42
0.99999999999999989
10
-69.118749999999949
20
89.574999999999989
10
-81.173936410898335
20
89.574999999999989
42
0.15563859566516122
10
-82.077300745627042
20
89.286822660098522
42
-0.3190045575443356
10
-84.972699254373111
20
89.286822660098522
42
0.15563859566511981
10
-85.876063589101676
20
89.574999999999932
10
-97.931249999999963
20
89.574999999999989
42
0.99999999999999989
10
-97.931249999999963
20
88.074999999999989
0
LWPOLYLINE
5
109
100
AcDbEntity
8
0
100
AcDbPolyline
90
8
70
1
43
0.0
10
-295.60000000000008
20
83.324999999999974
42
0.41421356237311585
10
-296.10000000000008
20
83.82499999999996
10
-309.10000000000008
20
83.824999999999989
42
0.41421356237307422
10
-309.60000000000008
20
83.32499999999996
10
-309.60000000000002
20
70.32499999999996
42
0.41421356237315748
10
-309.10000000000002
20
69.824999999999989
10
-296.10000000000008
20
69.82499999999996
42
0.41421356237308982
10
-295.60000000000008
20
70.32499999999996
0
LWPOLYLINE
5
110
100
AcDbEntity
8
0
100
AcDbPolyline
90
12
70
1
43
0.0
10
-234.33640933909595
20
87.928107344632807
42
-0.10979869704036915
10
-233.67555562415981
20
88.075000000000017
10
-221.51875000000004
20
88.074999999999974
42
0.99999999999999989
10
-221.51875000000004
20
89.574999999999989
10
-233.57393641089834
20
89.574999999999974
42
0.1556385956651572
10
-234.47730074562708
20
89.286822660098466
42
-0.3190045575443225
10
-237.37269925437306
20
89.286822660098466
42
0.1556385956651391
10
-238.27606358910174
20
89.57499999999996
10
-250.33125000000007
20
89.574999999999989
42
0.99999999999999989
10
-250.33125000000007
20
88.075000000000017
10
-238.17444437584032
20
88.074999999999932
42
-0.10979869704036942
10
-237.51359066090419
20
87.928107344632721
42
0.22227711223718327
0
LWPOLYLINE
5
111
100
AcDbEntity
8
0
100
AcDbPolyline
90
12
70
1
43
0.0
10
-278.66875000000005
20
89.574999999999989
10
-290.72393641089838
20
89.574999999999974
42
0.1556385956651572
10
-291.62730074562711
20
89.286822660098451
42
-0.31900455754431722
10
-294.52269925437298
20
89.286822660098466
42
0.15563859566514676
10
-295.42606358910177
20
89.574999999999932
10
-307.4812500000001
20
89.574999999999974
42
0.99999999999999989
10
-307.4812500000001
20
88.074999999999989
10
-295.32444437584036
20
88.074999999999918
42
-0.10979869704038023
10
-294.66359066090428
20
87.928107344632707
42
0.22227711223718402
10
-291.48640933909593
20
87.928107344632792
42
-0.10979869704037452
10
-290.82555562415985
20
88.074999999999974
10
-278.66875000000005
20
88.074999999999974
42
0.99999999999999989
0
LWPOLYLINE
5
112
100
AcDbEntity
8
0
100
AcDbPolyline
90
8
70
1
43
0.0
10
-200.85000000000008
20
83.82499999999996
10
-213.85000000000002
20
83.824999999999989
42
0.41421356237307422
10
-214.35000000000005
20
83.324999999999974
10
-214.35000000000002
20
70.324999999999974
42
0.41421356237315748
10
-213.85000000000002
20
69.825000000000031
10
-200.85000000000008
20
69.824999999999989
42
0.41421356237296497
10
-200.35000000000008
20
70.324999999999974
10
-200.35000000000008
20
83.324999999999989
42
0.41421356237315748
0
LWPOLYLINE
5
113
100
AcDbEntity
8
0
100
AcDbPolyline
90
8
70
1
43
0.0
10
-219.90000000000006
20
69.824999999999974
42
0.414213562373069
10
-219.40000000000001
20
70.324999999999974
10
-219.40000000000001
20
83.324999999999974
42
0.41421356237313145
10
-219.90000000000003
20
83.825000000000003
10
-232.90000000000006
20
83.825000000000003
42
0.41421356237305862
10
-233.40000000000003
20
83.324999999999974
10
-233.40000000000003
20
70.324999999999974
42
0.41421356237316265
10
-232.90000000000006
20
69.824999999999989
0
LWPOLYLINE
5
114
100
AcDbEntity
8
0
100
AcDbPolyline
90
8
70
1
43
0.0
10
-53.212500000000063
20
7.6249999999999645
10
-66.212499999999963
20
7.6250000000000062
42
0.41421356237296364
10
-66.712499999999935
20
7.1250000000000053
10
-66.712500000000077
20
-5.875000000000008
42
0.41421356237289991
10
-66.212499999999963
20
-6.3750000000000728
10
-53.212500000000063
20
-6.3750000000000018
42
0.41421356237296236
10
-52.712500000000091
20
-5.875000000000008
10
-52.712500000000091
20
7.125000000000008
42
0.41421356237298967
0
LWPOLYLINE
5
115
100
AcDbEntity
8
0
100
AcDbPolyline
90
8
70
1
43
0.0
10
-105.09999999999994
20
70.324999999999989
10
-105.09999999999994
20
83.325000000000017
42
0.41421356237313145
10
-105.59999999999995
20
83.825000000000003
10
-118.60000000000007
20
83.825000000000003
42
0.41421356237301177
10
-119.10000000000008
20
83.324999999999989
10
-119.10000000000008
20
70.324999999999989
42
0.41421356237318346
10
-118.60000000000007
20
69.825000000000045
10
-105.60000000000005
20
69.824999999999989
42
0.41421356237307422
0
LWPOLYLINE
5
116
100
AcDbEntity
8
0
100
AcDbPolyline
90
12
70
1
43
0.0
10
-57.212500000000048
20
-9.6249999999999822
42
-0.99999999999999989
10
-57.212500000000048
20
-11.125000000000011
10
-69.267686410898435
20
-11.124999999999909
42
-0.15563859566521046
10
-70.171050745627142
20
-10.836822660098552
42
0.31900455754434631
10
-73.066449254373111
20
-10.836822660098559
42
-0.15563859566510957
10
-73.969813589101747
20
-11.125000000000025
10
-86.025000000000063
20
-11.125000000000021
42
-0.99999999999999989
10
-86.025000000000063
20
-9.6249999999999822
10
-73.868194375840801
20
-9.6250000000000071
42
0.10979869704038739
10
-73.207340660904407
20
-9.4781073446328143
42
-0.22227711223721103
10
-70.030159339095661
20
-9.4781073446328392
42
0.10979869704040503
10
-69.369305624159381
20
-9.625000000000119
0
LWPOLYLINE
5
117
100
AcDbEntity
8
0
100
AcDbPolyline
90
8
70
1
43
0.0
10
-328.65000000000009
20
83.32499999999996
10
-328.65000000000009
20
70.32499999999996
42
0.41421356237311585
10
-328.15000000000003
20
69.824999999999974
10
-315.15000000000009
20
69.82499999999996
42
0.41421356237309503
10
-314.65000000000009
20
70.32499999999996
10
-314.65000000000009
20
83.324999999999974
42
0.4142135623730846
10
-315.15000000000009
20
83.82499999999996
10
-328.15000000000009
20
83.82499999999996
42
0.41421356237311585
0
LWPOLYLINE
5
118
100
AcDbEntity
8
0
100
AcDbPolyline
90
8
70
1
43
0.0
10
-99.550000000000054
20
83.825000000000003
42
0.41421356237301177
10
-100.05000000000007
20
83.324999999999989
10
-100.05000000000007
20
70.324999999999989
42
0.41421356237318346
10
-99.550000000000054
20
69.825000000000045
10
-86.55000000000004
20
69.824999999999989
42
0.414213562373069
10
-86.050000000000011
20
70.324999999999989
10
-86.05000000000004
20
83.324999999999989
42
0.4142135623730846
10
-86.550000000000011
20
83.825000000000003
0
LWPOLYLINE
5
119
100
AcDbEntity
8
0
100
AcDbPolyline
90
8
70
1
43
0.0
10
-90.024999999999977
20
7.6250000000000036
42
0.41421356237295326
10
-90.524999999999949
20
7.1250000000000036
10
-90.524999999999949
20
-5.8750000000000124
42
0.41421356237308982
10
-90.024999999999977
20
-6.3750000000000462
10
-77.024999999999977
20
-6.3750000000000018
42
0.41421356237317047
10
-76.524999999999963
20
-5.875000000000008
10
-76.524999999999963
20
7.1250000000000036
42
0.41421356237311452
10
-77.024999999999977
20
7.6250000000000213
0
CIRCLE
5
120
100
AcDbEntity
8
0
100
AcDbCircle
10
-259.26250000000005
20
-12.875000000000032
30
0
40
1.5000000000000036
210
0
220
0
230
1
0
CIRCLE
5
121
100
AcDbEntity
8
0
100
AcDbCircle
10
-117.33750000000001
20
-12.875000000000014
30
0
40
1.4999999999999858
210
0
220
0
230
1
0
LWPOLYLINE
5
122
100
AcDbEntity
8
0
100
AcDbPolyline
90
56
70
1
43
0.0
10
-233.83800000000002
20
-6.3750000000000195
42
0.41421356237308332
10
-234.83799999999997
20
-7.3750000000000249
10
-234.83800000000002
20
-8.1635775971468583
42
-0.41421356237310025
10
-235.83799999999997
20
-9.1635775971468192
10
-247.95373853789215
20
-9.1635775971467304
42
-0.41658420122959366
10
-249.17015757376998
20
-8.1951014050620046
10
-249.17015757376993
20
8.6250000000000089
42
-0.41421356237308982
10
-248.17015757376993
20
9.6250000000000071
10
-235.8261515073068
20
9.6250000000000018
42
-0.414213562373069
10
-234.82615150730678
20
8.6250000000000053
10
-234.82615150730678
20
8.6131887235980926
42
0.40655354579901126
10
-233.84481694578696
20
7.625
10
-218.9523373576769
20
7.6249999999999858
42
0.41064563157376482
10
-217.89373666690659
20
8.6158279321897631
10
-217.89374921065064
20
8.623327379977697
42
-0.41470354656026376
10
-216.89375060948052
20
9.6249999999999485
10
-196.33583107232567
20
9.6249999999998987
42
-0.41476094179596246
10
-195.33583281798724
20
8.6231314925821874
10
-195.3358646330704
20
8.6061045183518843
42
0.40557500774460292
10
-194.31025787002534
20
7.6249999999999947
10
-182.30006113680216
20
7.6249999999999929
42
0.40734961280734
10
-181.41358192534636
20
8.6245265944534939
10
-181.41357995671018
20
8.6233403911667867
42
-0.41469973434987756
10
-180.41358133386186
20
9.6249999999999059
10
-159.51653684143059
20
9.6249999999999076
42
-0.41476793128556999
10
-158.51653863194858
20
8.6231076383122875
10
-158.51653678488259
20
8.624083700500746
42
0.40673885055681247
10
-157.63793331189564
20
7.6249999999999947
10
-142.7614800087166
20
7.6250000000000036
42
0.40695730935486485
10
-141.87578576383052
20
8.6243265695577129
10
-141.87578576383052
20
8.6249999999998828
42
-0.41421356237309859
10
-140.87578576383052
20
9.6249999999998916
10
-128.65000000000001
20
9.6249999999998721
42
-0.4142135623730947
10
-127.65000000000001
20
8.6249999999998757
10
-127.64999999999998
20
-8.1635775971468192
42
-0.41421356237309764
10
-128.65000000000003
20
-9.1635775971468014
10
-140.76200000000011
20
-9.1635775971467872
42
-0.41421356237309631
10
-141.76200000000006
20
-8.1635775971468547
10
-141.76200000000006
20
-7.3750000000000115
42
0.41421356237311324
10
-142.76200000000003
20
-6.3749999999999707
10
-157.63800000000001
20
-6.3750000000000373
42
0.41421356237308721
10
-158.63799999999998
20
-7.3750000000000382
10
-158.63799999999998
20
-8.1635775971467659
42
-0.41421356237308204
10
-159.63800000000006
20
-9.163577597146805
10
-180.29999999999998
20
-9.163577597146805
42
-0.41421356237309243
10
-181.29999999999995
20
-8.1635775971467908
10
-181.29999999999995
20
-6.8750000000000711
42
0.41421356237312884
10
-181.80000000000004
20
-6.3750000000000862
10
-194.80000000000004
20
-6.3750000000000195
42
0.41421356237311063
10
-195.30000000000007
20
-6.8750000000000755
10
-195.30000000000004
20
-8.1635775971467961
42
-0.41421356237312235
10
-196.30000000000007
20
-9.1635775971468334
10
-216.96200000000002
20
-9.1635775971467979
42
-0.41421356237313017
10
-217.9620000000001
20
-8.1635775971467694
10
-217.9620000000001
20
-7.3750000000000426
42
0.41421356237305862
10
-218.96200000000007
20
-6.3750000000000462
0
LWPOLYLINE
5
123
100
AcDbEntity
8
0
100
AcDbPolyline
90
8
70
1
43
0.0
10
-323.88750000000005
20
-5.8750000000000391
42
0.41421356237309503
10
-323.38750000000005
20
-6.3750000000000373
10
-310.38750000000005
20
-6.3750000000000329
42
0.41421356237314705
10
-309.8875000000001
20
-5.8750000000000391
10
-309.8875000000001
20
7.1249999999999751
42
0.41421356237307422
10
-310.38750000000005
20
7.6249999999999822
10
-323.38750000000005
20
7.6249999999999751
42
0.41421356237307422
10
-323.8875000000001
20
7.1249999999999751
0
LWPOLYLINE
5
124
100
AcDbEntity
8
0
100
AcDbPolyline
90
8
70
1
43
0.0
10
-100.33749999999998
20
-5.8750000000000124
10
-100.33749999999998
20
7.1250000000000018
42
0.41421356237316526
10
-100.83749999999995
20
7.6250000000000195
10
-113.83750000000006
20
7.625
42
0.41421356237292462
10
-114.33750000000006
20
7.1249999999999991
10
-114.33750000000003
20
-5.8750000000000124
42
0.4142135623730534
10
-113.83750000000006
20
-6.3750000000000284
10
-100.83749999999995
20
-6.3750000000000062
42
0.41421356237318607
0
LWPOLYLINE
5
125
100
AcDbEntity
8
0
100
AcDbPolyline
90
8
70
1
43
0.0
10
-262.76250000000005
20
-6.375000000000024
42
0.41421356237308721
10
-262.26250000000005
20
-5.8750000000000302
10
-262.26250000000005
20
7.1249999999999813
42
0.4142135623730625
10
-262.76250000000005
20
7.6250000000000036
10
-275.76250000000005
20
7.6249999999999796
42
0.41421356237312362
10
-276.2625000000001
20
7.1249999999999787
10
-276.26250000000005
20
-5.8750000000000346
42
0.41421356237310802
10
-275.76250000000005
20
-6.3750000000000373
0
LWPOLYLINE
5
126
100
AcDbEntity
8
0
100
AcDbPolyline
90
8
70
1
43
0.0
10
-124.65000000000003
20
83.825000000000003
10
-137.65000000000001
20
83.825000000000003
42
0.41421356237313667
10
-138.15000000000001
20
83.324999999999989
10
-138.15000000000001
20
70.324999999999974
42
0.41421356237315748
10
-137.65000000000001
20
69.825000000000003
10
-124.65000000000003
20
69.824999999999989
42
0.41421356237294937
10
-124.15000000000006
20
70.324999999999989
10
-124.15000000000006
20
83.324999999999989
42
0.4142135623730534
0
LWPOLYLINE
5
127
100
AcDbEntity
8
0
100
AcDbPolyline
90
12
70
1
43
0.0
10
-302.73180562415985
20
-9.6249999999999645
42
-0.10979869704036152
10
-303.39265933909593
20
-9.4781073446327611
42
0.22227711223718327
10
-306.56984066090422
20
-9.4781073446328321
42
-0.10979869704036822
10
-307.2306943758403
20
-9.6250000000000391
10
-319.38750000000005
20
-9.6250000000000249
42
0.99999999999999989
10
-319.38750000000005
20
-11.125000000000043
10
-307.33231358910177
20
-11.125000000000046
42
0.15563859566514285
10
-306.42894925437309
20
-10.836822660098537
42
-0.31900455754432322
10
-303.53355074562705
20
-10.836822660098528
42
0.15563859566515098
10
-302.63018641089838
20
-11.125000000000004
10
-290.57500000000005
20
-11.125000000000039
42
0.99999999999999989
10
-290.57500000000005
20
-9.6250000000000213
0
CIRCLE
5
128
100
AcDbEntity
8
0
100
AcDbCircle
10
-235.92500000000007
20
91.32499999999996
30
0
40
1.5000000000000036
210
0
220
0
230
1
0
LWPOLYLINE
5
129
100
AcDbEntity
8
0
100
AcDbPolyline
90
8
70
1
43
0.0
10
-143.70000000000005
20
69.824999999999989
42
0.41421356237307944
10
-143.20000000000007
20
70.324999999999974
10
-143.20000000000007
20
83.324999999999974
42
0.4142135623730846
10
-143.70000000000005
20
83.825000000000003
10
-156.70000000000005
20
83.825000000000003
42
0.4142135623732251
10
-157.20000000000005
20
83.324999999999989
10
-157.20000000000005
20
70.324999999999974
42
0.41421356237313145
10
-156.70000000000005
20
69.824999999999989
0
LWPOLYLINE
5
130
100
AcDbEntity
8
0
100
AcDbPolyline
90
8
70
1
43
0.0
10
-271.00000000000011
20
69.824999999999974
10
-258.00000000000006
20
69.824999999999974
42
0.41421356237310025
10
-257.50000000000006
20
70.324999999999974
10
-257.50000000000006
20
83.324999999999974
42
0.41421356237310025
10
-258.00000000000006
20
83.824999999999989
10
-271.00000000000011
20
83.824999999999989
42
0.41421356237310542
10
-271.50000000000006
20
83.324999999999974
10
-271.50000000000006
20
70.324999999999974
42
0.41421356237308982
0
CIRCLE
5
131
100
AcDbEntity
8
0
100
AcDbCircle
10
-293.07500000000005
20
91.32499999999996
30
0
40
1.5000000000000036
210
0
220
0
230
1
0
LWPOLYLINE
5
132
100
AcDbEntity
8
0
100
AcDbPolyline
90
8
70
1
43
0.0
10
-251.95000000000007
20
69.824999999999974
10
-238.95000000000007
20
69.824999999999974
42
0.41421356237305862
10
-238.44999999999999
20
70.324999999999974
10
-238.45000000000005
20
83.324999999999974
42
0.41421356237313667
10
-238.95000000000007
20
83.824999999999946
10
-251.95000000000007
20
83.825000000000003
42
0.41421356237305862
10
-252.45000000000007
20
83.324999999999974
10
-252.45000000000005
20
70.324999999999974
42
0.41421356237311585
0
LWPOLYLINE
5
133
100
AcDbEntity
8
0
100
AcDbPolyline
90
8
70
1
43
0.0
10
-300.07500000000005
20
7.1249999999999769
10
-300.07500000000005
20
-5.8750000000000346
42
0.41421356237309243
10
-299.57500000000005
20
-6.3750000000000373
10
-286.57500000000005
20
-6.3750000000000284
42
0.41421356237310802
10
-286.0750000000001
20
-5.8750000000000346
10
-286.07500000000005
20
7.1249999999999787
42
0.41421356237308204
10
-286.57500000000005
20
7.6250000000000151
10
-299.57500000000005
20
7.6249999999999769
42
0.41421356237311846
0
LWPOLYLINE
5
134
100
AcDbEntity
8
0
100
AcDbPolyline
90
8
70
1
43
0.0
10
-175.75000000000003
20
69.824999999999932
10
-162.75000000000006
20
69.824999999999989
42
0.41421356237296497
10
-162.25000000000006
20
70.324999999999974
10
-162.25000000000006
20
83.324999999999989
42
0.41421356237315748
10
-162.75000000000006
20
83.82499999999996
10
-175.75000000000003
20
83.825000000000003
42
0.41421356237301177
10
-176.25000000000003
20
83.324999999999989
10
-176.25000000000003
20
70.324999999999974
42
0.41421356237307944
0
LWPOLYLINE
5
135
100
AcDbEntity
8
0
100
AcDbPolyline
90
56
70
1
43
0.0
10
-156.43507684269804
20
91.325000000000003
42
0.19891236737966009
10
-157.53816342134905
20
90.868086578651003
10
-159.12433657865111
20
89.281913421348975
42
-0.19891236737965695
10
-160.22742315730213
20
88.825000000000003
10
-216.37257684269801
20
88.825000000000003
42
-0.19891236737965762
10
-217.47566342134905
20
89.28191342134896
10
-219.06183657865108
20
90.868086578650988
42
0.19891236737966636
10
-220.16492315730216
20
91.325000000000045
10
-232.17666703720184
20
91.325000000000003
42
-0.30288766705170111
10
-233.6169132002475
20
92.2855911330049
42
0.66696316064025463
10
-238.23308679975267
20
92.285591133004914
42
-0.30288766705170089
10
-239.67333296279827
20
91.324999999999989
10
-251.68507684269798
20
91.324999999999989
42
0.19891236737964965
10
-252.78816342134903
20
90.868086578651003
10
-254.37433657865108
20
89.281913421348946
42
-0.19891236737965259
10
-255.4774231573021
20
88.82499999999996
10
-273.52257684269802
20
88.82499999999996
42
-0.1989123673796519
10
-274.62566342134903
20
89.28191342134896
10
-276.21183657865106
20
90.868086578650988
42
0.19891236737965801
10
-277.31492315730213
20
91.325000000000003
10
-289.3266670372019
20
91.32499999999996
42
-0.30288766705170211
10
-290.76691320024747
20
92.2855911330049
42
0.6669631606402503
10
-295.38308679975262
20
92.2855911330049
42
-0.30288766705170972
10
-296.82333296279825
20
91.32499999999996
10
-308.83507684269807
20
91.32499999999996
42
0.19891236737966214
10
-309.93816342134903
20
90.868086578650988
10
-311.52433657865112
20
89.28191342134896
42
-0.1989123673796534
10
-312.62742315730208
20
88.824999999999989
10
-330.15000000000009
20
88.82499999999996
42
0.41421356237310281
10
-331.15000000000009
20
87.824999999999974
10
-331.15000000000009
20
67.824999999999136
42
0.41421356237309337
10
-329.65000000000009
20
66.324999999999136
10
-46.950000000000003
20
66.324999999999136
42
0.41421356237309337
10
-45.45000000000001
20
67.824999999999136
10
-45.450000000000017
20
87.825000000000003
42
0.41421356237316265
10
-46.449999999999889
20
88.82499999999996
10
-63.972576842697961
20
88.825000000000003
42
-0.1989123673796796
10
-65.075663421349148
20
89.281913421349003
10
-66.661836578650977
20
90.868086578651031
42
0.19891236737970161
10
-67.764923157302022
20
91.325000000000003
10
-79.776667037201818
20
91.324999999999989
42
-0.30288766705172404
10
-81.21691320024749
20
92.285591133004942
42
0.66696316064026284
10
-85.833086799752635
20
92.285591133004928
42
-0.30288766705171544
10
-87.273332962798236
20
91.32499999999996
10
-99.285076842698004
20
91.325000000000003
42
0.19891236737966009
10
-100.38816342134901
20
90.868086578651031
10
-101.97433657865108
20
89.28191342134896
42
-0.19891236737964896
10
-103.07742315730206
20
88.825000000000003
10
-121.12257684269804
20
88.825000000000017
42
-0.19891236737963774
10
-122.22566342134904
20
89.281913421349017
10
-123.81183657865111
20
90.868086578651031
42
0.19891236737966214
10
-124.9149231573021
20
91.325000000000003
10
-136.92666703720187
20
91.325000000000003
42
-0.30288766705172504
10
-138.36691320024752
20
92.285591133004928
42
0.66696316064025363
10
-142.98308679975264
20
92.285591133004928
42
-0.3028876670517241
10
-144.42333296279827
20
91.325000000000003
0
LWPOLYLINE
5
136
100
AcDbEntity
8
0
100
AcDbPolyline
90
46
70
1
43
0.0
10
-320.74132684269807
20
-12.87500000000005
10
-308.72958296279825
20
-12.875000000000089
42
-0.30288766705170089
10
-307.28933679975268
20
-13.835591133004987
42
0.66696316064025218
10
-302.67316320024753
20
-13.83559113300497
42
-0.30288766705169085
10
-301.23291703720184
20
-12.875000000000041
10
-289.22117315730208
20
-12.875000000000036
42
0.19891236737965723
10
-288.11808657865106
20
-12.418086578651026
10
-286.53191342134897
20
-10.83191342134899
42
-0.19891236737966214
10
-285.42882684269796
20
-10.375000000000011
10
-264.90867315730208
20
-10.375
42
-0.19891236737964366
10
-263.80558657865106
20
-10.831913421348984
10
-262.15712261731153
20
-12.480377382688612
42
-0.15369373461254868
10
-261.72414359357299
20
-13.311246281613061
42
0.91593410678591736
10
-256.7625000000001
20
-12.875000000000041
10
-256.76250000000005
20
-12.074999999998926
42
-0.41421356237310675
10
-255.76250000000002
20
-11.07499999999896
10
-120.83750000000002
20
-11.075000000001491
42
-0.41421356237307294
10
-119.83750000000001
20
-12.075000000001491
10
-119.83750000000001
20
-12.875000000000023
42
0.91593410678591858
10
-114.8758564064272
20
-13.311246281613043
42
-0.15369373461253991
10
-114.44287738268866
20
-12.480377382688545
10
-112.79441342134905
20
-10.831913421348979
42
-0.19891236737964463
10
-111.69132684269805
20
-10.374999999999988
10
-91.17117315730205
20
-10.37499999999997
42
-0.19891236737965312
10
-90.068086578651076
20
-10.831913421348954
10
-88.481913421348992
20
-12.418086578651026
42
0.19891236737967929
10
-87.378826842698061
20
-12.874999999999975
10
-75.367082962798236
20
-12.875000000000085
42
-0.30288766705166192
10
-73.926836799752778
20
-13.835591133004911
42
0.6669631606402755
10
-69.310663200247475
20
-13.835591133004908
42
-0.30288766705169351
10
-67.870417037201989
20
-12.875000000000028
10
-55.85867315730205
20
-12.875000000000011
42
0.19891236737960763
10
-54.75558657865129
20
-12.418086578651103
10
-53.169413421349105
20
-10.831913421349011
42
-0.19891236737965648
10
-52.066326842698061
20
-10.375000000000018
10
-46.450000000000031
20
-10.375000000000005
42
0.41421356237314577
10
-45.450000000000017
20
-9.3749999999999911
10
-45.450000000000017
20
9.6249999999999787
42
0.41421356237309009
10
-46.950000000000003
20
11.124999999999979
10
-329.65000000000009
20
11.124999999999979
42
0.41421356237309137
10
-331.15000000000009
20
9.6249999999999787
10
-331.15000000000009
20
-9.3750000000000266
42
0.4142135623730937
10
-330.15000000000009
20
-10.375000000000041
10
-324.53367315730213
20
-10.375000000000068
42
-0.19891236737965556
10
-323.43058657865106
20
-10.83191342134905
10
-321.84441342134909
20
-12.418086578651053
42
0.19891236737965556
0
LWPOLYLINE
5
137
100
AcDbEntity
8
0
100
AcDbPolyline
90
10
70
1
43
0.0
10
-118.89962606293921
20
3.609878311050152
42
0.24469844322915402
10
-119.038476548852
20
3.1695008316233153
10
-117.95735852244874
20
-2.9618241763757158
42
0.36397023426629804
10
-117.46495464594264
20
-3.3750000875422037
10
-117.38450446153121
20
-3.3750000875422037
42
0.41421356237317047
10
-116.88450446153119
20
-2.8750000875422277
10
-116.88450446153119
20
4.124999912457783
42
0.41421356237304818
10
-117.38450446153121
20
4.6249999124577812
10
-117.67739768034474
20
4.6249999124577901
42
0.19891236737958612
10
-118.03095107093803
20
4.4785533030511182
0
LWPOLYLINE
5
138
100
AcDbEntity
8
0
100
AcDbPolyline
90
8
70
1
43
0.0
10
-123.21779675677043
20
4.6249999124578034
10
-123.30283361314241
20
4.6249999124577856
42
0.41421356237303519
10
-123.80283361314241
20
4.1249999124577785
10
-123.80283361314241
20
-2.8750000875422321
42
0.41421356237308204
10
-123.30283361314241
20
-3.3750000875422881
10
-121.90529675677048
20
-3.3750000875422437
42
0.4696034901166351
10
-121.41386066330334
20
-2.7828558200171072
10
-122.72636066330321
20
4.2171441799829035
42
0.3609113025725586
0
LWPOLYLINE
5
139
100
AcDbEntity
8
0
100
AcDbPolyline
90
4
70
1
43
0.0
10
-124.10283361314121
20
-2.8753696320108579
10
-124.10283361314075
20
4.1249998895231865
42
0.99999967259810951
10
-125.1028336131516
20
4.1250002626247273
10
-125.10283361314237
20
-2.8750000875421966
42
0.99963052381289841
0
LWPOLYLINE
5
140
100
AcDbEntity
8
0
100
AcDbPolyline
90
10
70
1
43
0.0
10
-119.72997955222489
20
4.2118240012912178
42
0.36397023426623826
10
-120.22238342873098
20
4.624999912457799
10
-120.3028336131424
20
4.6249999124577856
42
0.41421356237301699
10
-120.80283361314241
20
4.1249999124577785
10
-120.80283361314241
20
-2.8750000875422321
42
0.4142135623730378
10
-120.3028336131424
20
-3.3750000875422126
10
-120.00994039432868
20
-3.3750000875422437
42
0.19891236737937185
10
-119.6563870037356
20
-3.2285534781357894
10
-118.78771201173504
20
-2.3598784861366529
42
0.24469844322931891
10
-118.64886152582199
20
-1.919501006709643
0
LWPOLYLINE
5
141
100
AcDbEntity
8
0
100
AcDbPolyline
90
8
70
1
43
0.0
10
-94.524999999999977
20
-6.3749999999999796
42
0.41421356237303519
10
-94.02499999999992
20
-5.8749999999999769
10
-94.024999999999963
20
7.125000000000048
42
0.41421356237313667
10
-94.524999999999977
20
7.6250000000000551
10
-96.337499999999949
20
7.6250000000000373
42
0.41421356237313017
10
-96.837499999999963
20
7.125000000000048
10
-96.837499999999963
20
-5.8749999999999769
42
0.41421356237304818
10
-96.337499999999949
20
-6.3749999999999796
0
LWPOLYLINE
5
142
100
AcDbEntity
8
0
100
AcDbPolyline
90
8
70
1
43
0.0
10
-73.024999999999949
20
7.1250000000000524
10
-73.024999999999949
20
-5.8749999999999725
42
0.41421356237304302
10
-72.524999999999977
20
-6.3749999999999973
10
-70.712499999999991
20
-6.3749999999999751
42
0.41421356237284268
10
-70.212499999999949
20
-5.8749999999999725
10
-70.212499999999949
20
7.1250000000000524
42
0.41421356237313928
10
-70.712499999999991
20
7.625000000000024
10
-72.524999999999977
20
7.6250000000000417
42
0.41421356237307944
0
LWPOLYLINE
5
143
100
AcDbEntity
8
0
100
AcDbPolyline
90
8
70
1
43
0.0
10
-50.712499999999991
20
-5.8749999999999369
42
0.41421356237297535
10
-50.212499999999949
20
-6.3750000000000595
10
-48.405016792911582
20
-6.3749999999999307
42
0.41439977879678108
10
-47.905016893953203
20
-5.8746821296324514
10
-47.913281525176785
20
7.1253178703675175
42
0.41402737046630661
10
-48.413281424135235
20
7.6250000000000799
10
-50.212500000000091
20
7.6250000000000622
42
0.41421356237305862
10
-50.712499999999991
20
7.1250000000000675
0
LWPOLYLINE
5
144
100
AcDbEntity
8
0
100
AcDbPolyline
90
4
70
1
43
0.0
10
-259.71533361314243
20
-2.8750000875443815
42
0.99963052381289841
10
-258.7153336131413
20
-2.8753696320129984
10
-258.71533361314073
20
4.1249998895210016
42
0.99999967259810951
10
-259.71533361315164
20
4.1250002627074034
0
LWPOLYLINE
5
145
100
AcDbEntity
8
0
100
AcDbPolyline
90
10
70
1
43
0.0
10
-253.40021201173505
20
-2.3598784861388022
42
0.24469844322927936
10
-253.261361525822
20
-1.9195010067117924
10
-254.34247955222489
20
4.2118240012890684
42
0.36397023426620767
10
-254.83488342873099
20
4.6249999124556318
10
-254.91533361314239
20
4.6249999124556274
42
0.41421356237304563
10
-255.41533361314237
20
4.1249999124556025
10
-255.41533361314242
20
-2.8750000875443815
42
0.41421356237305079
10
-254.91533361314239
20
-3.3750000875443842
10
-254.62244039432863
20
-3.3750000875444197
42
0.19891236737938492
10
-254.26888700373567
20
-3.2285534781379566
0
LWPOLYLINE
5
146
100
AcDbEntity
8
0
100
AcDbPolyline
90
8
70
1
43
0.0
10
-279.76250000000005
20
-5.8750000000000346
42
-0.414213562373069
10
-280.26250000000005
20
-6.3750000000000329
10
-282.07500000000005
20
-6.3750000000000018
42
-0.41421356237302998
10
-282.57500000000005
20
-5.8750000000000346
10
-282.57500000000005
20
7.1249999999999725
42
-0.41421356237309631
10
-282.07500000000005
20
7.6249999999999822
10
-280.26250000000005
20
7.6249999999999796
42
-0.41421356237307944
10
-279.76250000000005
20
7.1249999999999725
0
LWPOLYLINE
5
147
100
AcDbEntity
8
0
100
AcDbPolyline
90
8
70
1
43
0.0
10
-328.19498320708846
20
-6.3750000000000062
10
-326.3875000000001
20
-6.3750000000000329
42
0.41421356237306384
10
-325.88750000000005
20
-5.8750000000000391
10
-325.88750000000005
20
7.124999999999968
42
0.41421356237308982
10
-326.3875000000001
20
7.6249999999999751
10
-328.18671857586486
20
7.6249999999999911
42
0.41402737046639371
10
-328.68671847482335
20
7.125317870367434
10
-328.69498310604689
20
-5.8746821296325358
42
0.41439977879659368
0
LWPOLYLINE
5
148
100
AcDbEntity
8
0
100
AcDbPolyline
90
10
70
1
43
0.0
10
-252.56985852244873
20
-2.9618241763779007
42
0.36397023426621222
10
-252.07745464594265
20
-3.3750000875443842
10
-251.99700446153113
20
-3.3750000875443842
42
0.41421356237308721
10
-251.49700446153119
20
-2.8750000875443815
10
-251.49700446153116
20
4.1249999124556025
42
0.41421356237307161
10
-251.99700446153116
20
4.6249999124556407
10
-252.28989768034481
20
4.6249999124556274
42
0.19891236737949816
10
-252.64345107093803
20
4.4785533030489644
10
-253.51212606293922
20
3.6098783110479848
42
0.24469844322905784
10
-253.65097654885204
20
3.1695008316211659
0
LWPOLYLINE
5
149
100
AcDbEntity
8
0
100
AcDbPolyline
90
8
70
1
43
0.0
10
-257.33886066330331
20
4.2171441799807052
42
0.36091130257264298
10
-257.83029675677051
20
4.6249999124556185
10
-257.91533361314242
20
4.6249999124556274
42
0.41421356237309243
10
-258.41533361314242
20
4.1249999124556025
10
-258.41533361314242
20
-2.8750000875443815
42
0.4142135623730222
10
-257.91533361314242
20
-3.3750000875444197
10
-256.51779675677051
20
-3.3750000875444197
42
0.46960349011668479
10
-256.02636066330331
20
-2.7828558200192877
0
LWPOLYLINE
5
150
100
AcDbEntity
8
0
100
AcDbPolyline
90
8
70
1
43
0.0
10
-304.07500000000005
20
-6.3750000000000329
42
0.41421356237304302
10
-303.5750000000001
20
-5.8750000000000213
10
-303.5750000000001
20
7.1249999999999698
42
0.41421356237311063
10
-304.07500000000005
20
7.6249999999999591
10
-305.8875000000001
20
7.6249999999999769
42
0.41421356237309631
10
-306.3875000000001
20
7.1249999999999698
10
-306.3875000000001
20
-5.8750000000000391
42
0.41421356237302481
10
-305.88750000000005
20
-6.3750000000000329
0
LINE
5
151
100
AcDbEntity
8
0
100
AcDbLine
10
-79.913000000000039
20
67.825000000000003
30
0
11
-78.800689843069676
21
67.825000000000003
31
0
0
ENDSEC
0
SECTION
2
OBJECTS
0
DICTIONARY
5
C
100
AcDbDictionary
3
ACAD_GROUP
350
D
3
ACAD_MLINESTYLE
350
17
0
DICTIONARY
5
D
100
AcDbDictionary
0
DICTIONARY
5
1A
330
C
100
AcDbDictionary
0
DICTIONARY
5
17
100
AcDbDictionary
0
ENDSEC
0
EOF
