999
dxfrw 0.6.3
  0
SECTION
  2
HEADER
  9
$ACADVER
  1
AC1021
  9
$DWGCODEPAGE
  3
ANSI_1252
  9
$INSBASE
 10
0
 20
0
 30
0
  9
$EXTMIN
 10
-345.725
 20
-67.47499999999998
 30
0
  9
$EXTMAX
 10
-60.02499999999999
 20
41.72500000000003
 30
0
  9
$LIMMIN
 10
0
 20
0
  9
$LIMMAX
 10
420
 20
297
  9
$ORTHOMODE
 70
    0
  9
$REGENMODE
 70
    1
  9
$FILLMODE
 70
    1
  9
$QTEXTMODE
 70
    0
  9
$MIRRTEXT
 70
    0
  9
$LTSCALE
 40
1
  9
$ATTMODE
 70
    0
  9
$TEXTSIZE
 40
2.5
  9
$TRACEWID
 40
15.68
  9
$TEXTSTYLE
  7
STANDARD
  9
$CLAYER
  8
0
  9
$CELTYPE
  6
BYLAYER
  9
$CECOLOR
 62
  256
  9
$CELTSCALE
 40
1
  9
$DISPSILH
 70
    0
  9
$DIMSCALE
 40
2.5
  9
$DIMASZ
 40
2.5
  9
$DIMEXO
 40
0.625
  9
$DIMDLI
 40
3.75
  9
$DIMRND
 40
0
  9
$DIMDLE
 40
0
  9
$DIMEXE
 40
1.25
  9
$DIMTP
 40
0
  9
$DIMTM
 40
0
  9
$DIMTXT
 40
2.5
  9
$DIMCEN
 40
2.5
  9
$DIMTSZ
 40
0
  9
$DIMTOL
 70
    0
  9
$DIMLIM
 70
    0
  9
$DIMTIH
 70
    0
  9
$DIMTOH
 70
    0
  9
$DIMSE1
 70
    0
  9
$DIMSE2
 70
    0
  9
$DIMTAD
 70
    1
  9
$DIMZIN
 70
    8
  9
$DIMBLK
  1

  9
$DIMASO
 70
    1
  9
$DIMSHO
 70
    1
  9
$DIMPOST
  1

  9
$DIMAPOST
  1

  9
$DIMALT
 70
    0
  9
$DIMALTD
 70
    3
  9
$DIMALTF
 40
0.03937
  9
$DIMLFAC
 40
1
  9
$DIMTOFL
 70
    1
  9
$DIMTVP
 40
0
  9
$DIMTIX
 70
    0
  9
$DIMSOXD
 70
    0
  9
$DIMSAH
 70
    0
  9
$DIMBLK1
  1

  9
$DIMBLK2
  1

  9
$DIMSTYLE
  2
Standard
  9
$DIMCLRD
 70
    0
  9
$DIMCLRE
 70
    0
  9
$DIMCLRT
 70
    0
  9
$DIMTFAC
 40
1
  9
$DIMGAP
 40
0.625
  9
$DIMJUST
 70
    0
  9
$DIMSD1
 70
    0
  9
$DIMSD2
 70
    0
  9
$DIMTOLJ
 70
    0
  9
$DIMTZIN
 70
    8
  9
$DIMALTZ
 70
    0
  9
$DIMALTTZ
 70
    0
  9
$DIMUPT
 70
    0
  9
$DIMDEC
 70
    2
  9
$DIMTDEC
 70
    2
  9
$DIMALTU
 70
    2
  9
$DIMALTTD
 70
    3
  9
$DIMTXSTY
  7
STANDARD
  9
$DIMAUNIT
 70
    0
  9
$DIMADEC
 70
    0
  9
$DIMALTRND
 40
0
  9
$DIMAZIN
 70
    0
  9
$DIMDSEP
 70
   44
  9
$DIMATFIT
 70
    3
  9
$DIMFRAC
 70
    0
  9
$DIMLDRBLK
  1
STANDARD
  9
$DIMLUNIT
 70
    2
  9
$DIMLWD
 70
   -2
  9
$DIMLWE
 70
   -2
  9
$DIMTMOVE
 70
    0
  9
$DIMFXL
 40
1
  9
$DIMFXLON
 70
    0
  9
$DIMJOGANG
 40
0.7854
  9
$DIMTFILL
 70
    0
  9
$DIMTFILLCLR
 70
    0
  9
$DIMARCSYM
 70
    0
  9
$DIMLTYPE
  6

  9
$DIMLTEX1
  6

  9
$DIMLTEX2
  6

  9
$LUNITS
 70
    2
  9
$LUPREC
 70
    4
  9
$SKETCHINC
 40
1
  9
$FILLETRAD
 40
0
  9
$AUNITS
 70
    0
  9
$AUPREC
 70
    2
  9
$MENU
  1
.
  9
$ELEVATION
 40
0
  9
$PELEVATION
 40
0
  9
$THICKNESS
 40
0
  9
$LIMCHECK
 70
    0
  9
$CHAMFERA
 40
0
  9
$CHAMFERB
 40
0
  9
$CHAMFERC
 40
0
  9
$CHAMFERD
 40
0
  9
$SKPOLY
 70
    0
  9
$USRTIMER
 70
    1
  9
$ANGBASE
 50
0
  9
$ANGDIR
 70
    0
  9
$PDMODE
 70
   34
  9
$PDSIZE
 40
0
  9
$PLINEWID
 40
0
  9
$SPLFRAME
 70
    0
  9
$SPLINETYPE
 70
    2
  9
$SPLINESEGS
 70
    8
  9
$HANDSEED
  5
20000
  9
$SURFTAB1
 70
    6
  9
$SURFTAB2
 70
    6
  9
$SURFTYPE
 70
    6
  9
$SURFU
 70
    6
  9
$SURFV
 70
    6
  9
$UCSBASE
  2

  9
$UCSNAME
  2

  9
$UCSORG
 10
0
 20
0
 30
0
  9
$UCSXDIR
 10
1
 20
0
 30
0
  9
$UCSYDIR
 10
0
 20
1
 30
0
  9
$UCSORTHOREF
  2

  9
$UCSORTHOVIEW
 70
    0
  9
$UCSORGTOP
 10
0
 20
0
 30
0
  9
$UCSORGBOTTOM
 10
0
 20
0
 30
0
  9
$UCSORGLEFT
 10
0
 20
0
 30
0
  9
$UCSORGRIGHT
 10
0
 20
0
 30
0
  9
$UCSORGFRONT
 10
0
 20
0
 30
0
  9
$UCSORGBACK
 10
0
 20
0
 30
0
  9
$PUCSBASE
  2

  9
$PUCSNAME
  2

  9
$PUCSORG
 10
0
 20
0
 30
0
  9
$PUCSXDIR
 10
1
 20
0
 30
0
  9
$PUCSYDIR
 10
0
 20
1
 30
0
  9
$PUCSORTHOREF
  2

  9
$PUCSORTHOVIEW
 70
    0
  9
$PUCSORGTOP
 10
0
 20
0
 30
0
  9
$PUCSORGBOTTOM
 10
0
 20
0
 30
0
  9
$PUCSORGLEFT
 10
0
 20
0
 30
0
  9
$PUCSORGRIGHT
 10
0
 20
0
 30
0
  9
$PUCSORGFRONT
 10
0
 20
0
 30
0
  9
$PUCSORGBACK
 10
0
 20
0
 30
0
  9
$USERI1
 70
    0
  9
$USERI2
 70
    0
  9
$USERI3
 70
    0
  9
$USERI4
 70
    0
  9
$USERI5
 70
    0
  9
$USERR1
 40
0
  9
$USERR2
 40
0
  9
$USERR3
 40
0
  9
$USERR4
 40
0
  9
$USERR5
 40
0
  9
$WORLDVIEW
 70
    1
  9
$SHADEDGE
 70
    3
  9
$SHADEDIF
 70
   70
  9
$TILEMODE
 70
    1
  9
$MAXACTVP
 70
   64
  9
$PINSBASE
 10
0
 20
0
 30
0
  9
$PLIMCHECK
 70
    0
  9
$PEXTMIN
 10
0
 20
0
 30
0
  9
$PEXTMAX
 10
0
 20
0
 30
0
  9
$SNAPSTYLE
 70
    0
  9
$PLIMMIN
 10
0
 20
0
  9
$PLIMMAX
 10
210
 20
297
  9
$UNITMODE
 70
    0
  9
$VISRETAIN
 70
    1
  9
$PLINEGEN
 70
    0
  9
$PSLTSCALE
 70
    1
  9
$TREEDEPTH
 70
 3020
  9
$CMLSTYLE
  2
Standard
  9
$CMLJUST
 70
    0
  9
$CMLSCALE
 40
20
  9
$PROXYGRAPHICS
 70
    1
  9
$MEASUREMENT
 70
    1
  9
$CELWEIGHT
370
   -1
  9
$ENDCAPS
280
    0
  9
$JOINSTYLE
280
    0
  9
$LWDISPLAY
290
    0
  9
$INSUNITS
 70
    4
  9
$HYPERLINKBASE
  1

  9
$STYLESHEET
  1

  9
$XEDIT
290
    1
  9
$CEPSNTYPE
380
    0
  9
$PSTYLEMODE
290
    1
  9
$EXTNAMES
290
    1
  9
$PSVPSCALE
 40
1
  9
$OLESTARTUP
290
    0
  9
$SORTENTS
280
  127
  9
$INDEXCTL
280
    0
  9
$HIDETEXT
280
    1
  9
$XCLIPFRAME
290
    0
  9
$HALOGAP
280
    0
  9
$OBSCOLOR
 70
  257
  9
$OBSLTYPE
280
    0
  9
$INTERSECTIONDISPLAY
280
    0
  9
$INTERSECTIONCOLOR
 70
  257
  9
$DIMASSOC
280
    1
  9
$PROJECTNAME
  1

  9
$CAMERADISPLAY
290
    0
  9
$LENSLENGTH
 40
50
  9
$CAMERAHEIGHT
 40
0
  9
$STEPSPERSEC
 40
2
  9
$STEPSIZE
 40
50
  9
$3DDWFPREC
 40
2
  9
$PSOLWIDTH
 40
5
  9
$PSOLHEIGHT
 40
80
  9
$LOFTANG1
 40
1.570796326794897
  9
$LOFTANG2
 40
1.570796326794897
  9
$LOFTMAG1
 40
0
  9
$LOFTMAG2
 40
0
  9
$LOFTPARAM
 70
    7
  9
$LOFTNORMALS
280
    1
  9
$LATITUDE
 40
1
  9
$LONGITUDE
 40
1
  9
$NORTHDIRECTION
 40
0
  9
$TIMEZONE
 70
-8000
  9
$LIGHTGLYPHDISPLAY
280
    1
  9
$TILEMODELIGHTSYNCH
280
    1
  9
$SOLIDHIST
280
    1
  9
$SHOWHIST
280
    1
  9
$DWFFRAME
280
    2
  9
$DGNFRAME
280
    0
  9
$REALWORLDSCALE
290
    1
  9
$INTERFERECOLOR
 62
    1
  9
$CSHADOW
280
    0
  9
$SHADOWPLANELOCATION
 40
0
  0
ENDSEC
  0
SECTION
  2
CLASSES
  0
ENDSEC
  0
SECTION
  2
TABLES
  0
TABLE
  2
VPORT
  5
8
330
0
100
AcDbSymbolTable
 70
    1
  0
VPORT
  5
31
330
2
100
AcDbSymbolTableRecord
100
AcDbViewportTableRecord
  2
*ACTIVE
 70
    0
 10
0
 20
0
 11
1
 21
1
 12
-21.00000000000005
 22
33.87500000000009
 13
0
 23
0
 14
10
 24
10
 15
10
 25
10
 16
0
 26
0
 36
1
 17
0
 27
0
 37
0
 40
182.0000000000005
 41
1.842032967032967
 42
50
 43
0
 44
0
 50
0
 51
0
 71
    0
 72
  100
 73
    1
 74
    3
 75
    0
 76
    1
 77
    0
 78
    0
281
    0
 65
    1
110
0
120
0
130
0
111
1
121
0
131
0
112
0
122
1
132
0
 79
    0
146
0
348
10020
 60
    7
 61
    5
292
1
282
    1
141
0
142
0
 63
  250
421
3358443
  0
ENDTAB
  0
TABLE
  2
LTYPE
  5
5
330
0
100
AcDbSymbolTable
 70
    4
  0
LTYPE
  5
14
330
5
100
AcDbSymbolTableRecord
100
AcDbLinetypeTableRecord
  2
ByBlock
 70
    0
  3

 72
   65
 73
    0
 40
0
  0
LTYPE
  5
15
330
5
100
AcDbSymbolTableRecord
100
AcDbLinetypeTableRecord
  2
ByLayer
 70
    0
  3

 72
   65
 73
    0
 40
0
  0
LTYPE
  5
16
330
5
100
AcDbSymbolTableRecord
100
AcDbLinetypeTableRecord
  2
Continuous
 70
    0
  3
Solid line
 72
   65
 73
    0
 40
0
  0
LTYPE
  5
32
330
5
100
AcDbSymbolTableRecord
100
AcDbLinetypeTableRecord
  2
DOT
 70
    0
  3
Dot . . . . . . . . . . . . . . . . . . . . . .
 72
   65
 73
    2
 40
6.35
 49
0
 74
    0
 49
-6.35
 74
    0
  0
LTYPE
  5
33
330
5
100
AcDbSymbolTableRecord
100
AcDbLinetypeTableRecord
  2
DOTTINY
 70
    0
  3
Dot (.15x) .....................................
 72
   65
 73
    2
 40
0.9525
 49
0
 74
    0
 49
-0.9525
 74
    0
  0
LTYPE
  5
34
330
5
100
AcDbSymbolTableRecord
100
AcDbLinetypeTableRecord
  2
DOT2
 70
    0
  3
Dot (.5x) .....................................
 72
   65
 73
    2
 40
3.175
 49
0
 74
    0
 49
-3.175
 74
    0
  0
LTYPE
  5
35
330
5
100
AcDbSymbolTableRecord
100
AcDbLinetypeTableRecord
  2
DOTX2
 70
    0
  3
Dot (2x) .  .  .  .  .  .  .  .  .  .  .  .  .
 72
   65
 73
    2
 40
12.7
 49
0
 74
    0
 49
-12.7
 74
    0
  0
LTYPE
  5
36
330
5
100
AcDbSymbolTableRecord
100
AcDbLinetypeTableRecord
  2
DASHED
 70
    0
  3
Dashed _ _ _ _ _ _ _ _ _ _ _ _ _ _ _ _ _
 72
   65
 73
    2
 40
19.05
 49
12.7
 74
    0
 49
-6.35
 74
    0
  0
LTYPE
  5
37
330
5
100
AcDbSymbolTableRecord
100
AcDbLinetypeTableRecord
  2
DASHEDTINY
 70
    0
  3
Dashed (.15x) _ _ _ _ _ _ _ _ _ _ _ _ _ _ _ _ _
 72
   65
 73
    2
 40
2.8575
 49
1.905
 74
    0
 49
-0.9525
 74
    0
  0
LTYPE
  5
38
330
5
100
AcDbSymbolTableRecord
100
AcDbLinetypeTableRecord
  2
DASHED2
 70
    0
  3
Dashed (.5x) _ _ _ _ _ _ _ _ _ _ _ _ _ _ _ _ _
 72
   65
 73
    2
 40
9.524999999999999
 49
6.35
 74
    0
 49
-3.175
 74
    0
  0
LTYPE
  5
39
330
5
100
AcDbSymbolTableRecord
100
AcDbLinetypeTableRecord
  2
DASHEDX2
 70
    0
  3
Dashed (2x) ____  ____  ____  ____  ____  ___
 72
   65
 73
    2
 40
38.09999999999999
 49
25.4
 74
    0
 49
-12.7
 74
    0
  0
LTYPE
  5
3A
330
5
100
AcDbSymbolTableRecord
100
AcDbLinetypeTableRecord
  2
DASHDOT
 70
    0
  3
Dash dot __ . __ . __ . __ . __ . __ . __ . __
 72
   65
 73
    4
 40
25.4
 49
12.7
 74
    0
 49
-6.35
 74
    0
 49
0
 74
    0
 49
-6.35
 74
    0
  0
LTYPE
  5
3B
330
5
100
AcDbSymbolTableRecord
100
AcDbLinetypeTableRecord
  2
DASHDOTTINY
 70
    0
  3
Dash dot (.15x) _._._._._._._._._._._._._._._.
 72
   65
 73
    4
 40
3.81
 49
1.905
 74
    0
 49
-0.9525
 74
    0
 49
0
 74
    0
 49
-0.9525
 74
    0
  0
LTYPE
  5
3C
330
5
100
AcDbSymbolTableRecord
100
AcDbLinetypeTableRecord
  2
DASHDOT2
 70
    0
  3
Dash dot (.5x) _._._._._._._._._._._._._._._.
 72
   65
 73
    4
 40
12.7
 49
6.35
 74
    0
 49
-3.175
 74
    0
 49
0
 74
    0
 49
-3.175
 74
    0
  0
LTYPE
  5
3D
330
5
100
AcDbSymbolTableRecord
100
AcDbLinetypeTableRecord
  2
DASHDOTX2
 70
    0
  3
Dash dot (2x) ____  .  ____  .  ____  .  ___
 72
   65
 73
    4
 40
50.8
 49
25.4
 74
    0
 49
-12.7
 74
    0
 49
0
 74
    0
 49
-12.7
 74
    0
  0
LTYPE
  5
3E
330
5
100
AcDbSymbolTableRecord
100
AcDbLinetypeTableRecord
  2
DIVIDE
 70
    0
  3
Divide ____ . . ____ . . ____ . . ____ . . ____
 72
   65
 73
    6
 40
31.75
 49
12.7
 74
    0
 49
-6.35
 74
    0
 49
0
 74
    0
 49
-6.35
 74
    0
 49
0
 74
    0
 49
-6.35
 74
    0
  0
LTYPE
  5
3F
330
5
100
AcDbSymbolTableRecord
100
AcDbLinetypeTableRecord
  2
DIVIDETINY
 70
    0
  3
Divide (.15x) __..__..__..__..__..__..__..__.._
 72
   65
 73
    6
 40
4.7625
 49
1.905
 74
    0
 49
-0.9525
 74
    0
 49
0
 74
    0
 49
-0.9525
 74
    0
 49
0
 74
    0
 49
-0.9525
 74
    0
  0
LTYPE
  5
40
330
5
100
AcDbSymbolTableRecord
100
AcDbLinetypeTableRecord
  2
DIVIDE2
 70
    0
  3
Divide (.5x) __..__..__..__..__..__..__..__.._
 72
   65
 73
    6
 40
15.875
 49
6.35
 74
    0
 49
-3.175
 74
    0
 49
0
 74
    0
 49
-3.175
 74
    0
 49
0
 74
    0
 49
-3.175
 74
    0
  0
LTYPE
  5
41
330
5
100
AcDbSymbolTableRecord
100
AcDbLinetypeTableRecord
  2
DIVIDEX2
 70
    0
  3
Divide (2x) ________  .  .  ________  .  .  _
 72
   65
 73
    6
 40
63.5
 49
25.4
 74
    0
 49
-12.7
 74
    0
 49
0
 74
    0
 49
-12.7
 74
    0
 49
0
 74
    0
 49
-12.7
 74
    0
  0
LTYPE
  5
42
330
5
100
AcDbSymbolTableRecord
100
AcDbLinetypeTableRecord
  2
BORDER
 70
    0
  3
Border __ __ . __ __ . __ __ . __ __ . __ __ .
 72
   65
 73
    6
 40
44.45
 49
12.7
 74
    0
 49
-6.35
 74
    0
 49
12.7
 74
    0
 49
-6.35
 74
    0
 49
0
 74
    0
 49
-6.35
 74
    0
  0
LTYPE
  5
43
330
5
100
AcDbSymbolTableRecord
100
AcDbLinetypeTableRecord
  2
BORDERTINY
 70
    0
  3
Border (.15x) __.__.__.__.__.__.__.__.__.__.__.
 72
   65
 73
    6
 40
6.6675
 49
1.905
 74
    0
 49
-0.9525
 74
    0
 49
1.905
 74
    0
 49
-0.9525
 74
    0
 49
0
 74
    0
 49
-0.9525
 74
    0
  0
LTYPE
  5
44
330
5
100
AcDbSymbolTableRecord
100
AcDbLinetypeTableRecord
  2
BORDER2
 70
    0
  3
Border (.5x) __.__.__.__.__.__.__.__.__.__.__.
 72
   65
 73
    6
 40
22.225
 49
6.35
 74
    0
 49
-3.175
 74
    0
 49
6.35
 74
    0
 49
-3.175
 74
    0
 49
0
 74
    0
 49
-3.175
 74
    0
  0
LTYPE
  5
45
330
5
100
AcDbSymbolTableRecord
100
AcDbLinetypeTableRecord
  2
BORDERX2
 70
    0
  3
Border (2x) ____  ____  .  ____  ____  .  ___
 72
   65
 73
    6
 40
88.89999999999999
 49
25.4
 74
    0
 49
-12.7
 74
    0
 49
25.4
 74
    0
 49
-12.7
 74
    0
 49
0
 74
    0
 49
-12.7
 74
    0
  0
LTYPE
  5
46
330
5
100
AcDbSymbolTableRecord
100
AcDbLinetypeTableRecord
  2
CENTER
 70
    0
  3
Center ____ _ ____ _ ____ _ ____ _ ____ _ ____
 72
   65
 73
    4
 40
50.8
 49
31.75
 74
    0
 49
-6.35
 74
    0
 49
6.35
 74
    0
 49
-6.35
 74
    0
  0
LTYPE
  5
47
330
5
100
AcDbSymbolTableRecord
100
AcDbLinetypeTableRecord
  2
CENTERTINY
 70
    0
  3
Center (.15x) ___ _ ___ _ ___ _ ___ _ ___ _ ___
 72
   65
 73
    4
 40
7.619999999999999
 49
4.7625
 74
    0
 49
-0.9525
 74
    0
 49
0.9525
 74
    0
 49
-0.9525
 74
    0
  0
LTYPE
  5
48
330
5
100
AcDbSymbolTableRecord
100
AcDbLinetypeTableRecord
  2
CENTER2
 70
    0
  3
Center (.5x) ___ _ ___ _ ___ _ ___ _ ___ _ ___
 72
   65
 73
    4
 40
28.575
 49
19.05
 74
    0
 49
-3.175
 74
    0
 49
3.175
 74
    0
 49
-3.175
 74
    0
  0
LTYPE
  5
49
330
5
100
AcDbSymbolTableRecord
100
AcDbLinetypeTableRecord
  2
CENTERX2
 70
    0
  3
Center (2x) ________  __  ________  __  _____
 72
   65
 73
    4
 40
101.6
 49
63.5
 74
    0
 49
-12.7
 74
    0
 49
12.7
 74
    0
 49
-12.7
 74
    0
  0
ENDTAB
  0
TABLE
  2
LAYER
  5
2
330
0
100
AcDbSymbolTable
 70
    1
  0
LAYER
  5
10
330
2
100
AcDbSymbolTableRecord
100
AcDbLayerTableRecord
  2
0
 70
    0
 62
    7
  6
CONTINUOUS
370
   -3
390
F
  0
LAYER
  5
4A
330
2
100
AcDbSymbolTableRecord
100
AcDbLayerTableRecord
  2
1
 70
    0
 62
    7
  6
DASHED
370
   -3
390
F
  0
ENDTAB
  0
TABLE
  2
STYLE
  5
3
330
0
100
AcDbSymbolTable
 70
    3
  0
STYLE
  5
4B
330
2
100
AcDbSymbolTableRecord
100
AcDbTextStyleTableRecord
  2
Standard
 70
    0
 40
0
 41
1
 50
0
 71
    0
 42
1
  3
txt
  4

  0
ENDTAB
  0
TABLE
  2
VIEW
  5
6
330
0
100
AcDbSymbolTable
 70
    0
  0
ENDTAB
  0
TABLE
  2
UCS
  5
7
330
0
100
AcDbSymbolTable
 70
    0
  0
ENDTAB
  0
TABLE
  2
APPID
  5
9
330
0
100
AcDbSymbolTable
 70
    1
  0
APPID
  5
12
330
9
100
AcDbSymbolTableRecord
100
AcDbRegAppTableRecord
  2
ACAD
 70
    0
  0
APPID
  5
4C
330
9
100
AcDbSymbolTableRecord
100
AcDbRegAppTableRecord
  2
LibreCad
 70
    0
  0
ENDTAB
  0
TABLE
  2
DIMSTYLE
  5
A
330
0
100
AcDbSymbolTable
 70
    1
100
AcDbDimStyleTable
 71
    1
  0
DIMSTYLE
105
4D
330
A
100
AcDbSymbolTableRecord
100
AcDbDimStyleTableRecord
  2
Standard
 70
    0
 40
1
 41
2.5
 42
0.625
 43
0.38
 44
1.25
 45
0
 46
0
 47
0
 48
0
 49
1
140
2.5
141
0.09
142
2.5
143
25.4
144
1
145
0
146
1
147
0.625
148
0
 71
    0
 72
    0
 73
    0
 74
    1
 75
    0
 76
    0
 77
    0
 78
    1
 79
    0
170
    0
171
    2
172
    0
173
    0
174
    0
175
    0
176
    0
177
    0
178
    0
179
    0
271
    2
272
    4
273
    2
274
    2
275
    0
276
    0
277
    2
278
    0
279
    0
280
    0
281
    0
282
    0
283
    1
284
    0
285
    0
286
    0
288
    0
289
    3
340
standard
341

371
   -2
372
   -2
  0
ENDTAB
  0
TABLE
  2
BLOCK_RECORD
  5
1
330
0
100
AcDbSymbolTable
 70
    2
  0
BLOCK_RECORD
  5
1F
330
1
100
AcDbSymbolTableRecord
100
AcDbBlockTableRecord
  2
*Model_Space
 70
    0
280
    1
281
    0
  0
BLOCK_RECORD
  5
1E
330
1
100
AcDbSymbolTableRecord
100
AcDbBlockTableRecord
  2
*Paper_Space
 70
    0
280
    1
281
    0
  0
ENDTAB
  0
ENDSEC
  0
SECTION
  2
BLOCKS
  0
BLOCK
  5
20
330
1F
100
AcDbEntity
  8
0
100
AcDbBlockBegin
  2
*Model_Space
 70
    0
 10
0
 20
0
 30
0
  3
*Model_Space
  1

  0
ENDBLK
  5
21
330
1F
100
AcDbEntity
  8
0
100
AcDbBlockEnd
  0
BLOCK
  5
1C
330
1B
100
AcDbEntity
  8
0
100
AcDbBlockBegin
  2
*Paper_Space
 70
    0
 10
0
 20
0
 30
0
  3
*Paper_Space
  1

  0
ENDBLK
  5
1D
330
1F
100
AcDbEntity
  8
0
100
AcDbBlockEnd
  0
ENDSEC
  0
SECTION
  2
ENTITIES
  0
LWPOLYLINE
  5
4E
100
AcDbEntity
  8
0
  6
ByLayer
 62
  256
370
   -1
100
AcDbPolyline
 90
    8
 70
    1
 43
0
 10
-186.85
 20
-38.425
 42
0.4142135623729993
 10
-186.35
 20
-37.925
 10
-186.35
 20
-24.925
 42
0.4142135623730513
 10
-186.85
 20
-24.42499999999995
 10
-199.85
 20
-24.42499999999999
 42
0.4142135623730992
 10
-200.35
 20
-24.925
 10
-200.35
 20
-37.925
 42
0.4142135623731075
 10
-199.85
 20
-38.42500000000003
  0
LWPOLYLINE
  5
4F
100
AcDbEntity
  8
0
  6
ByLayer
 62
  256
370
   -1
100
AcDbPolyline
 90
    8
 70
    1
 43
0
 10
-277.3375
 20
-0.3249999999999975
 42
0.4142135623730157
 10
-276.8375
 20
0.1750000000000005
 10
-276.8375
 20
13.17499999999999
 42
0.4142135623731054
 10
-277.3375
 20
13.67499999999997
 10
-290.3375
 20
13.67499999999999
 42
0.4142135623730857
 10
-290.8375
 20
13.17499999999999
 10
-290.8375
 20
0.1750000000000008
 42
0.4142135623731585
 10
-290.3375
 20
-0.3250000000000158
  0
LWPOLYLINE
  5
50
100
AcDbEntity
  8
0
  6
ByLayer
 62
  256
370
   -1
100
AcDbPolyline
 90
   40
 70
    1
 43
0
 10
-311.262
 20
-39.97500000000001
 42
0.4142135623731075
 10
-311.762
 20
-39.47499999999998
 10
-317.7620000000001
 20
-39.47500000000001
 42
0.414213562372991
 10
-318.262
 20
-39.97500000000001
 10
-318.262
 20
-42.975
 42
-0.4142135623730951
 10
-318.762
 20
-43.475
 10
-334.638
 20
-43.47500000000012
 42
-0.4142135623730992
 10
-335.1380000000001
 20
-42.97499999999999
 10
-335.138
 20
-39.975
 42
0.4142135623729993
 10
-335.638
 20
-39.47500000000004
 10
-341.6379999999999
 20
-39.475
 42
0.4142135623730326
 10
-342.1379999999999
 20
-39.975
 10
-342.138
 20
-42.97500000000002
 42
-0.4142135623730825
 10
-342.638
 20
-43.475
 10
-342.7250000000001
 20
-43.475
 42
0.4142135623730118
 10
-343.225
 20
-43.975
 10
-343.225
 20
-56.97499999999999
 42
0.4142135623729868
 10
-342.7250000000001
 20
-57.47499999999996
 10
-342.5765401631197
 20
-57.47499999999995
 42
-0.3785635907267248
 10
-342.1379999999999
 20
-57.97120831154935
 10
-342.1379999999999
 20
-59.97500000000001
 42
0.4142135623728911
 10
-341.6379999999999
 20
-60.47500000000012
 10
-335.638
 20
-60.475
 42
0.4142135623730992
 10
-335.138
 20
-59.97500000000001
 10
-335.138
 20
-57.975
 42
-0.4142135623730909
 10
-334.638
 20
-57.47500000000001
 10
-318.7619999999999
 20
-57.47499999999999
 42
-0.4142135623731034
 10
-318.2619999999999
 20
-57.97500000000001
 10
-318.262
 20
-59.97500000000001
 42
0.4142135623730534
 10
-317.7620000000001
 20
-60.47500000000001
 10
-311.762
 20
-60.47500000000001
 42
0.4142135623729618
 10
-311.2620000000001
 20
-59.97500000000001
 10
-311.262
 20
-57.975
 42
-0.4142135623730909
 10
-310.762
 20
-57.47500000000001
 10
-310.675
 20
-57.47500000000001
 42
0.4142135623731117
 10
-310.1749999999999
 20
-56.97499999999999
 10
-310.175
 20
-43.975
 42
0.414213562373145
 10
-310.675
 20
-43.47500000000004
 10
-310.762
 20
-43.47500000000002
 42
-0.4142135623730992
 10
-311.262
 20
-42.975
  0
LWPOLYLINE
  5
51
100
AcDbEntity
  8
0
  6
ByLayer
 62
  256
370
   -1
100
AcDbPolyline
 90
    8
 70
    1
 43
0
 10
-65.40625
 20
-19.375
 42
0.4142135623730805
 10
-64.90625000000003
 20
-18.875
 10
-64.90625
 20
-5.874999999999995
 42
0.4142135623731132
 10
-65.40625
 20
-5.374999999999997
 10
-83.16874999999999
 20
-5.374999999999996
 42
0.4142135623730909
 10
-83.66875000000005
 20
-5.874999999999995
 10
-83.66875
 20
-18.875
 42
0.414213562373093
 10
-83.16874999999999
 20
-19.37500000000001
  0
CIRCLE
  5
52
100
AcDbEntity
  8
0
  6
ByLayer
 62
  256
370
   -1
100
AcDbCircle
 10
-319.55625
 20
39.22500000000002
 40
1.499999999999986
  0
LWPOLYLINE
  5
53
100
AcDbEntity
  8
0
  6
ByLayer
 62
  256
370
   -1
100
AcDbPolyline
 90
    8
 70
    1
 43
0
 10
-172.5625
 20
-19.375
 42
0.4142135623729993
 10
-172.0625
 20
-18.875
 10
-172.0625
 20
-5.874999999999995
 42
0.414213562373108
 10
-172.5625
 20
-5.37499999999997
 10
-185.5625
 20
-5.374999999999996
 42
0.4142135623729993
 10
-186.0625
 20
-5.874999999999995
 10
-186.0625
 20
-18.875
 42
0.414213562373043
 10
-185.5625
 20
-19.37500000000004
  0
LWPOLYLINE
  5
54
100
AcDbEntity
  8
0
  6
ByLayer
 62
  256
370
   -1
100
AcDbPolyline
 90
    8
 70
    1
 43
0
 10
-134.4625
 20
-19.375
 42
0.4142135623730825
 10
-133.9625
 20
-18.875
 10
-133.9625000000001
 20
-5.874999999999995
 42
0.4142135623730904
 10
-134.4625
 20
-5.374999999999995
 10
-147.4625
 20
-5.374999999999996
 42
0.4142135623730977
 10
-147.9625
 20
-5.874999999999995
 10
-147.9625
 20
-18.875
 42
0.4142135623730992
 10
-147.4625
 20
-19.375
  0
LWPOLYLINE
  5
55
100
AcDbEntity
  8
0
  6
ByLayer
 62
  256
370
   -1
100
AcDbPolyline
 90
    8
 70
    1
 43
0
 10
-167.8
 20
-38.425
 42
0.4142135623729993
 10
-167.3
 20
-37.925
 10
-167.3
 20
-24.925
 42
0.4142135623731096
 10
-167.8
 20
-24.42499999999997
 10
-180.8
 20
-24.42499999999999
 42
0.4142135623730992
 10
-181.3
 20
-24.925
 10
-181.3
 20
-37.925
 42
0.4142135623730618
 10
-180.8
 20
-38.42500000000004
  0
CIRCLE
  5
56
100
AcDbEntity
  8
0
  6
ByLayer
 62
  256
370
   -1
100
AcDbCircle
 10
-250.5
 20
-64.97500000000004
 40
1.499999999999986
  0
LWPOLYLINE
  5
57
100
AcDbEntity
  8
0
  6
ByLayer
 62
  256
370
   -1
100
AcDbPolyline
 90
   12
 70
    1
 43
0
 10
-248.9114093390959
 20
-61.57810734463272
 42
0.2222771122371803
 10
-252.0885906609041
 20
-61.57810734463282
 42
-0.1097986970403526
 10
-252.7494443758402
 20
-61.72500000000002
 10
-264.90625
 20
-61.72500000000003
 42
0.9999999999999999
 10
-264.90625
 20
-63.22500000000002
 10
-252.8510635891016
 20
-63.22500000000002
 42
0.1556385956651158
 10
-251.947699254373
 20
-62.93682266009853
 42
-0.319004557544335
 10
-249.052300745627
 20
-62.93682266009852
 42
0.1556385956651438
 10
-248.1489364108984
 20
-63.22499999999992
 10
-236.09375
 20
-63.22500000000001
 42
0.9999999999999999
 10
-236.09375
 20
-61.72500000000001
 10
-248.2505556241597
 20
-61.72499999999996
 42
-0.1097986970403744
  0
LWPOLYLINE
  5
58
100
AcDbEntity
  8
0
  6
ByLayer
 62
  256
370
   -1
100
AcDbPolyline
 90
    8
 70
    1
 43
0
 10
-101.125
 20
-57.47500000000001
 42
0.4142135623731034
 10
-100.625
 20
-56.97499999999999
 10
-100.625
 20
-43.975
 42
0.4142135623730992
 10
-101.125
 20
-43.47499999999999
 10
-114.125
 20
-43.475
 42
0.4142135623730951
 10
-114.625
 20
-43.975
 10
-114.625
 20
-56.97499999999999
 42
0.4142135623731283
 10
-114.125
 20
-57.47499999999997
  0
CIRCLE
  5
59
100
AcDbEntity
  8
0
  6
ByLayer
 62
  256
370
   -1
100
AcDbCircle
 10
-307.65
 20
-64.97500000000001
 40
1.499999999999986
  0
LWPOLYLINE
  5
5A
100
AcDbEntity
  8
0
  6
ByLayer
 62
  256
370
   -1
100
AcDbPolyline
 90
    8
 70
    1
 43
0
 10
-105.8875
 20
-0.3249999999999975
 42
0.4142135623730758
 10
-105.3875
 20
0.1750000000000008
 10
-105.3875
 20
13.17499999999999
 42
0.414213562373094
 10
-105.8875
 20
13.675
 10
-118.8875
 20
13.67499999999999
 42
0.4142135623731138
 10
-119.3875000000001
 20
13.17499999999999
 10
-119.3875
 20
0.175000000000001
 42
0.4142135623731505
 10
-118.8875
 20
-0.3249999999999774
  0
CIRCLE
  5
5B
100
AcDbEntity
  8
0
  6
ByLayer
 62
  256
370
   -1
100
AcDbCircle
 10
-86.19374999999999
 20
39.22499999999999
 40
1.500000000000004
  0
LWPOLYLINE
  5
5C
100
AcDbEntity
  8
0
  6
ByLayer
 62
  256
370
   -1
100
AcDbPolyline
 90
    8
 70
    1
 43
0
 10
-196.375
 20
-57.47500000000001
 42
0.4142135623730867
 10
-195.875
 20
-56.97499999999999
 10
-195.875
 20
-43.975
 42
0.4142135623730659
 10
-196.375
 20
-43.47499999999995
 10
-209.375
 20
-43.47500000000001
 42
0.4142135623729993
 10
-209.875
 20
-43.975
 10
-209.875
 20
-56.97499999999999
 42
0.4142135623731491
 10
-209.375
 20
-57.47499999999997
  0
LWPOLYLINE
  5
5D
100
AcDbEntity
  8
0
  6
ByLayer
 62
  256
370
   -1
100
AcDbPolyline
 90
   12
 70
    1
 43
0
 10
-306.0614093390959
 20
-61.57810734463273
 42
0.2222771122371799
 10
-309.2385906609041
 20
-61.57810734463276
 42
-0.1097986970403688
 10
-309.8994443758403
 20
-61.72500000000003
 10
-322.05625
 20
-61.72500000000003
 42
0.9999999999999999
 10
-322.05625
 20
-63.22500000000002
 10
-310.0010635891017
 20
-63.22500000000002
 42
0.1556385956651465
 10
-309.097699254373
 20
-62.93682266009853
 42
-0.3190045575443392
 10
-306.202300745627
 20
-62.9368226600985
 42
0.1556385956651374
 10
-305.2989364108984
 20
-63.22499999999994
 10
-293.24375
 20
-63.22500000000001
 42
0.9999999999999999
 10
-293.24375
 20
-61.72500000000001
 10
-305.4005556241598
 20
-61.72499999999992
 42
-0.1097986970403533
  0
LWPOLYLINE
  5
5E
100
AcDbEntity
  8
0
  6
ByLayer
 62
  256
370
   -1
100
AcDbPolyline
 90
    8
 70
    1
 43
0
 10
-91.59999999999999
 20
-38.425
 42
0.4142135623731325
 10
-91.09999999999999
 20
-37.925
 10
-91.09999999999999
 20
-24.925
 42
0.414213562373093
 10
-91.59999999999999
 20
-24.425
 10
-104.6
 20
-24.425
 42
0.4142135623730659
 10
-105.1
 20
-24.925
 10
-105.1
 20
-37.925
 42
0.4142135623731159
 10
-104.6
 20
-38.42500000000003
  0
LWPOLYLINE
  5
5F
100
AcDbEntity
  8
0
  6
ByLayer
 62
  256
370
   -1
100
AcDbPolyline
 90
    8
 70
    1
 43
0
 10
-82.07499999999999
 20
-57.47500000000001
 42
0.4142135623731034
 10
-81.57499999999999
 20
-56.97499999999999
 10
-81.57499999999999
 20
-43.975
 42
0.4142135623731533
 10
-82.07499999999999
 20
-43.47500000000002
 10
-95.075
 20
-43.475
 42
0.4142135623730951
 10
-95.57500000000003
 20
-43.975
 10
-95.57500000000003
 20
-56.97499999999999
 42
0.4142135623731075
 10
-95.075
 20
-57.47500000000001
  0
LWPOLYLINE
  5
60
100
AcDbEntity
  8
0
  6
ByLayer
 62
  256
370
   -1
100
AcDbPolyline
 90
    8
 70
    1
 43
0
 10
-182.0875
 20
-0.3249999999999975
 42
0.4142135623729907
 10
-181.5875
 20
0.1750000000000005
 10
-181.5875
 20
13.17499999999999
 42
0.41421356237312
 10
-182.0875
 20
13.67499999999998
 10
-195.0875
 20
13.67499999999999
 42
0.414213562372992
 10
-195.5875
 20
13.17499999999999
 10
-195.5875
 20
0.1750000000000009
 42
0.4142135623730524
 10
-195.0875
 20
-0.3250000000000425
  0
LWPOLYLINE
  5
61
100
AcDbEntity
  8
0
  6
ByLayer
 62
  256
370
   -1
100
AcDbPolyline
 90
   12
 70
    1
 43
0
 10
-169.65625
 20
-61.72500000000001
 42
0.9999999999999999
 10
-169.65625
 20
-63.22500000000001
 10
-157.6010635891017
 20
-63.22500000000002
 42
0.1556385956651606
 10
-156.697699254373
 20
-62.9368226600985
 42
-0.3190045575443267
 10
-153.802300745627
 20
-62.93682266009849
 42
0.1556385956651502
 10
-152.8989364108983
 20
-63.22499999999997
 10
-140.84375
 20
-63.22500000000002
 42
0.9999999999999999
 10
-140.84375
 20
-61.72500000000003
 10
-153.0005556241597
 20
-61.72499999999996
 42
-0.1097986970403629
 10
-153.6614093390958
 20
-61.57810734463275
 42
0.222277112237184
 10
-156.8385906609041
 20
-61.57810734463282
 42
-0.1097986970403571
 10
-157.4994443758402
 20
-61.72500000000002
  0
LWPOLYLINE
  5
62
100
AcDbEntity
  8
0
  6
ByLayer
 62
  256
370
   -1
100
AcDbPolyline
 90
    8
 70
    1
 43
0
 10
-267.8125
 20
-19.375
 42
0.4142135623730159
 10
-267.3125
 20
-18.875
 10
-267.3125
 20
-5.874999999999995
 42
0.4142135623730784
 10
-267.8125
 20
-5.375000000000019
 10
-280.8125
 20
-5.374999999999996
 42
0.4142135623730679
 10
-281.3125000000001
 20
-5.874999999999995
 10
-281.3125
 20
-18.875
 42
0.4142135623731595
 10
-280.8125
 20
-19.37500000000002
  0
LWPOLYLINE
  5
63
100
AcDbEntity
  8
0
  6
ByLayer
 62
  256
370
   -1
100
AcDbPolyline
 90
    8
 70
    1
 43
0
 10
-67.78749999999999
 20
-38.425
 42
0.4142135623730951
 10
-67.28749999999999
 20
-37.925
 10
-67.28749999999999
 20
-24.925
 42
0.4142135623730951
 10
-67.78749999999999
 20
-24.425
 10
-80.78749999999999
 20
-24.425
 42
0.414213562373093
 10
-81.28749999999999
 20
-24.925
 10
-81.28749999999999
 20
-37.925
 42
0.4142135623730951
 10
-80.78749999999999
 20
-38.425
  0
LWPOLYLINE
  5
64
100
AcDbEntity
  8
0
  6
ByLayer
 62
  256
370
   -1
100
AcDbPolyline
 90
    8
 70
    1
 43
0
 10
-282.1
 20
-38.425
 42
0.4142135623730159
 10
-281.6
 20
-37.925
 10
-281.6
 20
-24.925
 42
0.4142135623731096
 10
-282.1
 20
-24.42499999999997
 10
-295.1
 20
-24.425
 42
0.4142135623731533
 10
-295.6
 20
-24.925
 10
-295.6
 20
-37.925
 42
0.4142135623731616
 10
-295.1
 20
-38.42500000000002
  0
LWPOLYLINE
  5
65
100
AcDbEntity
  8
0
  6
ByLayer
 62
  256
370
   -1
100
AcDbPolyline
 90
    8
 70
    1
 43
0
 10
-148.75
 20
-38.425
 42
0.4142135623731325
 10
-148.25
 20
-37.925
 10
-148.25
 20
-24.925
 42
0.4142135623731491
 10
-148.75
 20
-24.42500000000001
 10
-161.75
 20
-24.425
 42
0.4142135623731533
 10
-162.25
 20
-24.925
 10
-162.25
 20
-37.925
 42
0.414213562373145
 10
-161.75
 20
-38.42500000000002
  0
LWPOLYLINE
  5
66
100
AcDbEntity
  8
0
  6
ByLayer
 62
  256
370
   -1
100
AcDbPolyline
 90
    8
 70
    1
 43
0
 10
-201.1375
 20
-0.3249999999999974
 42
0.4142135623730597
 10
-200.6375
 20
0.1750000000000009
 10
-200.6375
 20
13.17499999999999
 42
0.4142135623731419
 10
-201.1375
 20
13.67500000000001
 10
-214.1375
 20
13.67499999999999
 42
0.414213562372992
 10
-214.6375
 20
13.17499999999999
 10
-214.6375
 20
0.175000000000001
 42
0.4142135623730893
 10
-214.1375
 20
-0.3249999999999749
  0
LWPOLYLINE
  5
67
100
AcDbEntity
  8
0
  6
ByLayer
 62
  256
370
   -1
100
AcDbPolyline
 90
   12
 70
    1
 43
0
 10
-112.50625
 20
-61.72500000000001
 42
0.9999999999999999
 10
-112.50625
 20
-63.22500000000001
 10
-100.4510635891017
 20
-63.22500000000002
 42
0.1556385956651606
 10
-99.54769925437296
 20
-62.9368226600985
 42
-0.3190045575443257
 10
-96.65230074562703
 20
-62.93682266009852
 42
0.155638595665152
 10
-95.74893641089832
 20
-63.22499999999995
 10
-83.69374999999999
 20
-63.22500000000002
 42
0.9999999999999999
 10
-83.69374999999999
 20
-61.72500000000003
 10
-95.85055562415972
 20
-61.72499999999996
 42
-0.1097986970403627
 10
-96.51140933909582
 20
-61.57810734463275
 42
0.2222771122371842
 10
-99.68859066090414
 20
-61.57810734463282
 42
-0.1097986970403573
 10
-100.3494443758402
 20
-61.72500000000002
  0
LWPOLYLINE
  5
68
100
AcDbEntity
  8
0
  6
ByLayer
 62
  256
370
   -1
100
AcDbPolyline
 90
    8
 70
    1
 43
0
 10
-286.8625
 20
-19.375
 42
0.4142135623730159
 10
-286.3625
 20
-18.875
 10
-286.3625000000001
 20
-5.874999999999995
 42
0.4142135623730618
 10
-286.8625
 20
-5.375000000000019
 10
-299.8625
 20
-5.374999999999996
 42
0.4142135623731013
 10
-300.3625000000001
 20
-5.874999999999995
 10
-300.3625
 20
-18.875
 42
0.4142135623731595
 10
-299.8625
 20
-19.37500000000002
  0
LWPOLYLINE
  5
69
100
AcDbEntity
  8
0
  6
ByLayer
 62
  256
370
   -1
100
AcDbPolyline
 90
    8
 70
    1
 43
0
 10
-191.6125
 20
-19.375
 42
0.4142135623729993
 10
-191.1125
 20
-18.875
 10
-191.1125
 20
-5.874999999999995
 42
0.414213562373108
 10
-191.6125
 20
-5.37499999999997
 10
-204.6125
 20
-5.374999999999996
 42
0.4142135623729993
 10
-205.1125
 20
-5.874999999999995
 10
-205.1125
 20
-18.875
 42
0.414213562373043
 10
-204.6125
 20
-19.37500000000004
  0
LWPOLYLINE
  5
6A
100
AcDbEntity
  8
0
  6
ByLayer
 62
  256
370
   -1
100
AcDbPolyline
 90
    8
 70
    1
 43
0
 10
-177.325
 20
-57.47500000000001
 42
0.4142135623730867
 10
-176.825
 20
-56.97499999999999
 10
-176.825
 20
-43.975
 42
0.414213562373145
 10
-177.325
 20
-43.47500000000004
 10
-190.325
 20
-43.47500000000001
 42
0.4142135623729993
 10
-190.825
 20
-43.975
 10
-190.825
 20
-56.97499999999999
 42
0.4142135623731491
 10
-190.325
 20
-57.47499999999997
  0
LWPOLYLINE
  5
6B
100
AcDbEntity
  8
0
  6
ByLayer
 62
  256
370
   -1
100
AcDbPolyline
 90
    8
 70
    1
 43
0
 10
-205.9
 20
-38.425
 42
0.4142135623729993
 10
-205.4
 20
-37.925
 10
-205.4
 20
-24.925
 42
0.4142135623730513
 10
-205.9
 20
-24.42499999999995
 10
-218.9
 20
-24.42499999999999
 42
0.4142135623730992
 10
-219.4
 20
-24.925
 10
-219.4
 20
-37.925
 42
0.4142135623731075
 10
-218.9
 20
-38.42500000000003
  0
LWPOLYLINE
  5
6C
100
AcDbEntity
  8
0
  6
ByLayer
 62
  256
370
   -1
100
AcDbPolyline
 90
    8
 70
    1
 43
0
 10
-301.15
 20
-38.425
 42
0.4142135623730159
 10
-300.65
 20
-37.925
 10
-300.65
 20
-24.925
 42
0.4142135623731096
 10
-301.15
 20
-24.42499999999997
 10
-314.15
 20
-24.425
 42
0.4142135623731533
 10
-314.65
 20
-24.925
 10
-314.65
 20
-37.925
 42
0.4142135623731616
 10
-314.15
 20
-38.42500000000002
  0
LWPOLYLINE
  5
6D
100
AcDbEntity
  8
0
  6
ByLayer
 62
  256
370
   -1
100
AcDbPolyline
 90
    8
 70
    1
 43
0
 10
-158.275
 20
-57.47500000000001
 42
0.4142135623731034
 10
-157.775
 20
-56.97499999999999
 10
-157.775
 20
-43.975
 42
0.4142135623731491
 10
-158.275
 20
-43.47500000000002
 10
-171.275
 20
-43.47500000000001
 42
0.4142135623730659
 10
-171.7750000000001
 20
-43.975
 10
-171.775
 20
-56.97499999999999
 42
0.4142135623730825
 10
-171.275
 20
-57.47500000000002
  0
LWPOLYLINE
  5
6E
100
AcDbEntity
  8
0
  6
ByLayer
 62
  256
370
   -1
100
AcDbPolyline
 90
    8
 70
    1
 43
0
 10
-324.9625
 20
18.72499999999999
 42
0.4142135623730118
 10
-324.4625000000001
 20
19.22499999999999
 10
-324.4625
 20
32.225
 42
0.4142135623729285
 10
-324.9625
 20
32.72500000000012
 10
-337.9625
 20
32.72499999999999
 42
0.4142135623730243
 10
-338.4625
 20
32.225
 10
-338.4625
 20
19.22499999999999
 42
0.4142135623729993
 10
-337.9625
 20
18.72500000000003
  0
LWPOLYLINE
  5
6F
100
AcDbEntity
  8
0
  6
ByLayer
 62
  256
370
   -1
100
AcDbPolyline
 90
    8
 70
    1
 43
0
 10
-96.36250000000001
 20
-19.375
 42
0.4142135623731096
 10
-95.86249999999995
 20
-18.875
 10
-95.8625
 20
-5.874999999999995
 42
0.4142135623730924
 10
-96.36250000000001
 20
-5.374999999999988
 10
-109.3625
 20
-5.374999999999996
 42
0.4142135623730951
 10
-109.8625000000001
 20
-5.874999999999995
 10
-109.8625
 20
-18.875
 42
0.4142135623731533
 10
-109.3625
 20
-19.37499999999999
  0
LWPOLYLINE
  5
70
100
AcDbEntity
  8
0
  6
ByLayer
 62
  256
370
   -1
100
AcDbPolyline
 90
    8
 70
    1
 43
0
 10
-163.0375
 20
-0.3249999999999975
 42
0.4142135623729907
 10
-162.5375
 20
0.1750000000000005
 10
-162.5375
 20
13.17499999999999
 42
0.41421356237312
 10
-163.0375
 20
13.67499999999998
 10
-176.0375
 20
13.67499999999999
 42
0.414213562372992
 10
-176.5375
 20
13.17499999999999
 10
-176.5375
 20
0.1750000000000009
 42
0.4142135623730524
 10
-176.0375
 20
-0.3250000000000425
  0
LWPOLYLINE
  5
71
100
AcDbEntity
  8
0
  6
ByLayer
 62
  256
370
   -1
100
AcDbPolyline
 90
    8
 70
    1
 43
0
 10
-229.7125
 20
-19.375
 42
0.4142135623730784
 10
-229.2125
 20
-18.875
 10
-229.2125
 20
-5.874999999999995
 42
0.4142135623731424
 10
-229.7125
 20
-5.374999999999977
 10
-242.7125
 20
-5.374999999999996
 42
0.4142135623729993
 10
-243.2125
 20
-5.874999999999995
 10
-243.2125
 20
-18.875
 42
0.4142135623731283
 10
-242.7125
 20
-19.37499999999999
  0
LWPOLYLINE
  5
72
100
AcDbEntity
  8
0
  6
ByLayer
 62
  256
370
   -1
100
AcDbPolyline
 90
    8
 70
    1
 43
0
 10
-272.575
 20
-57.47500000000001
 42
0.4142135623731117
 10
-272.0749999999999
 20
-56.97499999999999
 10
-272.075
 20
-43.975
 42
0.414213562373145
 10
-272.575
 20
-43.47500000000004
 10
-285.575
 20
-43.47500000000001
 42
0.4142135623730992
 10
-286.0750000000001
 20
-43.975
 10
-286.075
 20
-56.97499999999999
 42
0.4142135623730992
 10
-285.575
 20
-57.47500000000002
  0
LWPOLYLINE
  5
73
100
AcDbEntity
  8
0
  6
ByLayer
 62
  256
370
   -1
100
AcDbPolyline
 90
    8
 70
    1
 43
0
 10
-220.1875
 20
-0.3249999999999974
 42
0.4142135623730597
 10
-219.6875
 20
0.1750000000000009
 10
-219.6875
 20
13.17499999999999
 42
0.4142135623731419
 10
-220.1875
 20
13.67500000000001
 10
-233.1875
 20
13.67499999999999
 42
0.414213562372992
 10
-233.6875
 20
13.17499999999999
 10
-233.6875
 20
0.1750000000000008
 42
0.4142135623730991
 10
-233.1875
 20
-0.3250000000000229
  0
LWPOLYLINE
  5
74
100
AcDbEntity
  8
0
  6
ByLayer
 62
  256
370
   -1
100
AcDbPolyline
 90
    8
 70
    1
 43
0
 10
-143.9875
 20
-0.3249999999999974
 42
0.4142135623730815
 10
-143.4875
 20
0.1750000000000007
 10
-143.4875
 20
13.17499999999999
 42
0.4142135623730971
 10
-143.9875
 20
13.67499999999997
 10
-156.9875
 20
13.67499999999999
 42
0.414213562373093
 10
-157.4875
 20
13.17499999999999
 10
-157.4875
 20
0.1750000000000008
 42
0.4142135623730964
 10
-156.9875
 20
-0.3250000000000053
  0
LWPOLYLINE
  5
75
100
AcDbEntity
  8
0
  6
ByLayer
 62
  256
370
   -1
100
AcDbPolyline
 90
   12
 70
    1
 43
0
 10
-305.15
 20
35.97499999999998
 10
-317.3068056241593
 20
35.975
 42
0.1097986970403772
 10
-317.9676593390956
 20
35.82810734463283
 42
-0.222277112237218
 10
-321.1448406609044
 20
35.82810734463283
 42
0.1097986970403814
 10
-321.8056943758407
 20
35.97500000000011
 10
-333.9625
 20
35.97499999999998
 42
-0.9999999999999999
 10
-333.9625
 20
37.47500000000001
 10
-321.9073135891016
 20
37.47499999999989
 42
-0.1556385956651712
 10
-321.003949254373
 20
37.18682266009854
 42
0.3190045575443335
 10
-318.108550745627
 20
37.18682266009856
 42
-0.1556385956651261
 10
-317.2051864108983
 20
37.47500000000002
 10
-305.15
 20
37.47500000000001
 42
-0.9999999999999999
  0
LWPOLYLINE
  5
76
100
AcDbEntity
  8
0
  6
ByLayer
 62
  256
370
   -1
100
AcDbPolyline
 90
    8
 70
    1
 43
0
 10
-63.02500000000001
 20
-57.47500000000001
 42
0.4142135623731117
 10
-62.52499999999999
 20
-56.97499999999999
 10
-62.52499999999999
 20
-43.975
 42
0.4142135623731117
 10
-63.02500000000001
 20
-43.47500000000002
 10
-76.02500000000001
 20
-43.475
 42
0.4142135623730951
 10
-76.52500000000001
 20
-43.975
 10
-76.52500000000001
 20
-56.97499999999999
 42
0.4142135623730951
 10
-76.02500000000001
 20
-57.47499999999999
  0
LWPOLYLINE
  5
77
100
AcDbEntity
  8
0
  6
ByLayer
 62
  256
370
   -1
100
AcDbPolyline
 90
    8
 70
    1
 43
0
 10
-291.625
 20
-57.47500000000001
 42
0.4142135623730951
 10
-291.125
 20
-56.97499999999999
 10
-291.125
 20
-43.975
 42
0.414213562373145
 10
-291.625
 20
-43.47500000000004
 10
-304.625
 20
-43.47500000000001
 42
0.4142135623730659
 10
-305.1250000000001
 20
-43.975
 10
-305.125
 20
-56.97499999999999
 42
0.4142135623730825
 10
-304.6250000000001
 20
-57.47500000000002
  0
LWPOLYLINE
  5
78
100
AcDbEntity
  8
0
  6
ByLayer
 62
  256
370
   -1
100
AcDbPolyline
 90
    8
 70
    1
 43
0
 10
-263.05
 20
-38.425
 42
0.4142135623731491
 10
-262.55
 20
-37.925
 10
-262.55
 20
-24.925
 42
0.4142135623731575
 10
-263.05
 20
-24.42499999999998
 10
-276.05
 20
-24.42499999999999
 42
0.4142135623731159
 10
-276.5500000000001
 20
-24.925
 10
-276.55
 20
-37.925
 42
0.4142135623730576
 10
-276.0500000000001
 20
-38.425
  0
LWPOLYLINE
  5
79
100
AcDbEntity
  8
0
  6
ByLayer
 62
  256
370
   -1
100
AcDbPolyline
 90
    8
 70
    1
 43
0
 10
-301.15
 20
18.72499999999999
 42
0.4142135623730159
 10
-300.65
 20
19.22499999999999
 10
-300.65
 20
32.225
 42
0.4142135623731117
 10
-301.15
 20
32.72500000000003
 10
-314.15
 20
32.72499999999999
 42
0.414213562373145
 10
-314.65
 20
32.225
 10
-314.65
 20
19.22499999999999
 42
0.4142135623731595
 10
-314.15
 20
18.72499999999997
  0
CIRCLE
  5
7A
100
AcDbEntity
  8
0
  6
ByLayer
 62
  256
370
   -1
100
AcDbCircle
 10
-131.9125
 20
39.22499999999999
 40
1.500000000000004
  0
LWPOLYLINE
  5
7B
100
AcDbEntity
  8
0
  6
ByLayer
 62
  256
370
   -1
100
AcDbPolyline
 90
    8
 70
    1
 43
0
 10
-244
 20
-38.425
 42
0.4142135623731408
 10
-243.5
 20
-37.925
 10
-243.5
 20
-24.925
 42
0.4142135623731491
 10
-244
 20
-24.42499999999998
 10
-257
 20
-24.42499999999999
 42
0.4142135623730825
 10
-257.5
 20
-24.925
 10
-257.5
 20
-37.925
 42
0.4142135623730409
 10
-257
 20
-38.425
  0
LWPOLYLINE
  5
7C
100
AcDbEntity
  8
0
  6
ByLayer
 62
  256
370
   -1
100
AcDbPolyline
 90
    8
 70
    1
 43
0
 10
-115.4125
 20
-19.375
 42
0.4142135623731096
 10
-114.9125
 20
-18.875
 10
-114.9125
 20
-5.874999999999995
 42
0.4142135623730924
 10
-115.4125
 20
-5.374999999999988
 10
-128.4125
 20
-5.374999999999996
 42
0.4142135623730628
 10
-128.9125
 20
-5.874999999999995
 10
-128.9125
 20
-18.875
 42
0.4142135623730825
 10
-128.4125
 20
-19.37500000000002
  0
LWPOLYLINE
  5
7D
100
AcDbEntity
  8
0
  6
ByLayer
 62
  256
370
   -1
100
AcDbPolyline
 90
    8
 70
    1
 43
0
 10
-239.2375
 20
-0.3249999999999974
 42
0.4142135623730597
 10
-238.7375
 20
0.1750000000000009
 10
-238.7375
 20
13.17499999999999
 42
0.4142135623731419
 10
-239.2375
 20
13.67500000000001
 10
-252.2375
 20
13.67499999999999
 42
0.414213562372992
 10
-252.7375
 20
13.17499999999999
 10
-252.7375
 20
0.1750000000000008
 42
0.4142135623730991
 10
-252.2375
 20
-0.3250000000000229
  0
CIRCLE
  5
7E
100
AcDbEntity
  8
0
  6
ByLayer
 62
  256
370
   -1
100
AcDbCircle
 10
-273.8375
 20
39.22499999999999
 40
1.499999999999986
  0
LWPOLYLINE
  5
7F
100
AcDbEntity
  8
0
  6
ByLayer
 62
  256
370
   -1
100
AcDbPolyline
 90
    8
 70
    1
 43
0
 10
-124.9375
 20
-0.3249999999999974
 42
0.4142135623730815
 10
-124.4375
 20
0.1750000000000007
 10
-124.4375
 20
13.17499999999999
 42
0.4142135623731023
 10
-124.9375
 20
13.67499999999999
 10
-137.9375
 20
13.67499999999999
 42
0.414213562373093
 10
-138.4375
 20
13.17499999999999
 10
-138.4375
 20
0.1750000000000008
 42
0.4142135623730964
 10
-137.9375
 20
-0.3250000000000053
  0
ARC
  5
80
100
AcDbEntity
  8
0
  6
ByLayer
 62
  256
370
   -1
100
AcDbCircle
 10
-72.49324999999997
 20
-3.824999999999986
 40
0.5000000000000249
100
AcDbArc
 50
180
 51
269.9999999999968
  0
LINE
  5
81
100
AcDbEntity
  8
0
  6
ByLayer
 62
  256
370
   -1
100
AcDbLine
 10
-72.99324999999999
 20
-3.825000000000003
 11
-72.99324999999999
 21
-0.8249999999999957
  0
ARC
  5
82
100
AcDbEntity
  8
0
  6
ByLayer
 62
  256
370
   -1
100
AcDbCircle
 10
-73.49325
 20
-0.8249999999999957
 40
0.5000000000000071
100
AcDbArc
 50
0
 51
90
  0
LINE
  5
83
100
AcDbEntity
  8
0
  6
ByLayer
 62
  256
370
   -1
100
AcDbLine
 10
-73.49325
 20
-0.3249999999999886
 11
-89.36925000000001
 21
-0.3249999999999975
  0
ARC
  5
84
100
AcDbEntity
  8
0
  6
ByLayer
 62
  256
370
   -1
100
AcDbCircle
 10
-89.36925000000001
 20
-0.8249999999999957
 40
0.4999999999999982
100
AcDbArc
 50
90
 51
180
  0
LINE
  5
85
100
AcDbEntity
  8
0
  6
ByLayer
 62
  256
370
   -1
100
AcDbLine
 10
-89.86924999999999
 20
-0.8249999999999957
 11
-89.86924999999999
 21
-3.825000000000003
  0
ARC
  5
86
100
AcDbEntity
  8
0
  6
ByLayer
 62
  256
370
   -1
100
AcDbCircle
 10
-90.36924999999999
 20
-3.825000000000002
 40
0.5000000000000082
100
AcDbArc
 50
270
 51
360
  0
LINE
  5
87
100
AcDbEntity
  8
0
  6
ByLayer
 62
  256
370
   -1
100
AcDbLine
 10
-90.36924999999999
 20
-4.32500000000001
 11
-96.36924999999999
 21
-4.325000000000018
  0
ARC
  5
88
100
AcDbEntity
  8
0
  6
ByLayer
 62
  256
370
   -1
100
AcDbCircle
 10
-96.36924999999994
 20
-3.82499999999997
 40
0.5000000000000604
100
AcDbArc
 50
180
 51
269.9999999999935
  0
LINE
  5
89
100
AcDbEntity
  8
0
  6
ByLayer
 62
  256
370
   -1
100
AcDbLine
 10
-96.86925000000001
 20
-3.825000000000003
 11
-96.86925000000001
 21
-0.3249999999999886
  0
LINE
  5
8A
100
AcDbEntity
  8
0
  6
ByLayer
 62
  256
370
   -1
100
AcDbLine
 10
-96.86924999999999
 20
13.675
 11
-96.86924999999997
 21
17.175
  0
ARC
  5
8B
100
AcDbEntity
  8
0
  6
ByLayer
 62
  256
370
   -1
100
AcDbCircle
 10
-96.36924999999999
 20
17.175
 40
0.4999999999999782
100
AcDbArc
 50
90
 51
180
  0
LINE
  5
8C
100
AcDbEntity
  8
0
  6
ByLayer
 62
  256
370
   -1
100
AcDbLine
 10
-96.36924999999999
 20
17.67499999999998
 11
-90.36924999999999
 21
17.67500000000001
  0
ARC
  5
8D
100
AcDbEntity
  8
0
  6
ByLayer
 62
  256
370
   -1
100
AcDbCircle
 10
-90.36924999999999
 20
17.175
 40
0.5000000000000071
100
AcDbArc
 50
0
 51
90
  0
LINE
  5
8E
100
AcDbEntity
  8
0
  6
ByLayer
 62
  256
370
   -1
100
AcDbLine
 10
-89.86924999999999
 20
17.175
 11
-89.86924999999999
 21
14.17499999999999
  0
ARC
  5
8F
100
AcDbEntity
  8
0
  6
ByLayer
 62
  256
370
   -1
100
AcDbCircle
 10
-89.36925000000001
 20
14.17499999999999
 40
0.4999999999999893
100
AcDbArc
 50
180
 51
270
  0
LINE
  5
90
100
AcDbEntity
  8
0
  6
ByLayer
 62
  256
370
   -1
100
AcDbLine
 10
-89.36925000000001
 20
13.675
 11
-73.49325
 21
13.67499999999999
  0
ARC
  5
91
100
AcDbEntity
  8
0
  6
ByLayer
 62
  256
370
   -1
100
AcDbCircle
 10
-73.49325
 20
14.17499999999999
 40
0.4999999999999982
100
AcDbArc
 50
-90
 51
0
  0
LINE
  5
92
100
AcDbEntity
  8
0
  6
ByLayer
 62
  256
370
   -1
100
AcDbLine
 10
-72.99325
 20
14.17499999999999
 11
-72.99324999999997
 21
17.175
  0
ARC
  5
93
100
AcDbEntity
  8
0
  6
ByLayer
 62
  256
370
   -1
100
AcDbCircle
 10
-72.49325
 20
17.175
 40
0.4999999999999782
100
AcDbArc
 50
90
 51
180
  0
LINE
  5
94
100
AcDbEntity
  8
0
  6
ByLayer
 62
  256
370
   -1
100
AcDbLine
 10
-72.49325
 20
17.67499999999998
 11
-66.49325
 21
17.67500000000003
  0
ARC
  5
95
100
AcDbEntity
  8
0
  6
ByLayer
 62
  256
370
   -1
100
AcDbCircle
 10
-66.49325000000002
 20
17.17500000000001
 40
0.500000000000016
100
AcDbArc
 50
0
 51
89.99999999999838
  0
LINE
  5
96
100
AcDbEntity
  8
0
  6
ByLayer
 62
  256
370
   -1
100
AcDbLine
 10
-65.99324999999999
 20
17.175
 11
-65.99324999999999
 21
13.675
  0
LINE
  5
97
100
AcDbEntity
  8
0
  6
ByLayer
 62
  256
370
   -1
100
AcDbLine
 10
-65.99325
 20
-0.3249999999999886
 11
-65.99325000000002
 21
-3.825000000000003
  0
ARC
  5
98
100
AcDbEntity
  8
0
  6
ByLayer
 62
  256
370
   -1
100
AcDbCircle
 10
-66.49325
 20
-3.825000000000021
 40
0.4999999999999893
100
AcDbArc
 50
-90
 51
0
  0
LINE
  5
99
100
AcDbEntity
  8
0
  6
ByLayer
 62
  256
370
   -1
100
AcDbLine
 10
-66.49325
 20
-4.32500000000001
 11
-72.49325
 21
-4.325000000000011
  0
LWPOLYLINE
  5
9A
100
AcDbEntity
  8
0
  6
ByLayer
 62
  256
370
   -1
100
AcDbPolyline
 90
   56
 70
    1
 43
0
 10
-209.8750000000001
 20
34.51357759714678
 10
-209.8750000000001
 20
33.22500000000006
 42
0.4142135623731325
 10
-209.375
 20
32.72500000000007
 10
-196.375
 20
32.72499999999999
 42
0.41421356237317
 10
-195.875
 20
33.22500000000006
 10
-195.875
 20
34.51357759714678
 42
-0.4142135623731221
 10
-194.875
 20
35.5135775971468
 10
-174.213
 20
35.51357759714678
 42
-0.4142135623730909
 10
-173.213
 20
34.51357759714674
 10
-173.213
 20
33.72500000000002
 42
0.4142135623730555
 10
-172.213
 20
32.72500000000002
 10
-157.337
 20
32.72499999999999
 42
0.4142135623730971
 10
-156.3370000000001
 20
33.72499999999999
 10
-156.337
 20
34.51357759714683
 42
-0.4142135623730992
 10
-155.3370000000001
 20
35.51357759714679
 10
-143.225
 20
35.51357759714679
 42
-0.414213562373093
 10
-142.225
 20
34.5135775971468
 10
-142.225
 20
15.22499999999999
 42
-0.4142135623730877
 10
-142.725
 20
14.72499999999999
 10
-155.337
 20
14.72499999999999
 42
-0.4142135623730934
 10
-156.337
 20
15.72499999999998
 10
-156.337
 20
17.72499999999999
 42
0.414213562373094
 10
-157.337
 20
18.72499999999998
 10
-172.213
 20
18.72499999999999
 42
0.4142135623730971
 10
-173.2130000000001
 20
17.72499999999999
 10
-173.213
 20
16.225
 42
-0.414213562373094
 10
-174.213
 20
15.225
 10
-194.8750000000001
 20
15.22500000000002
 42
-0.4142135623730576
 10
-195.8750000000001
 20
16.225
 10
-195.875
 20
17.72499999999999
 42
0.4142135623730721
 10
-196.875
 20
18.72499999999998
 10
-208.875
 20
18.72499999999999
 42
0.4142135623730648
 10
-209.875
 20
17.72499999999999
 10
-209.875
 20
16.225
 42
-0.4142135623730524
 10
-210.875
 20
15.225
 10
-231.537
 20
15.22499999999999
 42
-0.4142135623730992
 10
-232.5370000000001
 20
16.225
 10
-232.537
 20
17.72499999999999
 42
0.414213562373093
 10
-233.537
 20
18.72499999999999
 10
-248.413
 20
18.72499999999998
 42
0.4142135623730898
 10
-249.413
 20
17.72499999999999
 10
-249.413
 20
15.72499999999998
 42
-0.4142135623731034
 10
-250.413
 20
14.72499999999999
 10
-263.025
 20
14.72500000000001
 42
-0.4142135623731367
 10
-263.525
 20
15.22499999999999
 10
-263.5250000000001
 20
34.5135775971468
 42
-0.4142135623731054
 10
-262.525
 20
35.51357759714679
 10
-250.4129999999999
 20
35.51357759714678
 42
-0.4142135623730951
 10
-249.413
 20
34.51357759714683
 10
-249.413
 20
33.72499999999999
 42
0.4142135623730951
 10
-248.413
 20
32.72499999999995
 10
-233.5370000000001
 20
32.72500000000002
 42
0.4142135623730659
 10
-232.5370000000001
 20
33.72500000000002
 10
-232.5370000000001
 20
34.51357759714674
 42
-0.4142135623730909
 10
-231.537
 20
35.51357759714679
 10
-210.8750000000001
 20
35.51357759714679
 42
-0.4142135623730971
  0
LWPOLYLINE
  5
9B
100
AcDbEntity
  8
0
  6
ByLayer
 62
  256
370
   -1
100
AcDbPolyline
 90
    8
 70
    1
 43
0
 10
-67.78749999999999
 20
18.72499999999999
 42
0.4142135623730951
 10
-67.28749999999999
 20
19.22499999999999
 10
-67.28749999999999
 20
32.225
 42
0.4142135623730951
 10
-67.78749999999999
 20
32.725
 10
-80.78749999999999
 20
32.72499999999999
 42
0.4142135623731283
 10
-81.28749999999998
 20
32.225
 10
-81.28749999999999
 20
19.22499999999999
 42
0.4142135623730971
 10
-80.78749999999999
 20
18.72499999999998
  0
LWPOLYLINE
  5
9C
100
AcDbEntity
  8
0
  6
ByLayer
 62
  256
370
   -1
100
AcDbPolyline
 90
    8
 70
    1
 43
0
 10
-248.7625
 20
-19.375
 42
0.4142135623729993
 10
-248.2625
 20
-18.875
 10
-248.2625
 20
-5.874999999999995
 42
0.414213562373108
 10
-248.7625
 20
-5.37499999999997
 10
-261.7625
 20
-5.374999999999996
 42
0.4142135623731013
 10
-262.2625000000001
 20
-5.874999999999995
 10
-262.2625
 20
-18.875
 42
0.4142135623731595
 10
-261.7625
 20
-19.37500000000002
  0
LWPOLYLINE
  5
9D
100
AcDbEntity
  8
0
  6
ByLayer
 62
  256
370
   -1
100
AcDbPolyline
 90
    8
 70
    1
 43
0
 10
-258.2875
 20
-0.3249999999999975
 42
0.4142135623729993
 10
-257.7875
 20
0.1750000000000009
 10
-257.7875
 20
13.17499999999999
 42
0.4142135623730888
 10
-258.2875
 20
13.67499999999997
 10
-271.2875
 20
13.67499999999999
 42
0.4142135623730857
 10
-271.7875
 20
13.17499999999999
 10
-271.7875
 20
0.1750000000000008
 42
0.4142135623731585
 10
-271.2875
 20
-0.3250000000000158
  0
LWPOLYLINE
  5
9E
100
AcDbEntity
  8
0
  6
ByLayer
 62
  256
370
   -1
100
AcDbPolyline
 90
    8
 70
    1
 43
0
 10
-210.6625
 20
-19.375
 42
0.4142135623730784
 10
-210.1625
 20
-18.875
 10
-210.1625
 20
-5.874999999999995
 42
0.4142135623731424
 10
-210.6625
 20
-5.374999999999977
 10
-223.6625
 20
-5.374999999999996
 42
0.4142135623729993
 10
-224.1625
 20
-5.874999999999995
 10
-224.1625
 20
-18.875
 42
0.4142135623731283
 10
-223.6625
 20
-19.37499999999999
  0
LWPOLYLINE
  5
9F
100
AcDbEntity
  8
0
  6
ByLayer
 62
  256
370
   -1
100
AcDbPolyline
 90
    8
 70
    1
 43
0
 10
-153.5125
 20
-19.375
 42
0.414213562373093
 10
-153.0125
 20
-18.875
 10
-153.0125
 20
-5.874999999999995
 42
0.4142135623731543
 10
-153.5125
 20
-5.375000000000016
 10
-166.5125
 20
-5.374999999999996
 42
0.4142135623730763
 10
-167.0125
 20
-5.874999999999995
 10
-167.0125
 20
-18.875
 42
0.4142135623731429
 10
-166.5125
 20
-19.37500000000002
  0
LWPOLYLINE
  5
A0
100
AcDbEntity
  8
0
  6
ByLayer
 62
  256
370
   -1
100
AcDbPolyline
 90
    8
 70
    1
 43
0
 10
-277.3375
 20
18.72499999999999
 42
0.4142135623730159
 10
-276.8375
 20
19.22499999999999
 10
-276.8375
 20
32.225
 42
0.4142135623730618
 10
-277.3375
 20
32.72500000000002
 10
-290.3375
 20
32.72499999999999
 42
0.414213562373145
 10
-290.8375
 20
32.225
 10
-290.8375
 20
19.22499999999999
 42
0.4142135623731595
 10
-290.3375
 20
18.72499999999997
  0
LWPOLYLINE
  5
A1
100
AcDbEntity
  8
0
  6
ByLayer
 62
  256
370
   -1
100
AcDbPolyline
 90
    8
 70
    1
 43
0
 10
-115.4125
 20
18.72499999999999
 42
0.4142135623731096
 10
-114.9125
 20
19.22499999999999
 10
-114.9125
 20
32.225
 42
0.4142135623730909
 10
-115.4125
 20
32.725
 10
-128.4125
 20
32.72499999999999
 42
0.4142135623730784
 10
-128.9125
 20
32.225
 10
-128.9125
 20
19.22499999999999
 42
0.4142135623730825
 10
-128.4125
 20
18.72499999999997
  0
LWPOLYLINE
  5
A2
100
AcDbEntity
  8
0
  6
ByLayer
 62
  256
370
   -1
100
AcDbPolyline
 90
    8
 70
    1
 43
0
 10
-253.525
 20
-57.47500000000001
 42
0.4142135623731408
 10
-253.025
 20
-56.97499999999999
 10
-253.025
 20
-43.975
 42
0.4142135623731408
 10
-253.525
 20
-43.47499999999999
 10
-266.525
 20
-43.47500000000001
 42
0.4142135623729577
 10
-267.0249999999999
 20
-43.975
 10
-267.0249999999999
 20
-56.97499999999999
 42
0.4142135623730243
 10
-266.525
 20
-57.47500000000001
  0
LWPOLYLINE
  5
A3
100
AcDbEntity
  8
0
  6
ByLayer
 62
  256
370
   -1
100
AcDbPolyline
 90
   12
 70
    1
 43
0
 10
-87.78234066090414
 20
35.82810734463272
 42
0.2222771122371819
 10
-84.60515933909585
 20
35.82810734463279
 42
-0.10979869704036
 10
-83.94430562415974
 20
35.975
 10
-71.78749999999999
 20
35.97499999999999
 42
0.9999999999999999
 10
-71.78749999999999
 20
37.47499999999999
 10
-83.8426864108983
 20
37.47500000000001
 42
0.1556385956651461
 10
-84.74605074562703
 20
37.1868226600985
 42
-0.3190045575443276
 10
-87.64144925437296
 20
37.1868226600985
 42
0.1556385956651547
 10
-88.54481358910169
 20
37.47499999999997
 10
-100.6
 20
37.47499999999999
 42
0.9999999999999999
 10
-100.6
 20
35.97499999999999
 10
-88.44319437584022
 20
35.97499999999993
 42
-0.1097986970403611
  0
LWPOLYLINE
  5
A4
100
AcDbEntity
  8
0
  6
ByLayer
 62
  256
370
   -1
100
AcDbPolyline
 90
    8
 70
    1
 43
0
 10
-129.7
 20
-38.425
 42
0.4142135623730618
 10
-129.2
 20
-37.925
 10
-129.2
 20
-24.925
 42
0.4142135623730971
 10
-129.7
 20
-24.425
 10
-142.7
 20
-24.425
 42
0.4142135623730534
 10
-143.2
 20
-24.925
 10
-143.2
 20
-37.925
 42
0.4142135623730867
 10
-142.7
 20
-38.425
  0
CIRCLE
  5
A5
100
AcDbEntity
  8
0
  6
ByLayer
 62
  256
370
   -1
100
AcDbCircle
 10
-155.25
 20
-64.97499999999999
 40
1.500000000000004
  0
LWPOLYLINE
  5
A6
100
AcDbEntity
  8
0
  6
ByLayer
 62
  256
370
   -1
100
AcDbPolyline
 90
    8
 70
    1
 43
0
 10
-234.475
 20
-57.47500000000001
 42
0.4142135623731408
 10
-233.975
 20
-56.97499999999999
 10
-233.975
 20
-43.975
 42
0.4142135623731408
 10
-234.475
 20
-43.47499999999999
 10
-247.475
 20
-43.47500000000001
 42
0.4142135623730742
 10
-247.975
 20
-43.975
 10
-247.975
 20
-56.97499999999999
 42
0.4142135623730909
 10
-247.475
 20
-57.47500000000002
  0
LWPOLYLINE
  5
A7
100
AcDbEntity
  8
0
  6
ByLayer
 62
  256
370
   -1
100
AcDbPolyline
 90
    8
 70
    1
 43
0
 10
-120.175
 20
-57.47500000000001
 42
0.4142135623731034
 10
-119.675
 20
-56.97499999999999
 10
-119.675
 20
-43.975
 42
0.4142135623730909
 10
-120.175
 20
-43.475
 10
-133.175
 20
-43.475
 42
0.4142135623730992
 10
-133.675
 20
-43.975
 10
-133.675
 20
-56.97499999999999
 42
0.4142135623731117
 10
-133.175
 20
-57.47500000000001
  0
CIRCLE
  5
A8
100
AcDbEntity
  8
0
  6
ByLayer
 62
  256
370
   -1
100
AcDbCircle
 10
-98.10000000000001
 20
-64.97499999999999
 40
1.500000000000004
  0
LWPOLYLINE
  5
A9
100
AcDbEntity
  8
0
  6
ByLayer
 62
  256
370
   -1
100
AcDbPolyline
 90
    8
 70
    1
 43
0
 10
-139.225
 20
-57.47500000000001
 42
0.4142135623731034
 10
-138.725
 20
-56.97499999999999
 10
-138.725
 20
-43.975
 42
0.4142135623730992
 10
-139.225
 20
-43.47499999999999
 10
-152.225
 20
-43.475
 42
0.4142135623730992
 10
-152.7250000000001
 20
-43.975
 10
-152.725
 20
-56.97499999999999
 42
0.4142135623731408
 10
-152.225
 20
-57.47499999999997
  0
LWPOLYLINE
  5
AA
100
AcDbEntity
  8
0
  6
ByLayer
 62
  256
370
   -1
100
AcDbPolyline
 90
    8
 70
    1
 43
0
 10
-91.59999999999999
 20
18.72499999999999
 42
0.4142135623731096
 10
-91.09999999999997
 20
19.22499999999999
 10
-91.09999999999999
 20
32.225
 42
0.4142135623730951
 10
-91.59999999999999
 20
32.725
 10
-104.6
 20
32.72499999999999
 42
0.4142135623730992
 10
-105.1
 20
32.225
 10
-105.1
 20
19.22499999999999
 42
0.4142135623730971
 10
-104.6
 20
18.72499999999996
  0
LWPOLYLINE
  5
AB
100
AcDbEntity
  8
0
  6
ByLayer
 62
  256
370
   -1
100
AcDbPolyline
 90
    8
 70
    1
 43
0
 10
-215.425
 20
-57.47500000000001
 42
0.4142135623730867
 10
-214.925
 20
-56.97499999999999
 10
-214.925
 20
-43.975
 42
0.4142135623730659
 10
-215.425
 20
-43.47499999999995
 10
-228.425
 20
-43.47500000000001
 42
0.4142135623729993
 10
-228.925
 20
-43.975
 10
-228.925
 20
-56.97499999999999
 42
0.4142135623731491
 10
-228.425
 20
-57.47499999999997
  0
LWPOLYLINE
  5
AC
100
AcDbEntity
  8
0
  6
ByLayer
 62
  256
370
   -1
100
AcDbPolyline
 90
    8
 70
    1
 43
0
 10
-224.95
 20
-38.425
 42
0.4142135623731408
 10
-224.45
 20
-37.925
 10
-224.45
 20
-24.925
 42
0.4142135623731491
 10
-224.95
 20
-24.42499999999998
 10
-237.95
 20
-24.425
 42
0.4142135623731533
 10
-238.45
 20
-24.925
 10
-238.45
 20
-37.925
 42
0.414213562373145
 10
-237.95
 20
-38.42500000000002
  0
LWPOLYLINE
  5
AD
100
AcDbEntity
  8
0
  6
ByLayer
 62
  256
370
   -1
100
AcDbPolyline
 90
   94
 70
    1
 43
0
 10
-271.3375
 20
39.22500000000001
 42
0.9159341067859154
 10
-276.2991435935729
 20
39.66124628161303
 42
-0.1536937346125649
 10
-276.7321226173114
 20
38.83037738268855
 10
-278.380586578651
 20
37.18191342134897
 42
-0.1989123673796615
 10
-279.483673157302
 20
36.72499999999998
 10
-300.003826842698
 20
36.72499999999996
 42
-0.1989123673796605
 10
-301.106913421349
 20
37.18191342134893
 10
-302.693086578651
 20
38.76808657865102
 42
0.1989123673796538
 10
-303.796173157302
 20
39.22499999999997
 10
-315.8079170372018
 20
39.22500000000007
 42
-0.3028876670516778
 10
-317.2481632002473
 20
40.18559113300492
 42
0.6669631606402671
 10
-321.8643367997527
 20
40.18559113300491
 42
-0.3028876670516866
 10
-323.3045829627981
 20
39.225
 10
-335.316326842698
 20
39.225
 42
0.1989123673796346
 10
-336.4194134213489
 20
38.76808657865111
 10
-338.005586578651
 20
37.18191342134902
 42
-0.1989123673796562
 10
-339.108673157302
 20
36.72499999999999
 10
-344.725
 20
36.72499999999999
 42
0.4142135623731263
 10
-345.725
 20
35.72499999999999
 10
-345.725
 20
-61.47499999999999
 42
0.4142135623731138
 10
-344.7250000000001
 20
-62.47499999999997
 10
-327.2024231573021
 20
-62.475
 42
-0.1989123673796631
 10
-326.099336578651
 20
-62.93191342134902
 10
-324.513163421349
 20
-64.51808657865102
 42
0.1989123673796631
 10
-323.410076842698
 20
-64.97500000000002
 10
-311.3983329627982
 20
-64.97499999999999
 42
-0.3028876670517127
 10
-309.9580867997526
 20
-65.93559113300495
 42
0.666963160640253
 10
-305.3419132002475
 20
-65.93559113300493
 42
-0.3028876670517234
 10
-303.9016670372018
 20
-64.97500000000001
 10
-291.8899231573021
 20
-64.97500000000001
 42
0.1989123673796573
 10
-290.786836578651
 20
-64.51808657865102
 10
-289.200663421349
 20
-62.93191342134897
 42
-0.1989123673796597
 10
-288.097576842698
 20
-62.47499999999999
 10
-270.052423157302
 20
-62.47500000000003
 42
-0.198912367379658
 10
-268.949336578651
 20
-62.93191342134902
 10
-267.363163421349
 20
-64.51808657865101
 42
0.1989123673796564
 10
-266.260076842698
 20
-64.97499999999999
 10
-254.2483329627982
 20
-64.97500000000002
 42
-0.3028876670517158
 10
-252.8080867997526
 20
-65.93559113300495
 42
0.6669631606402587
 10
-248.1919132002474
 20
-65.93559113300495
 42
-0.3028876670517257
 10
-246.7516670372018
 20
-64.97500000000002
 10
-234.739923157302
 20
-64.97500000000001
 42
0.1989123673796573
 10
-233.636836578651
 20
-64.51808657865102
 10
-232.0506634213489
 20
-62.93191342134899
 42
-0.1989123673796734
 10
-230.9475768426979
 20
-62.47500000000002
 10
-174.802423157302
 20
-62.47500000000002
 42
-0.1989123673796564
 10
-173.699336578651
 20
-62.931913421349
 10
-172.113163421349
 20
-64.51808657865102
 42
0.1989123673796647
 10
-171.0100768426979
 20
-64.97500000000005
 10
-158.9983329627982
 20
-64.97500000000005
 42
-0.3028876670517019
 10
-157.5580867997526
 20
-65.93559113300492
 42
0.6669631606402548
 10
-152.9419132002474
 20
-65.93559113300492
 42
-0.3028876670517036
 10
-151.5016670372018
 20
-64.97500000000001
 10
-139.489923157302
 20
-64.97500000000001
 42
0.1989123673796573
 10
-138.386836578651
 20
-64.51808657865102
 10
-136.800663421349
 20
-62.93191342134898
 42
-0.1989123673796564
 10
-135.697576842698
 20
-62.47499999999999
 10
-117.652423157302
 20
-62.47500000000001
 42
-0.1989123673796548
 10
-116.549336578651
 20
-62.931913421349
 10
-114.963163421349
 20
-64.51808657865102
 42
0.1989123673796628
 10
-113.860076842698
 20
-64.97500000000002
 10
-101.8483329627982
 20
-64.97499999999999
 42
-0.3028876670517036
 10
-100.4080867997526
 20
-65.93559113300492
 42
0.6669631606402535
 10
-95.79191320024745
 20
-65.93559113300492
 42
-0.3028876670517062
 10
-94.35166703720179
 20
-64.97500000000001
 10
-82.33992315730202
 20
-64.97500000000001
 42
0.1989123673796573
 10
-81.23683657865101
 20
-64.51808657865102
 10
-79.65066342134899
 20
-62.931913421349
 42
-0.1989123673796555
 10
-78.54757684269799
 20
-62.47500000000002
 10
-61.025
 20
-62.47499999999999
 42
0.4142135623730909
 10
-60.02500000000001
 20
-61.475
 10
-60.02499999999999
 20
35.72499999999999
 42
0.414213562373093
 10
-61.02499999999999
 20
36.72499999999999
 10
-66.64132684269796
 20
36.72500000000003
 42
-0.1989123673796633
 10
-67.74441342134898
 20
37.181913421349
 10
-69.33058657865099
 20
38.76808657865102
 42
0.1989123673796596
 10
-70.43367315730201
 20
39.22500000000001
 10
-82.44541703720179
 20
39.22500000000006
 42
-0.3028876670517016
 10
-83.88566320024736
 20
40.18559113300495
 42
0.6669631606402522
 10
-88.50183679975257
 20
40.18559113300493
 42
-0.3028876670517033
 10
-89.94208296279821
 20
39.22500000000001
 10
-101.953826842698
 20
39.22499999999999
 42
0.1989123673796598
 10
-103.056913421349
 20
38.76808657865099
 10
-104.6430865786511
 20
37.18191342134895
 42
-0.1989123673796603
 10
-105.7461731573021
 20
36.72499999999998
 10
-126.266326842698
 20
36.72499999999997
 42
-0.1989123673796458
 10
-127.369413421349
 20
37.18191342134895
 10
-129.0178773826885
 20
38.83037738268857
 42
-0.1536937346125553
 10
-129.4508564064271
 20
39.66124628161303
 42
0.9159341067859196
 10
-134.4125
 20
39.22500000000001
 10
-134.4125
 20
38.4249999999989
 42
-0.4142135623730909
 10
-135.4125
 20
37.42499999999892
 10
-270.3375
 20
37.42500000000148
 42
-0.4142135623730597
 10
-271.3375
 20
38.42500000000148
  0
LINE
  5
AE
100
AcDbEntity
  8
0
  6
ByLayer
 62
  256
370
   -1
100
AcDbLine
 10
-96.86925000000001
 20
-0.3249999999999886
 11
-96.86924999999999
 21
13.675
  0
LINE
  5
AF
100
AcDbEntity
  8
0
  6
ByLayer
 62
  256
370
   -1
100
AcDbLine
 10
-65.99325
 20
-0.3249999999999886
 11
-65.99324999999999
 21
13.675
  0
LWPOLYLINE
  5
B0
100
AcDbEntity
  8
0
  6
ByLayer
 62
  256
370
   -1
100
AcDbPolyline
 90
   12
 70
    1
 43
0
 10
-343.225
 20
13.17499999999999
 42
-0.4142135623730805
 10
-342.7250000000001
 20
13.675
 10
-335.49425
 20
13.675
 42
0.4142135623731575
 10
-334.99425
 20
14.17499999999999
 10
-334.99425
 20
15.17499999999998
 42
-0.4142135623730055
 10
-334.4942500000002
 20
15.67499999999999
 10
-328.49425
 20
15.67499999999999
 42
-0.4142135623729577
 10
-327.99425
 20
15.17499999999998
 10
-327.9942500000001
 20
0.1749999999999828
 42
-0.4142135623729463
 10
-328.49425
 20
-0.3250000000000242
 10
-342.7249999999999
 20
-0.3250000000000243
 42
-0.4142135623732365
 10
-343.225
 20
0.174999999999983
  0
LWPOLYLINE
  5
B1
100
AcDbEntity
  8
0
  6
ByLayer
 62
  256
370
   -1
100
AcDbPolyline
 90
   24
 70
    1
 43
0
 10
-332.7567500000001
 20
-4.874999999999945
 10
-332.7567500000001
 20
-1.874999999999976
 42
0.4142135623731382
 10
-333.25675
 20
-1.374999999999944
 10
-339.2567500000002
 20
-1.375000000000009
 42
0.414213562373265
 10
-339.7567500000002
 20
-1.874999999999972
 10
-339.75675
 20
-22.8750000000001
 42
0.4142135623731283
 10
-339.25675
 20
-23.3750000000001
 10
-333.25675
 20
-23.3750000000001
 42
0.4142135623731616
 10
-332.75675
 20
-22.8750000000001
 10
-332.7567500000001
 20
-19.87499999999993
 42
-0.4142135623731387
 10
-332.2567500000001
 20
-19.3749999999999
 10
-316.38075
 20
-19.3749999999999
 42
-0.4142135623731429
 10
-315.88075
 20
-19.87499999999989
 10
-315.88075
 20
-22.87500000000005
 42
0.414213562373145
 10
-315.38075
 20
-23.37500000000004
 10
-309.38075
 20
-23.37500000000002
 42
0.4142135623731429
 10
-308.88075
 20
-22.87500000000003
 10
-308.88075
 20
-1.874999999999974
 42
0.4142135623731424
 10
-309.38075
 20
-1.374999999999981
 10
-315.38075
 20
-1.374999999999975
 42
0.414213562373112
 10
-315.88075
 20
-1.874999999999976
 10
-315.88075
 20
-4.874999999999943
 42
-0.4142135623731439
 10
-316.38075
 20
-5.374999999999938
 10
-332.2567500000001
 20
-5.374999999999977
 42
-0.4142135623731387
  0
LWPOLYLINE
  5
B2
100
AcDbEntity
  8
0
  6
ByLayer
 62
  256
370
   -1
100
AcDbPolyline
 90
   10
 70
    1
 43
0
 10
-273.7100453540574
 20
29.72500008754219
 10
-273.7904955384689
 20
29.72500008754219
 42
0.4142135623731512
 10
-274.2904955384689
 20
29.22500008754222
 10
-274.2904955384689
 20
22.22500008754221
 42
0.414213562373043
 10
-273.7904955384689
 20
21.7250000875422
 10
-273.4976023196553
 20
21.7250000875422
 42
0.1989123673795848
 10
-273.144048929062
 20
21.87144669694887
 10
-272.2753739370609
 20
22.74012168894983
 42
0.2446984432290938
 10
-272.136523451148
 20
23.18049916837668
 10
-273.2176414775513
 20
29.3118241763757
 42
0.3639702342662438
  0
LWPOLYLINE
  5
B3
100
AcDbEntity
  8
0
  6
ByLayer
 62
  256
370
   -1
100
AcDbPolyline
 90
    8
 70
    1
 43
0
 10
-267.9572032432296
 20
21.72500008754218
 10
-267.8721663868577
 20
21.7250000875422
 42
0.4142135623729722
 10
-267.3721663868577
 20
22.22500008754221
 10
-267.3721663868577
 20
29.22500008754222
 42
0.4142135623730701
 10
-267.8721663868577
 20
29.72500008754226
 10
-269.2697032432296
 20
29.72500008754222
 42
0.4696034901165986
 10
-269.7611393366967
 20
29.1328558200171
 10
-268.4486393366968
 20
22.13285582001708
 42
0.3609113025725713
  0
LWPOLYLINE
  5
B4
100
AcDbEntity
  8
0
  6
ByLayer
 62
  256
370
   -1
100
AcDbPolyline
 90
   16
 70
    1
 43
0
 10
-326.05625
 20
13.675
 42
0.4142135623730805
 10
-326.55625
 20
13.17499999999999
 10
-326.5562499999999
 20
0.174999999999983
 42
0.4142135623730909
 10
-326.05625
 20
-0.3250000000000243
 10
-303.5312500000001
 20
-0.3250000000000242
 42
0.4142135623730222
 10
-303.03125
 20
0.1749999999999828
 10
-303.03125
 20
13.17499999999999
 42
0.414213562373301
 10
-303.5312500000001
 20
13.675
 10
-303.61825
 20
13.67499999999996
 42
-0.4142135623730159
 10
-304.11825
 20
14.17499999999999
 10
-304.11825
 20
15.17499999999998
 42
0.4142135623731564
 10
-304.61825
 20
15.67499999999999
 10
-310.61825
 20
15.67500000000003
 42
0.4142135623728651
 10
-311.11825
 20
15.17499999999998
 10
-311.11825
 20
14.17499999999999
 42
-0.4142135623731138
 10
-311.61825
 20
13.67499999999998
  0
LWPOLYLINE
  5
B5
100
AcDbEntity
  8
0
  6
ByLayer
 62
  256
370
   -1
100
AcDbPolyline
 90
    4
 70
    1
 43
0
 10
-267.0721663868588
 20
29.22536963201084
 10
-267.0721663868594
 20
22.2250001104768
 42
0.9999996728525354
 10
-266.0721663868484
 20
22.22499973737525
 10
-266.0721663868577
 20
29.22500008754218
 42
0.9996305238128158
  0
LWPOLYLINE
  5
B6
100
AcDbEntity
  8
0
  6
ByLayer
 62
  256
370
   -1
100
AcDbPolyline
 90
   10
 70
    1
 43
0
 10
-272.387287988265
 20
28.70987848613663
 42
0.2446984432292269
 10
-272.5261384741781
 20
28.26950100670964
 10
-271.4450204477752
 20
22.13817599870877
 42
0.3639702342662008
 10
-270.9526165712691
 20
21.72500008754218
 10
-270.8721663868577
 20
21.7250000875422
 42
0.4142135623731034
 10
-270.3721663868576
 20
22.22500008754221
 10
-270.3721663868577
 20
29.22500008754222
 42
0.4142135623730222
 10
-270.8721663868577
 20
29.72500008754219
 10
-271.1650596056714
 20
29.72500008754223
 42
0.1989123673793521
 10
-271.5186129962644
 20
29.57855347813577
  0
LWPOLYLINE
  5
B7
100
AcDbEntity
  8
0
  6
ByLayer
 62
  256
370
   -1
100
AcDbPolyline
 90
    8
 70
    1
 43
0
 10
-306.1307499999706
 20
-5.875000000006185
 10
-306.13075
 20
-18.87499999999999
 42
0.4142135623731512
 10
-305.63075
 20
-19.37499999999996
 10
-303.6125
 20
-19.37500000000004
 42
0.4142135623731554
 10
-303.1125
 20
-18.87500000000006
 10
-303.1125000000001
 20
-5.875000000006168
 42
0.4142135623676404
 10
-303.6124999999909
 20
-5.37500000000616
 10
-305.6307499999937
 20
-5.37500000002936
 42
0.4142135623730576
  0
LWPOLYLINE
  5
B8
100
AcDbEntity
  8
0
  6
ByLayer
 62
  256
370
   -1
100
AcDbPolyline
 90
    8
 70
    1
 43
0
 10
-321.2125
 20
-38.42500000000004
 42
-0.4142135623729493
 10
-321.7124999999999
 20
-37.92500000000004
 10
-321.7125000000001
 20
-24.92500000000003
 42
-0.4142135623731512
 10
-321.2125
 20
-24.42500000000003
 10
-317.9000000000001
 20
-24.42500000000003
 42
-0.4142135623731346
 10
-317.4
 20
-24.92500000000003
 10
-317.4
 20
-37.92500000000004
 42
-0.41421356237312
 10
-317.9
 20
-38.42500000000004
  0
LWPOLYLINE
  5
B9
100
AcDbEntity
  8
0
  6
ByLayer
 62
  256
370
   -1
100
AcDbPolyline
 90
    8
 70
    1
 43
0
 10
-300.28125
 20
0.174999999999983
 42
0.4142135623731512
 10
-299.7812500000001
 20
-0.3249999999999886
 10
-294.0723422172205
 20
-0.325000000000024
 42
0.3436247106891016
 10
-293.5875
 20
0.05281970735198589
 10
-293.5875
 20
13.02851805254704
 42
0.5027291795248883
 10
-294.0631502422526
 20
13.67499999999987
 10
-299.7812500000001
 20
13.675
 42
0.4142135623730222
 10
-300.28125
 20
13.17499999999999
  0
LWPOLYLINE
  5
BA
100
AcDbEntity
  8
0
  6
ByLayer
 62
  256
370
   -1
100
AcDbPolyline
 90
    8
 70
    1
 43
0
 10
-296.6500000000001
 20
18.72499999999995
 10
-294.8375000000001
 20
18.72499999999995
 42
0.4142135623730659
 10
-294.3375
 20
19.22499999999994
 10
-294.3375
 20
32.22499999999997
 42
0.4142135623730701
 10
-294.8375000000001
 20
32.72499999999997
 10
-296.6500000000001
 20
32.72499999999997
 42
0.4142135623729701
 10
-297.1500000000001
 20
32.22499999999997
 10
-297.1500000000001
 20
19.22499999999994
 42
0.4142135623731637
  0
LWPOLYLINE
  5
BB
100
AcDbEntity
  8
0
  6
ByLayer
 62
  256
370
   -1
100
AcDbPolyline
 90
    8
 70
    1
 43
0
 10
-318.15
 20
32.22499999999997
 42
0.4142135623730409
 10
-318.65
 20
32.72499999999997
 10
-320.4625000000001
 20
32.72499999999997
 42
0.4142135623729701
 10
-320.9625
 20
32.22499999999997
 10
-320.9625
 20
19.22499999999994
 42
0.4142135623731408
 10
-320.4625000000001
 20
18.72499999999997
 10
-318.65
 20
18.72499999999995
 42
0.4142135623731408
 10
-318.15
 20
19.22499999999994
  0
LWPOLYLINE
  5
BC
100
AcDbEntity
  8
0
  6
ByLayer
 62
  256
370
   -1
100
AcDbPolyline
 90
    8
 70
    1
 43
0
 10
-342.7699832070884
 20
32.72499999999992
 42
0.4143997787966115
 10
-343.269983106047
 20
32.22468212963244
 10
-343.2617184748233
 20
19.22468212963247
 42
0.4140273704664139
 10
-342.7617185758649
 20
18.72499999999992
 10
-340.9625
 20
18.72499999999994
 42
0.4142135623729931
 10
-340.4625000000001
 20
19.22499999999992
 10
-340.4625000000001
 20
32.22499999999993
 42
0.4142135623731491
 10
-340.9625000000001
 20
32.725
  0
LWPOLYLINE
  5
BD
100
AcDbEntity
  8
0
  6
ByLayer
 62
  256
370
   -1
100
AcDbPolyline
 90
    8
 70
    1
 43
0
 10
-102.1375
 20
-0.3249999999999886
 10
-100.11925
 20
-0.3249999999999886
 42
0.4142135623730877
 10
-99.61925000000002
 20
0.1750000000000007
 10
-99.61925000000001
 20
13.17499999999999
 42
0.414213562373093
 10
-100.11925
 20
13.675
 10
-102.1375
 20
13.675
 42
0.4142135623730971
 10
-102.6375
 20
13.17499999999999
 10
-102.6375
 20
0.1750000000000007
 42
0.4142135623730919
  0
LWPOLYLINE
  5
BE
100
AcDbEntity
  8
0
  6
ByLayer
 62
  256
370
   -1
100
AcDbPolyline
 90
    4
 70
    1
 43
0
 10
-131.4596663868484
 20
22.22499973729256
 10
-131.4596663868576
 20
29.22500008754435
 42
0.9996305238128158
 10
-132.4596663868588
 20
29.22536963201297
 10
-132.4596663868594
 20
22.22500011047897
 42
0.999999672852532
  0
LWPOLYLINE
  5
BF
100
AcDbEntity
  8
0
  6
ByLayer
 62
  256
370
   -1
100
AcDbPolyline
 90
   10
 70
    1
 43
0
 10
-136.9061129962644
 20
29.57855347813792
 10
-137.774787988265
 20
28.70987848613877
 42
0.2446984432292846
 10
-137.9136384741781
 20
28.26950100671176
 10
-136.8325204477752
 20
22.1381759987109
 42
0.3639702342662074
 10
-136.3401165712691
 20
21.72500008754435
 10
-136.2596663868576
 20
21.72500008754434
 42
0.4142135623730534
 10
-135.7596663868576
 20
22.22500008754437
 10
-135.7596663868576
 20
29.22500008754435
 42
0.4142135623730597
 10
-136.2596663868576
 20
29.72500008754436
 10
-136.5525596056714
 20
29.72500008754439
 42
0.1989123673793957
  0
LWPOLYLINE
  5
C0
100
AcDbEntity
  8
0
  6
ByLayer
 62
  256
370
   -1
100
AcDbPolyline
 90
    8
 70
    1
 43
0
 10
-108.6
 20
32.225
 10
-108.6
 20
19.22499999999999
 42
-0.4142135623730971
 10
-109.1
 20
18.72499999999999
 10
-110.9125
 20
18.72499999999999
 42
-0.4142135623731013
 10
-111.4125
 20
19.22499999999999
 10
-111.4125
 20
32.225
 42
-0.4142135623730534
 10
-110.9125
 20
32.72499999999999
 10
-109.1
 20
32.72499999999998
 42
-0.4142135623730326
  0
LWPOLYLINE
  5
C1
100
AcDbEntity
  8
0
  6
ByLayer
 62
  256
370
   -1
100
AcDbPolyline
 90
    8
 70
    1
 43
0
 10
-62.98001679291161
 20
32.72499999999997
 10
-64.78749999999999
 20
32.72499999999999
 42
0.4142135623730534
 10
-65.28749999999999
 20
32.225
 10
-65.28749999999999
 20
19.22499999999999
 42
0.4142135623730971
 10
-64.78749999999999
 20
18.72499999999999
 10
-62.98828142413519
 20
18.72499999999997
 42
0.4140273704663972
 10
-62.48828152517678
 20
19.22468212963253
 10
-62.48001689395316
 20
32.2246821296325
 42
0.4143997787965906
  0
LWPOLYLINE
  5
C2
100
AcDbEntity
  8
0
  6
ByLayer
 62
  256
370
   -1
100
AcDbPolyline
 90
   10
 70
    1
 43
0
 10
-139.6779955384689
 20
29.22500008754435
 10
-139.6779955384689
 20
22.22500008754437
 42
0.4142135623730805
 10
-139.1779955384689
 20
21.72500008754433
 10
-138.8851023196553
 20
21.72500008754434
 42
0.1989123673795158
 10
-138.531548929062
 20
21.87144669695101
 10
-137.6628739370609
 20
22.740121688952
 42
0.2446984432290505
 10
-137.524023451148
 20
23.1804991683788
 10
-138.6051414775513
 20
29.31182417637787
 42
0.3639702342662087
 10
-139.0975453540574
 20
29.72500008754436
 10
-139.1779955384689
 20
29.72500008754436
 42
0.4142135623730992
  0
LWPOLYLINE
  5
C3
100
AcDbEntity
  8
0
  6
ByLayer
 62
  256
370
   -1
100
AcDbPolyline
 90
    8
 70
    1
 43
0
 10
-133.2596663868576
 20
21.72500008754434
 42
0.4142135623730763
 10
-132.7596663868576
 20
22.22500008754437
 10
-132.7596663868576
 20
29.22500008754435
 42
0.4142135623730264
 10
-133.2596663868576
 20
29.72500008754439
 10
-134.6572032432296
 20
29.72500008754439
 42
0.4696034901166793
 10
-135.1486393366967
 20
29.13285582001926
 10
-133.8361393366968
 20
22.13285582001927
 42
0.3609113025726005
 10
-133.3447032432296
 20
21.72500008754435
  0
LWPOLYLINE
  5
C4
100
AcDbEntity
  8
0
  6
ByLayer
 62
  256
370
   -1
100
AcDbPolyline
 90
    8
 70
    1
 43
0
 10
-84.53749999999999
 20
-38.42500000000002
 42
0.4142135623730992
 10
-84.03749999999999
 20
-37.925
 10
-84.03749999999999
 20
-24.925
 42
0.4142135623730971
 10
-84.53749999999999
 20
-24.42499999999999
 10
-87.84999999999999
 20
-24.42499999999999
 42
0.414213562373093
 10
-88.35000000000001
 20
-24.925
 10
-88.35000000000001
 20
-37.92499999999997
 42
0.4142135623730909
 10
-87.84999999999999
 20
-38.42499999999997
  0
LWPOLYLINE
  5
C5
100
AcDbEntity
  8
0
  6
ByLayer
 62
  256
370
   -1
100
AcDbPolyline
 90
    8
 70
    1
 43
0
 10
-92.61250000000001
 20
-19.375
 10
-86.91874999999999
 20
-19.375
 42
0.4142135623731075
 10
-86.41875
 20
-18.87499999999999
 10
-86.41874999999999
 20
-5.874999999999968
 42
0.4142135623731086
 10
-86.91874999999999
 20
-5.374999999999996
 10
-92.61250000000001
 20
-5.374999999999996
 42
0.4142135623730721
 10
-93.11250000000001
 20
-5.874999999999986
 10
-93.11250000000001
 20
-18.87499999999999
 42
0.4142135623730971
  0
LWPOLYLINE
  5
C6
100
AcDbEntity
  8
0
  6
ByLayer
 62
  256
370
   -1
100
AcDbPolyline
 90
    8
 70
    1
 43
0
 10
-87.59999999999998
 20
19.22499999999999
 42
0.4142135623730867
 10
-87.10000000000001
 20
18.725
 10
-85.28749999999999
 20
18.72499999999999
 42
0.414213562373093
 10
-84.78749999999998
 20
19.22499999999999
 10
-84.78749999999999
 20
32.225
 42
0.4142135623730451
 10
-85.28750000000001
 20
32.72499999999999
 10
-87.10000000000001
 20
32.72499999999999
 42
0.4142135623730618
 10
-87.59999999999999
 20
32.22499999999998
  0
LWPOLYLINE
  5
C7
100
AcDbEntity
  8
0
  6
ByLayer
 62
  256
370
   -1
100
AcDbPolyline
 90
    8
 70
    1
 43
0
 10
-337.9625
 20
-38.42499999999995
 10
-324.9625
 20
-38.425
 42
0.4142135623730992
 10
-324.4625
 20
-37.92499999999998
 10
-324.4625
 20
-24.92499999999998
 42
0.4142135623731075
 10
-324.9625
 20
-24.42499999999997
 10
-337.9624999999999
 20
-24.42499999999997
 42
0.4142135623731512
 10
-338.4625
 20
-24.92499999999998
 10
-338.4625
 20
-37.92499999999998
 42
0.4142135623730867
  0
LWPOLYLINE
  5
C8
100
AcDbEntity
  8
0
  6
ByLayer
 62
  256
370
   -1
100
AcDbPolyline
 90
    9
 70
    0
 43
0
 10
-110.65
 20
-38.425
 42
0.4142135623731325
 10
-110.15
 20
-37.925
 10
-110.15
 20
-24.925
 42
0.4142135623730951
 10
-110.65
 20
-24.425
 10
-123.65
 20
-24.425
 42
0.4142135623730284
 10
-124.15
 20
-24.925
 10
-124.15
 20
-37.925
 42
0.4142135623731283
 10
-123.65
 20
-38.42499999999999
 10
-110.65
 20
-38.425
  0
LWPOLYLINE
  5
C9
100
AcDbEntity
  8
0
  6
ByLayer
 62
  256
370
   -1
100
AcDbPolyline
 90
    4
 70
    1
 43
0
 10
-100.7500000000002
 20
-1.500000000000003
 10
-99.25000000000018
 20
-1.500000000000003
 10
-99.25000000000018
 20
-0.2500000000000005
 10
-100.7500000000002
 20
-0.2500000000000005
  0
LWPOLYLINE
  5
CA
100
AcDbEntity
  8
0
  6
ByLayer
 62
  256
370
   -1
100
AcDbPolyline
 90
    4
 70
    1
 43
0
 10
-305.6288478452072
 20
-2.858399296394024
 10
-98.94459102902393
 20
-2.858399296394024
 10
-98.94459102902393
 20
-19.5690413368514
 10
-305.6288478452072
 20
-19.5690413368514
  0
LWPOLYLINE
  5
CB
100
AcDbEntity
  8
0
  6
ByLayer
 62
  256
370
   -1
100
AcDbPolyline
 90
    4
 70
    1
 43
0
 10
-297.5000000000007
 20
-22.75000000000006
 10
-83.50000000000021
 20
-22.75000000000006
 10
-83.50000000000021
 20
-40.2500000000001
 10
-297.5000000000007
 20
-40.2500000000001
  0
LWPOLYLINE
  5
CC
100
AcDbEntity
  8
0
  6
ByLayer
 62
  256
370
   -1
100
AcDbPolyline
 90
    4
 70
    1
 43
0
 10
-299.7500000000007
 20
1.750000000000004
 10
-98.50000000000026
 20
1.750000000000004
 10
-98.50000000000026
 20
-6.000000000000015
 10
-299.7500000000007
 20
-6.000000000000015
  0
LWPOLYLINE
  5
CD
100
AcDbEntity
  8
0
  6
ByLayer
 62
  256
370
   -1
100
AcDbPolyline
 90
    4
 70
    1
 43
0
 10
-86.00000000000021
 20
-5.500000000000014
 10
-107.2500000000003
 20
-5.500000000000014
 10
-107.2500000000003
 20
-24.00000000000006
 10
-86.00000000000021
 20
-24.00000000000006
  0
LWPOLYLINE
  5
CE
100
AcDbEntity
  8
0
  6
ByLayer
 62
  256
370
   -1
100
AcDbPolyline
 90
    4
 70
    1
 43
0
 10
-298.7500000000007
 20
-19.25000000000005
 10
-97.75000000000026
 20
-19.25000000000005
 10
-97.75000000000026
 20
-28.50000000000007
 10
-298.7500000000007
 20
-28.50000000000007
  0
LWPOLYLINE
  5
CF
100
AcDbEntity
  8
0
  6
ByLayer
 62
  256
370
   -1
100
AcDbPolyline
 90
    4
 70
    1
 43
0
 10
-300.0000000000007
 20
4.500000000000012
 10
-98.50000000000026
 20
4.500000000000012
 10
-98.50000000000026
 20
-6.000000000000015
 10
-300.0000000000007
 20
-6.000000000000015
  0
LWPOLYLINE
  5
D0
100
AcDbEntity
  8
0
  6
ByLayer
 62
  256
370
   -1
100
AcDbPolyline
 90
    5
 70
    0
 43
0
 10
-300.0000000000006
 20
13.75000000000003
 10
-98.50000000000018
 20
13.75000000000003
 10
-98.50000000000018
 20
-0.7500000000000014
 10
-300.0000000000006
 20
-0.7500000000000014
 10
-300.0000000000006
 20
13.75000000000003
  0
ENDSEC
  0
SECTION
  2
OBJECTS
  0
DICTIONARY
  5
C
330
0
100
AcDbDictionary
281
    1
  3
ACAD_GROUP
350
D
  0
DICTIONARY
  5
D
330
C
100
AcDbDictionary
281
    1
  0
PLOTSETTINGS
  5
D1
100
AcDbPlotSettings
  6
1x1
 40
0
 41
0
 42
0
 43
0
  0
ENDSEC
  0
EOF
